<?xml version="1.0" encoding="utf-8"?>
<!-- Generator: Adobe Illustrator 24.0.1, SVG Export Plug-In . SVG Version: 6.00 Build 0)  -->
<svg version="1.1" id="Layer_1" xmlns="http://www.w3.org/2000/svg" xmlns:xlink="http://www.w3.org/1999/xlink" x="0px" y="0px"
	 viewBox="0 0 150 208.3" style="enable-background:new 0 0 150 208.3;" xml:space="preserve">
<style type="text/css">
	.st0{fill-rule:evenodd;clip-rule:evenodd;fill:#FFFFFF;}
	.st1{fill:#371844;}
	.st2{opacity:0.3;}
	.st3{fill-rule:evenodd;clip-rule:evenodd;fill:#371844;}
	.st4{opacity:0.2;}
	.st5{opacity:0.35;}
	.st6{fill-rule:evenodd;clip-rule:evenodd;fill:#252468;}
	.st7{fill:#7DC143;}
	.st8{fill:#7DC142;}
	.st9{opacity:0.7;}
	.st10{fill:#FFFFFF;}
	.st11{fill:#101828;}
	.st12{opacity:0.5;}
</style>
<g>
	<g>
		<path class="st0" d="M89.7,111.7c2.5-2.1,4.2-3.7,5.2-5c31.3,17.1,33.1,38.2-0.1,46.4c-10,2.4-15.7-10-4.7-16.6
			c-7.5-8-5.1-10.4,7-7.1c4.7-1.7,7.3-3.7,7.7-6.1C100.7,118.2,95.7,114.3,89.7,111.7"/>
		<path class="st1" d="M92.2,153.5c-3.9,0-6.6-2.3-7.7-5c-1.3-3.3-0.7-8.4,5.3-12.1c-3.5-3.8-4.8-6.2-3.9-7.6
			c0.9-1.5,4.6-1.4,11.2,0.4c4.5-1.6,7.1-3.6,7.5-5.9c-4-5-9.1-8.9-15-11.5l-0.2-0.1l0.2-0.2c2.4-2.1,4.2-3.7,5.2-5l0.1-0.1l0.1,0.1
			c16.5,9,25.3,19.5,24.1,28.7c-1,8-9.7,14.4-24.3,18C93.9,153.4,93.1,153.5,92.2,153.5z M89,128.1c-1.5,0-2.4,0.3-2.8,0.9
			c-0.7,1.2,0.6,3.7,4,7.3l0.1,0.1l-0.2,0.1c-6,3.6-6.7,8.6-5.4,11.8c1.3,3.1,4.8,5.7,9.9,4.5c14.5-3.6,23-9.8,24.1-17.7
			c1.2-9-7.5-19.4-23.8-28.3c-1,1.2-2.7,2.8-5,4.8c5.9,2.6,10.9,6.5,14.9,11.6l0,0.1l0,0.1c-0.4,2.4-3,4.5-7.8,6.2l0,0l0,0
			C93.6,128.6,90.9,128.1,89,128.1z"/>
	</g>
	<g class="st2">
		<path class="st3" d="M104.6,123.8L104.6,123.8c0,0.1,0,0.2,0.2,0.2L104.6,123.8z M93,108.6L93,108.6L93,108.6
			c0.5-0.5,0.9-0.9,1.3-1.3l0,0l0,0c0.1-0.2,0.3-0.3,0.4-0.5c1.1,0.6,2.1,1.2,3.1,1.7c-1,1.5-3.3,3-2.6,3.5
			c5.7,3.7,10.4,9.3,11.1,9.2l0.9-0.1c1.1,1.2-0.5,2.9-2.4,4.6c0.9-1.1-0.5-0.4,0-1.8c-1.4,0.9,0-0.5-0.2-0.1c0-0.1,0.1-0.3,0.1-0.4
			c-2.3-2.9-4.9-5.3-7.8-7.4c-2.4-1.8-4.8-3.2-7.4-4.1C90.8,110.7,92,109.6,93,108.6z"/>
	</g>
	<g>
		<path class="st1" d="M92.5,154.4c-3.8,0-7.1-2-8.5-5.4c-1.4-3.4-1-8.7,4.7-12.6c-3.4-3.7-4.4-6.2-3.4-7.8c1.2-1.9,4.8-2,11.8-0.2
			c3.8-1.4,6-3.1,6.6-4.8c-3.9-4.7-8.8-8.4-14.5-10.8l-1.5-0.6l1.2-1c2.4-2,4.1-3.7,5.1-4.9l0.5-0.6l0.7,0.4
			c16.9,9.1,26,19.8,24.8,29.4c-1,8.4-9.8,15.1-24.8,18.9C94.3,154.3,93.4,154.4,92.5,154.4z M89.1,129c-1.7,0-2.1,0.4-2.1,0.6
			c-0.1,0.1-0.6,1.4,4,6.3l0.8,0.9l-1.1,0.6c-5.6,3.4-6.1,7.9-4.9,10.8c1.2,2.8,4.4,5.1,9,3.9c14.1-3.6,22.4-9.7,23.3-17.2
			c1.1-8.6-7.3-18.4-23.1-27c-0.9,1-2.1,2.2-3.6,3.5c5.5,2.6,10.3,6.4,14.2,11.1l0.3,0.3l-0.1,0.4c-0.5,2.8-3.2,5-8.3,6.9l-0.3,0.1
			l-0.3-0.1C92.9,129.3,90.5,129,89.1,129z"/>
	</g>
	<g class="st4">
		<path class="st3" d="M74.5,176.5c39.8,0,72.1,4.8,72.1,10.7s-32.3,10.7-72.1,10.7s-72.1-4.8-72.1-10.7S34.7,176.5,74.5,176.5"/>
	</g>
	<g class="st5">
		<path class="st6" d="M56.3,128.4c-1.3,0.2-2.8,0.6-4.5,1l-0.1,0l-0.1,0l0,0l0,0l-0.1,0l-0.1,0l0,0l-0.1,0l-0.1,0l-0.1,0l0,0
			l-0.1,0l-0.1,0l0,0l-0.1,0l-0.1,0l-0.1,0l0,0l-0.1,0l-0.1,0l0,0l0,0l-0.1,0l-0.1,0l0,0l-0.1,0l-0.1,0l0,0l0,0l-0.1,0l-0.1,0l0,0
			l-0.1,0l-0.1,0l0,0l0,0l-0.1,0l-0.1,0l0,0l-0.1,0l-0.1,0l-0.1,0l0,0l-0.1,0l-0.1,0l0,0l0,0l-0.1,0l-0.1,0l0,0l-0.1,0l-0.1,0l0,0
			l0,0l-0.1,0l-0.1,0l-0.1,0l-0.1,0l0,0l-0.1-0.1l-0.1,0l0,0l-0.2-0.1l0,0l-0.1-0.1l0,0c-0.1-0.1-0.2-0.1-0.3-0.2l0,0
			c-0.2-0.1-0.3-0.2-0.4-0.3h0c-1.8-1.2-2.9-2.5-3.1-4l0.2-0.3l0.2-0.3l0.3-0.4l0.4-0.4l0,0l0.2-0.2c1.2,1.4,2.6,2.7,4.3,3.8
			l0.1,0.1l0,0l0,0l0.1,0.1l0,0l0.1,0l0.1,0.1l0,0l0.1,0.1l0.1,0.1l0,0l0.1,0.1l0.1,0l0,0l0.1,0.1l0,0l0.1,0l0.1,0.1l0,0l0.1,0
			l0.1,0.1l0.1,0.1l0.1,0l0,0l0,0l0.1,0.1l0,0l0.1,0.1l0,0l0.1,0l0.1,0.1l0,0l0.1,0l0.1,0l0,0l0.1,0.1l0.1,0l0,0l0.1,0.1l0.1,0
			l0.1,0l0.1,0l0,0l0.2,0.1l0,0l0.1,0l0.1,0l0,0l0,0l0.2,0.1l0,0l0.1,0l0,0l0.2,0.1l0,0l0.1,0l0.1,0l0.1,0l0.1,0l0,0l0.1,0l0.1,0
			l0,0l0.1,0l0,0l0.2,0.1l0,0l0.2,0.1l0,0l0.2,0.1l0,0l0.3,0.1l0,0l0,0l0.1,0l0.1,0l0,0l0,0l0.2,0l0,0l0.2,0l0,0l0,0l0.1,0l0,0
			l0.1,0l0.1,0l0,0l0,0L56.3,128.4L56.3,128.4z"/>
		<path class="st1" d="M51.9,129.6l-3.5-1.5l-0.3-0.2c-0.1-0.1-0.2-0.1-0.3-0.2c-0.2-0.1-0.3-0.2-0.5-0.3c-1.9-1.2-2.9-2.6-3.2-4.1
			l0-0.1l0.8-1l0.7-0.8l0.1,0.1c1.1,1.4,2.6,2.7,4.2,3.8l1.5,1l0,0.2l0.1-0.1l1.6,0.8l1.4,0.6l1.6,0.4l0,0.1c0,0,0,0,0,0l0-0.1
			l1,0.2l-0.9,0.2C55.1,128.8,53.6,129.1,51.9,129.6L51.9,129.6z M44.4,123.3c0.3,1.4,1.3,2.7,3,3.8c0.1,0.1,0.3,0.2,0.4,0.3
			c0.1,0.1,0.2,0.1,0.3,0.2l3.7,1.7c1.3-0.3,2.5-0.6,3.6-0.8l-2-0.7l-2-1l-1.8-1.1c-1.6-1.1-3-2.4-4.2-3.7L44.4,123.3z"/>
	</g>
	<g class="st5">
		<path class="st6" d="M107.7,168.4c-6.9,11-19.1,18.3-33,18.3c-14.2,0-26.6-7.6-33.4-18.9c8.8,8.9,20.8,13.9,33.3,13.9
			c12.5,0,24.5-5,33.3-13.9C107.8,168,107.7,168.2,107.7,168.4"/>
		<path class="st1" d="M74.7,186.9c-6.9,0-13.7-1.8-19.6-5.2c-5.7-3.3-10.6-8.1-14-13.8l-0.7-1.1l0.9,0.9
			c8.7,8.8,20.8,13.9,33.2,13.9c12.4,0,24.5-5.1,33.2-13.9l0.4-0.4l-0.1,0.5c0,0.2-0.1,0.5-0.1,0.7l0,0
			C100.6,180,88.2,186.9,74.7,186.9z M42.1,168.8c7.2,11.1,19.3,17.7,32.6,17.7c13.4,0,25.7-6.8,32.9-18.2c0,0,0-0.1,0-0.1
			c-8.7,8.6-20.8,13.6-33,13.6C62.5,181.8,50.7,177.1,42.1,168.8z"/>
	</g>
	<g>
		<path class="st0" d="M59.5,111.8c-2.4-2.1-4.2-3.8-5.2-5.1c-31.4,16.9-33.5,38-0.2,46.4c9.9,2.5,15.8-9.9,4.8-16.5
			c7.5-8,5.2-10.3-6.9-7.2c-4.7-1.7-7.2-3.7-7.6-6.1C48.4,118.2,53.4,114.4,59.5,111.8"/>
		<path class="st1" d="M56.6,153.6c-0.8,0-1.7-0.1-2.7-0.3c-14.6-3.7-23.2-10.2-24.1-18.2c-1.1-9.2,7.7-19.6,24.4-28.5l0.1-0.1
			l0.1,0.1c1,1.3,2.8,3,5.2,5l0.2,0.2l-0.2,0.1c-6,2.6-11,6.4-15.1,11.4c0.4,2.3,2.9,4.3,7.5,5.9c6.6-1.7,10.3-1.8,11.2-0.3
			c0.8,1.4-0.5,3.8-4,7.5c6,3.7,6.6,8.9,5.2,12.1C63.2,151.3,60.5,153.6,56.6,153.6z M54.2,106.9C37.8,115.7,29,126,30.1,135
			c1,7.9,9.5,14.2,23.9,17.9c5,1.3,8.6-1.3,9.9-4.4c1.3-3.2,0.8-8.2-5.3-11.8l-0.2-0.1l0.1-0.1c3.4-3.6,4.8-6.1,4.1-7.3
			c-0.8-1.4-4.5-1.3-10.9,0.4l0,0l0,0c-4.7-1.7-7.3-3.8-7.7-6.3l0-0.1l0-0.1c4.1-5,9.1-8.9,15-11.4
			C56.9,109.8,55.2,108.2,54.2,106.9z"/>
	</g>
	<g class="st2">
		<path class="st3" d="M44.4,123.8L44.4,123.8c0,0.1,0,0.2-0.2,0.2L44.4,123.8z M56,108.6L56,108.6L56,108.6
			c-0.5-0.5-0.9-0.9-1.3-1.3l0,0l0,0c-0.1-0.2-0.3-0.3-0.4-0.5c-1.1,0.6-2.1,1.2-3.1,1.7c1,1.5,3.3,3,2.6,3.5
			c-5.7,3.7-10.4,9.3-11.1,9.2l-0.9-0.1c-1.1,1.2,0.5,2.9,2.4,4.6c-0.9-1.1-1.6-2.4-2.1-3.8c1.4,0.9,2.1,1.5,2.3,1.8
			c0-0.1-0.1-0.3-0.1-0.4c2.3-2.9,4.9-5.3,7.8-7.4c2.4-1.8,4.8-3.2,7.4-4.1C58.2,110.7,57,109.6,56,108.6z"/>
	</g>
	<g>
		<path class="st1" d="M48.9,127l-1,1.8c-1.4-0.8-2.6-1.7-3.6-2.9c-1-1.2-1.7-2.5-2.3-4C45.6,123.8,46.1,125.5,48.9,127"/>
	</g>
	<g class="st2">
		<path class="st3" d="M54.2,151.4c3.6,0.8,6.7,0.2,9.3-1.8c1.2-1.8,1.7-4.1,1.1-6.4c-1.3,8.4-10.7,8.2-27-3.8
			c-5.5-4.1-8.5-7.9-2.1-19c-6.2,5.9-6.1,8.7-5.5,14.1C35,143.7,42.8,148.5,54.2,151.4"/>
	</g>
	<g>
		<path class="st0" d="M31.3,139.3c-1.6,16.5,0.7,24,7.1,22.6c-1.2-3-2-6.3-2.4-9.7c-0.4-2.3-0.3-5.1-0.2-7.5
			C33.7,143.1,32.2,141.2,31.3,139.3"/>
		<path class="st1" d="M37,162.2c-1.2,0-2.3-0.4-3.1-1.2c-3-2.7-3.9-10-2.7-21.8l0.1-0.5l0.2,0.5c1,1.9,2.5,3.8,4.5,5.5l0.1,0.1
			l0,0.1c-0.1,1.6-0.3,4.8,0.2,7.4c0.4,3.3,1.2,6.5,2.4,9.6l0.1,0.2l-0.2,0C37.9,162.2,37.4,162.2,37,162.2z M31.4,139.8
			c-1.1,11.4-0.2,18.5,2.6,21c1.1,1,2.4,1.3,4.1,1c-1.2-3.1-2-6.3-2.4-9.5c-0.4-2.6-0.3-5.8-0.2-7.4
			C33.8,143.3,32.4,141.6,31.4,139.8z"/>
	</g>
	<g>
		<path class="st0" d="M31.4,155.7c-3.1,1.6-5.6,3.6-7.5,6c-4.1-4.6-5.8-2.8-5.2,5.3c-5.9-14-17.4-3.4-10.4,7.6
			c8.2,13.7,15.6,18.2,21.3,12.6c4.7-4.6,8.9-6.8,13.5-5.2c6.5,2.2,11.7,2.8,15.9,1.3c-9.4-4.1-16.8-11.9-20.6-21.5
			C34.8,162.7,32.4,160.6,31.4,155.7"/>
		<path class="st1" d="M24.4,189.8c-0.3,0-0.6,0-0.9-0.1c-4.6-0.6-9.8-5.6-15.4-15c-3-4.8-2.5-9.2-1-11.7c1.1-1.9,2.9-2.9,4.8-2.8
			c1.5,0.1,4.2,1,6.6,6c-0.2-4.2,0.2-6.5,1.4-7c0.9-0.4,2.3,0.4,4,2.3c1.9-2.3,4.4-4.3,7.5-5.9l0.2-0.1l0,0.2c0.6,2.8,1.6,4.7,3,5.6
			c1,0.7,2.3,0.8,3.7,0.5l0.1,0l0,0.1c3.7,9.5,11.2,17.3,20.5,21.4l0.4,0.2l-0.4,0.1c-4,1.4-9.2,1-16-1.3c-4.1-1.4-8.2,0.2-13.3,5.2
			C28.1,189,26.3,189.8,24.4,189.8z M11.6,160.5c-1.6,0-3.2,1-4.2,2.7c-1.4,2.4-1.9,6.7,1,11.4c5.6,9.3,10.7,14.3,15.2,14.8
			c2.1,0.3,4.1-0.5,5.8-2.2c5.2-5.1,9.4-6.7,13.7-5.3c6.5,2.2,11.5,2.7,15.4,1.5c-9.2-4.2-16.5-11.9-20.2-21.3
			c-1.5,0.3-2.8,0.1-3.8-0.6c-1.4-0.9-2.5-2.8-3.1-5.6c-3,1.6-5.4,3.6-7.3,5.9l-0.1,0.1l-0.1-0.1c-1.7-1.9-3-2.7-3.8-2.4
			c-1.1,0.5-1.5,3-1.2,7.6l0.1,1l-0.4-0.9c-2.3-5.5-5.2-6.5-6.6-6.6C11.8,160.5,11.7,160.5,11.6,160.5z"/>
	</g>
	<g>
		<path class="st1" d="M21.4,158.4c1.7,0.5,3.2,2.1,4.4,4.7c1.1,2.4,2.1,5.8,2.8,10.1c-2.8-3-4.2-11.2-7.8-12.8L21.4,158.4z"/>
	</g>
	<g>
		<path class="st1" d="M56.5,154.4c-0.9,0-1.8-0.1-2.8-0.4C38.8,150.3,30,143.6,29,135.2c-1.2-9.5,7.8-20.2,24.6-29.3l0.7-0.4l1,1.1
			c0.2,0.2,0.3,0.4,0.5,0.5l0.1,0.1c0.1,0.2,0.3,0.3,0.4,0.5v0l0.1,0.1c0.1,0.1,0.3,0.3,0.4,0.4l1.9,1.8l1.1,1l1.2,1l-1.5,0.6
			c-5.6,2.4-10.4,6.1-14.3,10.7c0.6,1.8,2.8,3.4,6.6,4.8c7-1.8,10.7-1.8,11.8,0.2c1,1.7-0.1,4.1-3.4,7.8c5.7,4,6.1,9.2,4.7,12.6
			C63.6,152.4,60.3,154.4,56.5,154.4z M53.9,108c-15.6,8.6-24,18.3-22.9,26.9c0.9,7.5,9.2,13.6,23.3,17.2c4.6,1.2,7.8-1.1,9-3.9
			c1.2-2.9,0.6-7.4-4.9-10.8l-1.1-0.6l0.8-0.9c4.6-4.9,4.1-6.2,4-6.3c-0.2-0.3-1.4-1.5-9.9,0.8l-0.3,0.1l-0.3-0.1
			c-5.1-1.9-7.8-4.1-8.3-6.9l-0.1-0.4l0.3-0.3c3.8-4.7,8.5-8.4,13.9-11l-1.8-1.7l-0.2-0.2c-0.1-0.2-0.3-0.3-0.4-0.4l0,0l0,0
			c-0.2-0.2-0.3-0.4-0.5-0.5l-0.1-0.1C54.2,108.4,54,108.2,53.9,108z M54.4,107.4L54.4,107.4l0.1-0.1L54.4,107.4z"/>
	</g>
	<g>
		<g>
			<g>
				<path class="st7" d="M126.3,75.8c-4.8,29-41.4,41.9-57.8,39.2c-16.4-2.7-47-26.6-42.3-55.6c4.8-29,30.1-51.5,59.1-46.7
					C114.2,17.4,131,46.8,126.3,75.8z"/>
			</g>
			<g>
				<path class="st8" d="M126.3,75.8c-4.8,29-41.4,41.9-57.8,39.2c-16.4-2.7-47-26.6-42.3-55.6c2.2-13.6,9-25.7,18.5-34.3
					c0.3-0.3,0.6-0.5,0.9-0.8c10.7-9.2,24.7-14.1,39.7-11.6c14.3,2.3,25.6,10.7,32.9,22c5.8,9,8.9,19.8,9,31.1
					C127.1,69.1,126.8,72.5,126.3,75.8z"/>
			</g>
			<g class="st9">
				<path class="st10" d="M127.1,65.8c0,2.3-0.1,4.7-0.4,7.1c0-1,0.1-2,0.1-3.1c0-11.2-3.2-22.1-9-31.1c-3.3-5.2-7.5-9.7-12.4-13.3
					c0.3,0.8,0.3,1.5,0,2.1c-1,2-5.5,1.9-9.9-0.4c-4.5-2.3-7.2-5.7-6.2-7.8c0.3-0.6,0.8-1,1.6-1.2c-1.9-0.6-3.9-1-5.9-1.4
					c-15-2.5-29,2.4-39.7,11.6c-0.3,0.3-0.6,0.5-0.9,0.8c-9.5,8.6-16.2,20.7-18.5,34.3c-0.1,0.4-0.1,0.7-0.2,1.1
					c0-1.7,0.2-3.4,0.5-5.1c2.2-13.6,9-25.7,18.5-34.3c0.3-0.3,0.6-0.5,0.9-0.8c10.7-9.2,24.7-14.1,39.7-11.6
					c14.3,2.3,25.6,10.7,32.9,22C123.8,43.7,127,54.5,127.1,65.8z"/>
			</g>
			<g class="st2">
				<path class="st1" d="M112.6,99.6c-13.5,12.1-33.3,17.2-44.2,15.4c-11.4-1.9-29.8-14.1-38.2-31.1c11.8,13,28.7,22.1,40,24
					C80.7,109.6,97.9,106.9,112.6,99.6z"/>
			</g>
			<g>
				<path class="st1" d="M58.6,112.3c-5.8-2.4-11.2-6-15.9-10.2c-2.4-2.1-4.6-4.4-6.6-6.9c-2-2.5-3.9-5.1-5.5-7.8
					c-3.2-5.5-5.4-11.7-6.1-18.1c-0.3-3.2-0.3-6.5,0.2-9.6c0.5-3.2,1.2-6.3,2.2-9.3c0.3-0.8,0.5-1.5,0.8-2.3l0.8-2.2l0.9-2.2
					c0.3-0.7,0.7-1.4,1-2.2c1.4-2.8,3.1-5.6,4.9-8.2c3.7-5.2,8.2-9.8,13.5-13.5c5.2-3.7,11.1-6.5,17.4-8c6.2-1.5,12.8-1.7,19.1-0.7
					c6.3,1.1,12.5,3.3,17.9,6.7c5.4,3.4,10.2,7.9,14,13c1.9,2.6,3.6,5.3,5,8.2c1.4,2.9,2.6,5.8,3.5,8.9c1.9,6.1,2.8,12.5,2.7,18.8
					c-0.1,3.2-0.3,6.4-0.9,9.5c-0.6,3.2-1.5,6.3-2.8,9.2c-2.6,5.9-6.7,11.1-11.5,15.2c-4.8,4.2-10.3,7.6-16.1,10.1
					c-5.8,2.5-12,4.2-18.3,4.7c-0.4,0-0.7-0.2-0.7-0.6c0-0.3,0.2-0.6,0.5-0.7l0,0c3-0.6,6-1.4,8.9-2.3c2.9-1,5.8-2.1,8.5-3.3
					c5.6-2.6,10.8-5.8,15.4-9.8c4.6-4,8.3-8.9,10.8-14.4c1.2-2.7,2.1-5.6,2.6-8.6c0.5-3,0.8-6,0.8-9.1c0.1-6.1-0.8-12.2-2.6-18
					c-0.9-2.9-2-5.7-3.4-8.4c-1.4-2.7-3-5.3-4.8-7.7c-3.6-4.9-8.1-9.1-13.2-12.3c-5.1-3.2-10.9-5.3-16.9-6.3c-6-1-12.1-0.8-18,0.6
					c-5.9,1.4-11.5,4-16.4,7.5c-5,3.5-9.3,7.8-12.8,12.8c-1.8,2.5-3.3,5.1-4.7,7.8c-0.3,0.7-0.7,1.4-1,2.1l-0.9,2.1l-0.8,2.1
					c-0.3,0.7-0.5,1.4-0.7,2.2c-0.9,2.9-1.6,5.9-2.1,8.9c-0.5,3-0.5,6-0.2,9c0.6,6,2.6,11.8,5.7,17.1c3,5.3,7,10,11.5,14.2
					c0.6,0.5,1.1,1.1,1.7,1.5l0.9,0.8l0.9,0.7c1.2,1,2.4,1.9,3.6,2.8c2.5,1.8,5,3.5,7.7,5l0,0c0.3,0.2,0.4,0.6,0.2,0.9
					C59.2,112.4,58.8,112.5,58.6,112.3z"/>
			</g>
			<g>
				<path class="st1" d="M38.5,58.1c-3.6,3.4-6.5,12.7,0.1,23.2c6.6,10.4,19.8,12.3,23.8,8.1c3.1-3.2,5.4-12-1.3-22.5
					C54.6,56.5,42.3,54.6,38.5,58.1z"/>
			</g>
			<g class="st9">
				<path class="st10" d="M65.1,84.2c0.1-3.9-1-8.7-4.3-13.8c-6.6-10.4-18.9-12.3-22.7-8.8c-1.2,1.1-2.4,3-3.1,5.3
					c0.1-4.5,1.9-8.1,3.9-10c3.7-3.5,16-1.6,22.7,8.8C66.3,73.2,66.5,79.9,65.1,84.2z"/>
			</g>
			<g class="st5">
				<path class="st11" d="M62.5,89.4c-4,4.1-17.2,2.3-23.8-8.1C33.8,73.6,34,66.6,35.9,62c0.2,3.5,1.3,7.5,3.9,11.6
					c6.6,10.4,19.8,12.3,23.8,8.1c0.6-0.7,1.2-1.6,1.7-2.7C65.7,83.9,64.2,87.6,62.5,89.4z"/>
			</g>
			<g>
				<path class="st1" d="M113.3,70.4c2.4,4.4,2.1,14.1-7.5,21.9s-22.7,5.3-25.2,0.1c-1.9-4-1.2-13.1,8.4-20.9S110.9,65.9,113.3,70.4
					z"/>
			</g>
			<g class="st9">
				<path class="st10" d="M114.2,79.8c0.1-2.4-0.4-4.5-1.2-6c-2.4-4.5-14.7-6.6-24.3,1.1c-4.8,3.8-7.3,8-8.5,11.8
					c0.1-4.6,2.4-10.8,9.2-16.4c9.6-7.8,21.9-5.6,24.3-1.1C115,71.5,115.5,75.5,114.2,79.8z"/>
			</g>
			<g class="st5">
				<path class="st11" d="M105.8,92.3c-9.6,7.8-22.7,5.3-25.2,0.1c-1.1-2.3-1.3-6.2,0.4-10.7c0.1,1.2,0.4,2.3,0.8,3.1
					c2.5,5.2,15.6,7.7,25.2-0.1c3.8-3.1,6.2-6.5,7.5-9.8C114.9,79.9,112.9,86.6,105.8,92.3z"/>
			</g>
			<g>
				<path class="st1" d="M56.2,92.7c-0.6,0-1.2,0-1.8-0.1C49.2,92.1,42,89,37.5,81.9c-7.2-11.3-3.7-21.2,0.1-24.8l0,0
					c1.7-1.6,4.7-2.3,8.2-1.8c6.5,0.8,12.6,4.9,16.4,10.9c7.1,11.1,4.4,20.7,1.1,24.1C61.8,91.9,59.3,92.7,56.2,92.7z M39.4,59
					c-3.5,3.3-5.7,12.1,0.3,21.5c4,6.3,10.3,9,14.9,9.5c3,0.3,5.6-0.3,6.9-1.6c2.8-2.8,4.8-11-1.4-20.9c-4-6.3-10.2-9.2-14.6-9.7
					C42.9,57.6,40.5,58,39.4,59L39.4,59z"/>
			</g>
			<g>
				<path class="st1" d="M91.8,98.5c-1.7,0-3.2-0.2-4.6-0.5c-3.8-0.9-6.6-2.7-7.8-5.1c-2.1-4.3-1.5-14.2,8.7-22.4
					c5.5-4.5,12.6-6.4,19-5.1c3.5,0.7,6.1,2.3,7.2,4.3l0,0c2.5,4.6,2.6,15.1-7.8,23.5C101.9,97.1,96.4,98.5,91.8,98.5z M103.4,67.6
					c-4.1,0-9.1,1.3-13.5,4.9c-9.1,7.3-9.8,15.8-8,19.3c0.8,1.6,3,3,6,3.7c4.5,1,11.4,0.4,17.2-4.2c8.7-7,9.4-16.1,7.2-20.3
					c-0.7-1.3-2.8-2.5-5.4-3C105.8,67.7,104.6,67.6,103.4,67.6z"/>
			</g>
			<g>
				<path class="st1" d="M71.8,90.4c0.3,0.8,0.2,1.5-0.2,1.7c-0.4,0.2-1-0.3-1.3-1.1c-0.3-0.8-0.2-1.5,0.2-1.7S71.5,89.6,71.8,90.4z
					"/>
			</g>
			<g>
				
					<ellipse transform="matrix(0.6337 -0.7736 0.7736 0.6337 -43.4772 90.4202)" class="st1" cx="73.7" cy="91.1" rx="1.5" ry="0.8"/>
			</g>
		</g>
		<g>
			<path class="st8" d="M112.9,37.7c0.3-0.3,11.8-5.3,20,0.5c6.9,4.9,5.8,16.5,5.8,17.5c1.2,2,0.5,5.2-2.7,4.9
				c-2.6-0.3-2.9-3.6-1.1-5.4c0.3-1.1,0.3-21.8-19.4-12.4L112.9,37.7z"/>
		</g>
		<g>
			<path class="st1" d="M112.4,37.3c0.2-0.2,0.2-0.2,0.2-0.2l0.1-0.1l0.2-0.1l0.3-0.2c0.2-0.1,0.4-0.2,0.6-0.3
				c0.4-0.2,0.8-0.3,1.2-0.5c0.8-0.3,1.6-0.6,2.5-0.8c1.7-0.4,3.4-0.7,5.1-0.8c1.7-0.1,3.5,0,5.3,0.4c1.8,0.4,3.5,1,5,1.9
				c0.8,0.5,1.5,1,2.2,1.7c0.7,0.6,1.3,1.4,1.8,2.1c1,1.5,1.8,3.2,2.2,4.9c0.5,1.7,0.8,3.5,0.9,5.2c0.1,0.9,0.1,1.7,0.1,2.6
				c0,0.4,0,0.9,0,1.3l0,0.6l0,0.6l0,0l-0.2-0.7c0.4,0.7,0.7,1.4,0.7,2.2c0.1,0.8,0,1.6-0.3,2.4c-0.3,0.8-1,1.5-1.8,1.9
				c-0.8,0.4-1.6,0.5-2.4,0.4c-0.4,0-0.8-0.1-1.2-0.3c-0.4-0.2-0.8-0.4-1.1-0.7c-0.7-0.6-1-1.5-1.1-2.3c-0.2-1.6,0.3-3.2,1.4-4.3
				l0,0l-0.3,0.6c0,0,0,0,0,0c0,0,0,0,0,0l0-0.1l0-0.2l0-0.4c0-0.3,0-0.6,0-0.9c0-0.6-0.1-1.2-0.2-1.7c-0.2-1.2-0.4-2.3-0.8-3.4
				c-0.7-2.2-1.8-4.2-3.6-5.4c-1.7-1.3-4.1-1.6-6.4-1.4c-2.3,0.3-4.7,1-6.9,1.9l0,0c-0.3,0.1-0.7,0-0.8-0.3c-0.1-0.3,0-0.7,0.3-0.8
				c2.2-1.2,4.6-2.2,7.2-2.7c1.3-0.2,2.7-0.3,4-0.1c1.4,0.2,2.7,0.7,3.9,1.4c1.2,0.8,2.2,1.8,3,2.9c0.8,1.1,1.4,2.4,1.8,3.6
				c0.4,1.3,0.7,2.6,0.9,3.9c0.1,0.7,0.2,1.3,0.2,2c0,0.3,0,0.7,0,1c0,0.2,0,0.3,0,0.5l0,0.3l0,0.2l0,0.1l0,0.2
				c0,0.2-0.2,0.4-0.3,0.6l0,0l0,0c-0.5,0.5-0.8,1.4-0.7,2.1c0.1,0.4,0.2,0.6,0.4,0.8c0.2,0.2,0.4,0.3,0.8,0.3c0.4,0,0.8,0,1-0.2
				c0.2-0.1,0.4-0.3,0.6-0.6c0.3-0.6,0.2-1.5-0.2-2.2c-0.1-0.2-0.2-0.5-0.2-0.7l0,0v0l0-0.6l0-0.6c0-0.4,0-0.8,0-1.2
				c0-0.8-0.1-1.6-0.1-2.4c-0.1-1.6-0.4-3.2-0.8-4.7c-0.4-1.5-1-2.9-1.8-4.2c-0.4-0.6-0.9-1.2-1.4-1.7c-0.5-0.5-1.1-1-1.8-1.4
				c-1.3-0.8-2.7-1.4-4.2-1.8c-1.5-0.4-3.1-0.5-4.7-0.6c-1.6,0-3.2,0.2-4.8,0.5c-0.8,0.1-1.6,0.3-2.4,0.5c-0.4,0.1-0.8,0.2-1.2,0.3
				c-0.2,0.1-0.4,0.1-0.6,0.2l-0.3,0.1l-0.1,0.1l0,0c0,0,0,0,0.1-0.1c-0.2,0.3-0.6,0.3-0.9,0.1C112.3,37.9,112.2,37.5,112.4,37.3z"
				/>
		</g>
		<g>
			<path class="st8" d="M49.5,28.5c-0.2-0.4-9.8-8.4-19.4-5.2c-8,2.7-10.3,14.2-10.5,15.2c-1.8,1.6-2,4.9,1.2,5.5
				c2.5,0.5,3.8-2.6,2.6-4.8c0.1-1.1,5.9-21,22.1-6.4L49.5,28.5z"/>
		</g>
		<g>
			<path class="st1" d="M48.9,28.7c0.1,0.2,0.1,0.1,0.1,0.1L48.9,28.7L48.9,28.7l-0.3-0.2c-0.2-0.1-0.3-0.2-0.5-0.3
				c-0.3-0.2-0.7-0.5-1-0.7c-0.7-0.4-1.4-0.8-2.1-1.2c-1.4-0.7-2.9-1.4-4.5-1.8c-1.5-0.4-3.1-0.7-4.7-0.8c-1.6-0.1-3.1,0.1-4.6,0.5
				c-0.7,0.2-1.4,0.5-2.1,0.8c-0.7,0.3-1.3,0.8-1.8,1.3c-1.1,1-2.1,2.2-3,3.5c-0.8,1.3-1.5,2.8-2.1,4.2c-0.3,0.7-0.6,1.5-0.8,2.3
				c-0.1,0.4-0.2,0.8-0.3,1.2L21,38.1l-0.2,0.6l0,0l0,0c-0.1,0.3-0.2,0.5-0.4,0.6c-0.6,0.5-0.9,1.4-0.8,2c0,0.3,0.2,0.6,0.4,0.8
				c0.2,0.2,0.5,0.4,0.9,0.4c0.4,0.1,0.6,0,0.8-0.1c0.2-0.1,0.4-0.3,0.6-0.7c0.3-0.6,0.3-1.6-0.1-2.2l0,0l0,0
				c-0.1-0.2-0.2-0.4-0.1-0.7l0-0.2l0-0.1l0-0.2l0.1-0.3c0-0.2,0.1-0.3,0.1-0.5c0.1-0.3,0.2-0.6,0.3-1c0.2-0.6,0.5-1.2,0.7-1.8
				c0.5-1.2,1.2-2.4,2-3.5c0.8-1.1,1.7-2.1,2.8-3c1.1-0.9,2.3-1.6,3.7-1.9c1.4-0.4,2.8-0.5,4.2-0.3c1.4,0.2,2.6,0.7,3.8,1.3
				c2.4,1.2,4.4,2.8,6.2,4.6c0.3,0.2,0.3,0.7,0,0.9c-0.2,0.2-0.6,0.3-0.9,0l0,0c-1.9-1.5-3.9-2.9-6.1-3.8c-2.2-0.9-4.5-1.2-6.5-0.5
				c-2,0.7-3.7,2.3-5,4.2c-0.6,1-1.2,2-1.7,3c-0.2,0.5-0.5,1.1-0.7,1.6c-0.1,0.3-0.2,0.5-0.3,0.8l-0.1,0.4l0,0.2l0,0.1c0,0,0,0,0,0
				c0,0,0,0,0,0l-0.2-0.7l0,0c0.8,1.4,0.8,3.1,0.2,4.5c-0.3,0.7-0.9,1.4-1.7,1.9c-0.4,0.2-0.9,0.3-1.3,0.4c-0.4,0-0.9,0-1.3-0.1
				c-0.7-0.1-1.5-0.5-2.2-1.1c-0.7-0.6-1.1-1.5-1.2-2.3c-0.1-0.8,0.1-1.6,0.4-2.4c0.3-0.7,0.7-1.4,1.3-1.9l-0.4,0.6l0,0l0.1-0.6
				l0.1-0.6c0.1-0.4,0.2-0.8,0.3-1.3c0.2-0.8,0.5-1.7,0.8-2.5c0.6-1.6,1.4-3.2,2.3-4.7c0.9-1.5,2.1-2.9,3.6-4.1
				c0.7-0.6,1.5-1.1,2.3-1.5c0.8-0.4,1.7-0.8,2.6-1c1.8-0.5,3.6-0.6,5.4-0.4c1.8,0.2,3.5,0.6,5.2,1.2c1.6,0.6,3.2,1.4,4.7,2.3
				c0.7,0.5,1.4,0.9,2.1,1.5c0.3,0.3,0.7,0.5,1,0.8c0.2,0.1,0.3,0.3,0.5,0.4l0.2,0.2l0.1,0.1l0.1,0.1c0,0,0.1,0,0.2,0.2
				c0.1,0.3,0,0.7-0.3,0.8C49.4,29.2,49.1,29.1,48.9,28.7z"/>
		</g>
		<g>
			<path class="st1" d="M66.6,93.4c0.1,0.1,0.3,0.4,0.5,0.5c0.2,0.2,0.4,0.3,0.5,0.5c0.4,0.3,0.8,0.6,1.2,0.8
				c0.8,0.5,1.6,0.7,2.5,0.9c0.9,0.1,1.8,0.1,2.7-0.2c0.5-0.1,0.9-0.3,1.4-0.5c0.5-0.2,0.9-0.4,1.4-0.6l0.1,0c0.3-0.2,0.7,0,0.9,0.3
				c0.1,0.2,0.1,0.5-0.1,0.7c-0.2,0.3-0.4,0.5-0.6,0.7c-0.2,0.2-0.4,0.4-0.7,0.6c-0.5,0.4-1,0.7-1.6,1c-1.2,0.5-2.5,0.7-3.8,0.6
				c-1.3-0.2-2.6-0.7-3.6-1.5c-0.5-0.4-0.9-0.9-1.3-1.4c-0.2-0.3-0.3-0.5-0.4-0.8c-0.1-0.3-0.2-0.6-0.3-0.9
				c-0.1-0.3,0.1-0.7,0.5-0.8C66.1,93.1,66.4,93.2,66.6,93.4L66.6,93.4z"/>
		</g>
	</g>
	<g>
		<path class="st0" d="M74.7,108.7c8.5,0,16.4,2.7,22.8,7.4c2.5,1.9,4.8,4.1,6.8,6.6c-0.4,2.4-2.9,4.4-7.6,6.1
			c-12.1-3.2-14.5-0.8-6.9,7.2c-11,6.6-5.2,19.1,4.8,16.5c8.7-2.2,14.9-5.3,18.9-8.9c0.1,1.3,0.2,2.7,0.2,4c0,21.5-17.5,39-39,39
			c-21.5,0-39-17.5-39-39c0-1,0-1.9,0.1-2.9c4,3.4,10,6.2,18.2,8.3c9.9,2.5,15.8-9.9,4.8-16.5c7.5-8,5.2-10.3-6.9-7.2
			c-4.7-1.7-7.2-3.7-7.6-6.1l0.2-0.3l0.2-0.3l0.3-0.4l0.4-0.4l0,0l0.2-0.2l0.4-0.4l0.2-0.2l0.4-0.4l0.1-0.1l0.2-0.2l0.2-0.2l0,0
			l0.1-0.1l0.5-0.5l0,0l0,0l0.1,0l0.6-0.5l0,0l0,0c1.1-1,2.3-2,3.6-2.9l0,0c0.2-0.1,0.4-0.3,0.6-0.4l0.3-0.2l0.1-0.1l0.2-0.2l0,0
			c1.7-1.1,3.6-2.1,5.5-3l0.5-0.2l0,0C64.1,109.8,69.3,108.7,74.7,108.7"/>
		<path class="st1" d="M74.7,186.9c-21.6,0-39.2-17.6-39.2-39.2c0-0.9,0-1.9,0.1-2.9l0-0.3l0.2,0.2c4.1,3.5,10.2,6.3,18.2,8.3
			c5,1.3,8.6-1.3,9.9-4.4c1.3-3.2,0.8-8.2-5.3-11.8l-0.2-0.1l0.1-0.1c3.4-3.6,4.8-6.1,4.1-7.3c-0.8-1.4-4.5-1.3-10.9,0.4l0,0l0,0
			c-4.7-1.7-7.3-3.8-7.7-6.3l0-0.1l0.8-1l1.2-1.4l0.9-0.9l0.6-0.6l0.7-0.6c1.2-1,2.4-2,3.6-2.9c0.2-0.2,0.4-0.3,0.6-0.4l0.6-0.4
			c1.7-1.1,3.6-2.1,5.5-3l0.6-0.3c4.8-2,10-3.1,15.3-3.1c8.3,0,16.2,2.6,22.9,7.4c2.5,1.9,4.8,4.1,6.8,6.7l0,0.1l0,0.1
			c-0.4,2.4-3,4.5-7.7,6.3l0,0l0,0c-6.4-1.7-10-1.8-10.9-0.4c-0.7,1.2,0.7,3.7,4.1,7.3L90,136l-0.2,0.1c-6,3.6-6.6,8.7-5.3,11.8
			c1.3,3.1,4.9,5.7,9.9,4.4c8.4-2.1,14.7-5.1,18.8-8.9l0.2-0.2l0,0.3c0.1,1.3,0.2,2.7,0.2,4.1C113.8,169.3,96.2,186.9,74.7,186.9z
			 M35.9,145.1c-0.1,0.9-0.1,1.7-0.1,2.6c0,21.4,17.4,38.8,38.8,38.8s38.8-17.4,38.8-38.8c0-1.2-0.1-2.5-0.2-3.7
			c-4.1,3.7-10.4,6.6-18.7,8.7c-5.2,1.3-8.9-1.4-10.3-4.6c-1.4-3.3-0.8-8.4,5.2-12.1c-3.5-3.7-4.8-6.2-4-7.5
			c0.9-1.6,4.6-1.5,11.2,0.3c4.5-1.7,7-3.6,7.5-5.9c-2-2.5-4.3-4.7-6.7-6.6c-6.6-4.8-14.5-7.3-22.7-7.3c-5.2,0-10.3,1-15.1,3.1
			l-0.6,0.3c-1.9,0.9-3.8,1.9-5.5,3l-0.6,0.4c-0.2,0.1-0.4,0.3-0.6,0.4c-1.3,0.9-2.5,1.9-3.6,2.9l-0.1,0.1l-0.7,0.6l-1.1,1.1
			l-1.2,1.3l-1.1,1.3c0.4,2.3,2.9,4.3,7.5,5.9c6.6-1.7,10.3-1.8,11.2-0.3c0.8,1.4-0.5,3.8-4,7.5c6,3.7,6.6,8.9,5.2,12.1
			c-1.4,3.2-5.1,5.9-10.3,4.6C46.1,151.3,40.1,148.5,35.9,145.1z"/>
	</g>
	<g class="st2">
		<path class="st3" d="M74.7,182.2c-20.8,0-37.7-16.2-38.9-36.7c0,0.7-0.1,1.5-0.1,2.2c0,21.5,17.5,39,39,39c21.5,0,39-17.5,39-39
			c0-0.8,0-1.5-0.1-2.2C112.4,166,95.4,182.2,74.7,182.2z"/>
	</g>
	<g>
		<path class="st3" d="M95.3,128.4c-10.4-2.4-12,0.2-4.9,7.6c-11,6.6-5.2,19.1,4.8,16.5l0,0l0,0l0,0l0,0c0.4-0.1,0.9-0.2,1.3-0.3
			l0,0l0,0l0,0l0,0l0,0l0,0c0.4-0.1,0.9-0.2,1.3-0.4l0,0l0,0l0,0l0,0l0,0l0.1,0l0.1,0l0,0l0,0l0,0l0,0l0,0c0.4-0.1,0.8-0.2,1.2-0.4
			l0,0l0,0l0,0l0,0l0.1,0l0,0c0.4-0.1,0.7-0.2,1.1-0.4l0,0l0,0l0,0l0,0l0.1,0l0.1,0l0,0l0,0l0,0l0,0l0,0l0,0c0.3-0.1,0.7-0.2,1-0.4
			l0,0l0,0l0,0l0,0l0.1,0l0,0l0,0c0.3-0.1,0.7-0.3,1-0.4l0,0l0,0l0,0l0,0l0,0l0,0l0,0l0,0l0,0l0,0l0,0l0,0l0,0
			c0.3-0.1,0.6-0.2,0.9-0.4l0,0l0,0l0.1-0.1l0.1,0l0,0l0,0l0,0l0,0l0,0l0,0l0.8-0.4l0,0l0,0l0,0l0,0l0,0l0.3-0.1l0,0l0,0l0,0l0,0
			l0,0l0,0l0,0l0,0l0.6-0.3l0,0l0,0l0,0l0,0l0,0l0,0l0,0l0,0l0,0l0.4-0.2l0,0l0,0l0,0l0,0l0,0l0,0l0,0l0,0l0,0l0,0l0,0l0,0l0,0
			l0.2-0.1l0,0l0.1,0l0,0l0,0l0,0l0,0l0,0l0,0l0,0l0,0l0,0l0,0l0,0l0,0l0,0l0,0l0,0l0,0l0,0l0,0l0,0l0,0l0.3-0.1l0,0l0.6-0.4
			l0.4-0.3l0.5-0.3l0.5-0.3l0,0l0.2-0.2l0.2-0.2l0.5-0.3l0.2-0.2l0.2-0.2l0.4-0.3l0.3-0.3l0,0l0,0l0,0l0.4-0.3l0,0l0,0l0,0l0,0
			l0.2-0.2l0,0l0,0l0,0l0,0l0,0c0.2,0.3,0.4,0.7,0.6,1c0.2,1.1,0.2,2.2,0.2,3.4c0,16.5-17.5,29.9-39,29.9c-21.5,0-39-13.4-39-29.9
			c0-1.1,0.1-2.3,0.2-3.4l0.2-0.2c4,3.3,9.9,6,18,8.1c9.9,2.5,15.8-9.9,4.8-16.5c7.2-7.6,5.4-10.1-5.5-7.5
			c6.5-3.4,13.8-5.3,21.4-5.3C82.4,123.7,89.2,125.4,95.3,128.4"/>
	</g>
	<g class="st12">
		<path class="st0" d="M76.2,127.8c16.5,6.5,26.1,18.1,28.8,35C112.1,142.4,102.5,130.7,76.2,127.8"/>
	</g>
	<g class="st12">
		<path class="st0" d="M54.5,164.9c1.5-3.5,9.6,0.3,9.1,3.9c-0.2,1.6-3.2,1.8-5.7,0.7C55.4,168.4,53.5,167.4,54.5,164.9"/>
	</g>
	<g class="st12">
		<path class="st0" d="M46.8,159.2c1.4-1.7,5.2,1.5,4.4,3.6C50.6,164.5,45.4,160.9,46.8,159.2"/>
	</g>
	<g class="st5">
		<path class="st3" d="M37.9,160.9c-3.3-1-5-5.3-5.1-12.7c0-1.1,1.2-1.9,2.2-1.5c0.2,0.1,0.4,0.2,0.6,0.2c0-0.7,0.1-1.5,0.1-2.2
			c-2-1.7-3.5-3.6-4.5-5.5c-0.7,7.2-0.7,12.6,0.1,16.4c1,4.9,3.3,7,6.9,6.2c-1.2-3-2-6.3-2.4-9.7c0,0,0,0,0,0
			C36.3,155.2,37,158.1,37.9,160.9"/>
	</g>
	<g class="st2">
		<path class="st3" d="M27.1,161.5c-0.2-1.1,0.1-2.5,0.9-4.4c-1.3,0.9-2.4,2-3.4,3.1c0.4,0.6,0.9,1.3,1.2,2.2
			c1.1,2.4,2.1,5.8,2.8,10.1c-0.1-4.2-0.5-7.6-1.3-10.2C27.2,162.1,27.1,161.8,27.1,161.5 M36.5,164.5c1.2,3.4,3,6.6,5.5,9.6
			c0.2,0.7-0.1,1.2-0.9,1.5c-0.8,0.3-2,0.5-3.7,0.5c-3.7,0.7-6.7,1.8-9.1,3.6c-0.8,0.8-1.5,1.5-2.3,2c-0.3,0.2-0.6,0.4-0.9,0.6
			c-0.8,0.6-1.8,0.9-2.8,0.9c-0.6,0-1.2,0-1.8-0.2c-3.2-0.8-7.3-3.7-12.2-8.8c8.2,13.7,15.6,18.2,21.3,12.6
			c4.7-4.6,8.9-6.8,13.5-5.2c6.1,2.1,11,2.7,15,1.6c0.3-0.1,0.6-0.2,0.8-0.3c-2.2-1-4.3-2.2-6.3-3.5c-2.8-1.9-5.4-4.2-7.6-6.8
			c-2.8-3.3-5.1-7-6.7-11.1c-0.3,0.1-0.7,0.1-1,0.1c-1.7,0.1-3-0.5-4.1-1.8c-0.9-0.8-1.6-1.8-2.1-3C31.2,160.7,33,163.3,36.5,164.5z
			"/>
	</g>
	<g>
		<path class="st1" d="M100,126.3l1.2,1.7c1.3-0.9,2.4-2,3.2-3.2c0.8-1.3,1.4-2.7,1.8-4.2C102.9,122.8,102.6,124.5,100,126.3"/>
	</g>
	<g>
		<path class="st0" d="M117.7,139.3c1.6,16.5-0.7,24-7.1,22.6c1.2-3,2-6.3,2.4-9.7c0.4-2.3,0.3-5.1,0.2-7.5
			C115.3,143.1,116.8,141.2,117.7,139.3"/>
		<path class="st1" d="M112,162.2c-0.4,0-0.9-0.1-1.4-0.2l-0.2,0l0.1-0.2c1.2-3.1,2-6.3,2.4-9.6c0.4-2.7,0.3-5.8,0.2-7.5l0-0.1
			l0.1-0.1c2-1.7,3.5-3.5,4.5-5.5l0.2-0.5l0.1,0.5c1.2,11.8,0.3,19.2-2.7,21.8C114.3,161.8,113.3,162.2,112,162.2z M110.9,161.8
			c1.6,0.3,3,0,4.1-1c2.8-2.5,3.7-9.6,2.6-21c-1,1.8-2.4,3.5-4.2,5c0.1,1.7,0.2,4.8-0.2,7.4C112.9,155.5,112.1,158.8,110.9,161.8z"
			/>
	</g>
	<g>
		<path class="st0" d="M117.6,155.7c3.1,1.6,5.6,3.6,7.5,6c4.1-4.6,5.8-2.8,5.2,5.3c5.9-14,17.4-3.4,10.4,7.6
			c-8.2,13.7-15.6,18.2-21.3,12.6c-4.7-4.6-8.9-6.8-13.5-5.2c-6.5,2.2-11.7,2.8-15.9,1.3c9.4-4.1,16.8-11.9,20.6-21.5
			C114.2,162.7,116.6,160.6,117.6,155.7"/>
		<path class="st1" d="M124.6,189.8c-1.9,0-3.6-0.8-5.2-2.4c-5.1-5-9.2-6.6-13.3-5.2c-6.8,2.3-12,2.8-16,1.3l-0.4-0.1l0.4-0.2
			c9.3-4.1,16.8-11.9,20.5-21.4l0-0.1l0.1,0c1.5,0.3,2.7,0.1,3.7-0.5c1.4-0.9,2.4-2.8,3-5.6l0-0.2l0.2,0.1c3,1.6,5.5,3.6,7.5,5.9
			c1.8-2,3.1-2.7,4-2.3c1.2,0.5,1.7,2.8,1.4,7c2.3-4.9,5.1-5.9,6.6-6c1.9-0.1,3.7,0.9,4.8,2.8c1.5,2.5,2,6.9-1,11.7
			c-5.6,9.4-10.8,14.4-15.4,15C125.2,189.7,124.9,189.8,124.6,189.8z M108.9,181.4c3.3,0,6.7,1.9,10.7,5.8c1.8,1.7,3.7,2.5,5.8,2.2
			c4.5-0.6,9.6-5.6,15.2-14.8c3-4.7,2.5-9,1-11.4c-1.1-1.8-2.7-2.8-4.5-2.7c-1.5,0.1-4.3,1.1-6.6,6.6l-0.4,0.9l0.1-1
			c0.3-4.5-0.1-7.1-1.2-7.6c-0.8-0.3-2.1,0.5-3.8,2.4l-0.1,0.1l-0.1-0.1c-1.9-2.3-4.3-4.3-7.3-5.9c-0.6,2.8-1.7,4.6-3.1,5.6
			c-1.1,0.7-2.4,0.9-3.8,0.6c-3.7,9.4-11.1,17.1-20.2,21.3c3.9,1.3,8.9,0.8,15.4-1.5C106.9,181.6,107.9,181.4,108.9,181.4z"/>
	</g>
	<g>
		<path class="st1" d="M127.6,158.4c-1.7,0.5-3.2,2.1-4.4,4.7c-1.1,2.4-2.1,5.8-2.8,10.1c2.8-3,4.2-11.2,7.8-12.8L127.6,158.4z"/>
	</g>
	<g class="st2">
		<path class="st3" d="M94.8,151.4c-3.6,0.8-6.7,0.2-9.3-1.8c-1.2-1.8-1.7-4.1-1.1-6.4c1.3,8.4,10.7,8.2,27-3.8
			c5.5-4.1,8.5-7.9,2.1-19c6.2,5.9,6.1,8.7,5.5,14.1C114,143.7,106.2,148.5,94.8,151.4"/>
	</g>
	<g class="st5">
		<path class="st3" d="M111.1,160.9c3.1-1,4.8-4.9,5.1-11.8c0.1-1.5-1.3-2.5-2.8-2.2c0,0,0,0,0,0c0-0.7-0.1-1.5-0.1-2.2
			c2-1.7,3.5-3.6,4.5-5.5c0.7,7.2,0.7,12.6-0.1,16.4c-1,4.9-3.3,7-6.9,6.2c1.2-3,2-6.3,2.4-9.7c0,0,0,0,0,0
			C112.7,155.2,112,158.1,111.1,160.9"/>
	</g>
	<g class="st2">
		<path class="st3" d="M121.9,161.5c0.2-1.1-0.1-2.5-0.9-4.4c1.3,0.9,2.4,2,3.4,3.1c-0.4,0.6-0.9,1.3-1.2,2.2
			c-1.1,2.4-2.1,5.8-2.8,10.1c0.1-4.2,0.5-7.6,1.3-10.2C121.8,162.1,121.9,161.8,121.9,161.5 M112.5,164.5c-1.2,3.4-3,6.6-5.5,9.6
			c-0.2,0.7,0.1,1.2,0.9,1.5c0.8,0.3,2,0.5,3.7,0.5c3.7,0.7,6.7,1.8,9.1,3.6c0.8,0.8,1.5,1.5,2.3,2c0.3,0.2,0.6,0.4,0.9,0.6
			c0.8,0.6,1.8,0.9,2.8,0.9c0.6,0,1.2,0,1.8-0.2c3.2-0.8,7.3-3.7,12.2-8.8c-8.2,13.7-15.6,18.2-21.3,12.6c-4.7-4.6-8.9-6.8-13.5-5.2
			c-6.1,2.1-11,2.7-15,1.6c-0.3-0.1-0.6-0.2-0.8-0.3c2.2-1,4.3-2.2,6.3-3.5c2.8-1.9,5.4-4.2,7.6-6.8c2.8-3.3,5.1-7,6.7-11.1
			c0.3,0.1,0.7,0.1,1,0.1c1.7,0.1,3-0.5,4.1-1.8c0.9-0.8,1.6-1.8,2.1-3C117.8,160.7,116,163.3,112.5,164.5z"/>
	</g>
	<g>
		<path class="st1" d="M74.7,187.7c-22,0-40-17.9-40-40c0-1,0-2,0.1-3l0.1-1.9l1.5,1.3c4,3.4,10,6.1,17.9,8.1c4.6,1.2,7.8-1.1,9-3.9
			c1.2-2.9,0.6-7.4-4.9-10.8l-1.1-0.6l0.8-0.9c4.6-4.9,4.1-6.2,4-6.3c-0.2-0.3-1.4-1.5-9.9,0.8l-0.3,0.1l-0.3-0.1
			c-5.1-1.9-7.8-4.1-8.3-6.9l-0.1-0.4l1.1-1.3l1.2-1.4l0.9-1l0.7-0.6l0.7-0.6c1.2-1.1,2.4-2.1,3.7-3l0,0c0.2-0.1,0.4-0.3,0.6-0.4
			l0.7-0.4c1.8-1.2,3.7-2.2,5.7-3.1l0.6-0.3c4.9-2.1,10.2-3.1,15.6-3.1c5.3,0,10.5,1,15.4,3.1l1.5,0.6l-0.1,0.1
			c5.3,2.5,9.9,6.1,13.7,10.6l0.3,0.4l-0.1,0.5c-0.5,2.8-3.2,5-8.3,6.9l-0.3,0.1l-0.3-0.1c-8.5-2.2-9.8-1.1-9.9-0.8
			c-0.1,0.1-0.5,1,2.2,4.3c0.5,0.6,1.1,1.3,1.7,2l0.8,0.9l-1,0.6c-3,1.8-4.9,4.3-5.3,7c-0.3,2.1,0.3,4.1,1.6,5.6l0.1,0.1
			c1.8,2.4,4.8,3.4,8.2,2.5c8-2,14.1-4.8,18.1-8.4l1.5-1.3l0.2,2c0.1,1.1,0.1,2.2,0.1,3.2C114.6,169.7,96.7,187.7,74.7,187.7z
			 M36.7,146.7c0,0.3,0,0.6,0,1c0,21,17,38,38,38c21,0,38-17,38-38c0-0.4,0-0.8,0-1.2c-4.2,3.1-10,5.7-17.4,7.5
			c-4.1,1-8-0.2-10.2-3.3c-1.7-2-2.5-4.6-2.1-7.2c0.4-3,2.3-5.7,5.3-7.8c-0.4-0.4-0.7-0.9-1.1-1.3c-1.6-1.9-3.5-4.7-2.3-6.6
			c1.2-1.9,4.8-1.9,11.8-0.1c3.8-1.4,6-3,6.6-4.8c-3.9-4.5-8.6-8-14.1-10.3l-1.5-0.6l0.1,0c-4.2-1.5-8.6-2.3-13.1-2.3
			c-5.1,0-10.1,1-14.8,3l-0.6,0.3c-1.9,0.8-3.7,1.8-5.4,2.9l-0.6,0.4c-0.2,0.1-0.4,0.3-0.6,0.4l0,0c-1.2,0.9-2.4,1.8-3.5,2.8
			l-0.1,0.1l-0.7,0.6l-1.1,1l-1.2,1.3l-0.8,1c0.6,1.8,2.8,3.4,6.6,4.8c7-1.8,10.7-1.8,11.8,0.2c1,1.7-0.1,4.1-3.4,7.8
			c5.7,4,6.1,9.2,4.7,12.6c-1.8,4.2-6.4,6.3-11.3,5.1C46.6,152.2,40.8,149.8,36.7,146.7z"/>
	</g>
	<g>
		<path class="st1" d="M74.7,179.6c-22,0-40-13.9-40-30.9c0-1.3,0.1-2.6,0.3-3.9l0.3-1.7l1.3,1.1c4,3.3,10,6,17.7,8
			c4.6,1.2,7.8-1.1,9-3.9c1.2-2.9,0.6-7.4-4.9-10.8l-1.1-0.6l0.8-0.9c4.6-4.9,4.1-6.2,4-6.3c-0.2-0.3-1.4-1.5-9.9,0.8l-0.3,0.1
			l-0.3-0.1c-1.9-0.7-3.5-1.4-4.7-2.3l-1.2-0.8l1.1-0.8c7.5-5.6,17.4-8.8,27.9-8.8c10.1,0,19.7,2.9,27.1,8.2l1.2,0.8l-2.7,1.7
			l-3.2,1.4l-0.3,0.1l-0.3-0.1c-8.5-2.2-9.8-1.1-9.9-0.8c-0.1,0.1-0.5,1,2.2,4.3c0.5,0.6,1.1,1.3,1.7,2l0.8,0.9l-1,0.6
			c-3,1.8-4.9,4.3-5.3,7c-0.3,2.1,0.3,4.1,1.6,5.6l0.1,0.1c1.8,2.4,4.8,3.4,8.2,2.5c7.9-2,13.9-4.8,17.9-8.2l1.3-1.1l0.3,1.7
			c0.2,1.4,0.3,2.7,0.3,4.1C114.6,165.7,96.7,179.6,74.7,179.6z M36.7,146.8c-0.1,0.6-0.1,1.2-0.1,1.9c0,16,17,29,38,29
			c21,0,38-13,38-29c0-0.7,0-1.4-0.1-2.1c-4.2,3.1-10,5.6-17.3,7.5c-4.1,1-8-0.2-10.2-3.3c-1.7-2-2.5-4.6-2.1-7.2
			c0.4-3,2.3-5.7,5.3-7.8c-0.4-0.4-0.7-0.9-1.1-1.3c-1.6-1.9-3.5-4.7-2.3-6.6c1.2-1.9,4.8-1.9,11.8-0.1l1.8-0.8l0.9-0.4
			c-6.9-4.5-15.6-6.9-24.7-6.9c-9.5,0-18.5,2.6-25.5,7.5c0.8,0.4,1.7,0.8,2.7,1.2c7-1.8,10.7-1.8,11.8,0.2c1,1.7-0.1,4.1-3.4,7.8
			c5.7,4,6.1,9.2,4.7,12.6c-1.8,4.2-6.4,6.3-11.3,5.1C46.6,152.2,40.9,149.8,36.7,146.8z"/>
	</g>
	<g>
		<path class="st1" d="M36.9,163.2c-1.5,0-2.7-0.5-3.8-1.4c-3.3-2.9-4.3-10.3-3-22.6l0.4-4l1.8,3.6c0.9,1.8,2.3,3.6,4.2,5.1l0.5,0.4
			l0,0.6c-0.1,1.6-0.3,4.7,0.1,7.2l0,0c0.4,3.2,1.2,6.4,2.3,9.4l0.5,1.3l-1.3,0.3C38,163.2,37.5,163.2,36.9,163.2z M32.1,142.7
			c-0.8,11.6,0.9,15.9,2.6,17.4c0.6,0.5,1.2,0.8,2,0.8c-1-2.7-1.6-5.6-2-8.5c-0.4-2.5-0.3-5.4-0.2-7.1
			C33.7,144.5,32.8,143.6,32.1,142.7z"/>
	</g>
	<g>
		<path class="st1" d="M24.4,190.8c-0.3,0-0.7,0-1-0.1c-4.9-0.6-10.3-5.8-16.1-15.4c-3.3-5.2-2.7-10-1-12.7c1.3-2.2,3.5-3.5,5.7-3.3
			c1.3,0.1,3.4,0.7,5.5,3.4c0.2-2.5,0.8-3.8,2-4.3c1.5-0.6,3.1,0.5,4.4,1.7c1.9-2.1,4.2-3.9,7-5.3c0.3-0.2,0.7-0.2,1,0
			c0.3,0.2,0.6,0.5,0.6,0.8c0.5,2.5,1.4,4.2,2.6,4.9c0.8,0.5,1.8,0.6,3,0.4c0.6-0.1,1.1,0.2,1.3,0.7c3.6,9.2,10.9,16.8,20,20.8
			c0.4,0.2,0.7,0.6,0.7,1.1c0,0.5-0.3,0.9-0.8,1c-4.2,1.5-9.7,1.1-16.6-1.3c-3.8-1.3-7.5,0.2-12.3,5
			C28.6,189.9,26.6,190.8,24.4,190.8z M11.6,161.5c-1.3,0-2.5,0.8-3.3,2.2c-1.3,2.2-1.7,6,1,10.3c5.3,8.9,10.3,13.9,14.5,14.4
			c1.8,0.2,3.5-0.4,5-1.9c3.7-3.6,8.7-7.6,14.7-5.5c4.8,1.7,8.8,2.3,12,2c-8-4.4-14.3-11.4-17.9-19.8c-1.4,0.1-2.7-0.2-3.8-0.9
			c-1.4-0.9-2.5-2.6-3.2-4.9c-2.4,1.4-4.3,3.1-5.9,5c-0.2,0.3-0.5,0.4-0.9,0.4c-0.3,0-0.7-0.1-0.9-0.4c-1.9-2.2-2.6-2.1-2.6-2.1
			c0,0-1,0.6-0.6,6.6c0,0.6-0.3,1.1-0.9,1.2c-0.5,0.1-1.1-0.2-1.3-0.7c-1.6-3.7-3.7-5.8-5.8-6C11.7,161.5,11.6,161.5,11.6,161.5z"/>
	</g>
	<g>
		<path class="st1" d="M112.1,163.2c-0.5,0-1.1-0.1-1.6-0.2l-1.3-0.3l0.5-1.3c1.2-3,2-6.2,2.3-9.4l0,0c0.4-2.6,0.3-5.6,0.1-7.2
			l0-0.6l0.5-0.4c1.9-1.6,3.3-3.3,4.2-5.1l1.8-3.6l0.4,4c1.2,12.3,0.2,19.7-3,22.6C114.8,162.8,113.5,163.2,112.1,163.2z
			 M114.2,152.4c-0.3,2.9-1,5.7-2,8.5c0.8,0,1.5-0.3,2-0.8c1.7-1.5,3.4-5.7,2.6-17.4c-0.7,0.9-1.5,1.7-2.4,2.5
			C114.5,147.1,114.6,149.9,114.2,152.4z"/>
	</g>
	<g>
		<path class="st1" d="M124.6,190.8c-2.1,0-4.1-0.9-5.9-2.7c-4.9-4.8-8.5-6.3-12.3-5c-7,2.4-12.4,2.9-16.6,1.3
			c-0.4-0.2-0.7-0.6-0.8-1c0-0.5,0.3-0.9,0.7-1.1c9.1-4,16.3-11.6,20-20.8c0.2-0.5,0.8-0.8,1.3-0.7c1.2,0.3,2.2,0.1,3-0.4
			c1.2-0.8,2-2.4,2.6-4.9c0.1-0.4,0.3-0.7,0.6-0.8c0.3-0.2,0.7-0.1,1,0c2.8,1.5,5.1,3.2,7,5.3c1.3-1.3,2.9-2.4,4.4-1.7
			c1.2,0.5,1.8,1.8,2,4.3c2.1-2.7,4.2-3.3,5.5-3.4c2.3-0.1,4.4,1.1,5.7,3.3c1.6,2.8,2.2,7.6-1.1,12.8c-5.8,9.6-11.2,14.8-16.1,15.4
			C125.2,190.7,124.9,190.8,124.6,190.8z M108.9,180.4c4.5,0,8.4,3.1,11.4,6.1c1.6,1.5,3.2,2.2,5,1.9c4.1-0.5,9.1-5.5,14.4-14.3
			c2.7-4.3,2.3-8.2,1-10.4c-0.9-1.5-2.2-2.3-3.6-2.2c-2.1,0.1-4.2,2.3-5.8,6c-0.2,0.5-0.8,0.8-1.3,0.7c-0.5-0.1-0.9-0.6-0.9-1.2
			c0.4-5.9-0.6-6.6-0.6-6.6c0,0-0.7-0.1-2.6,2.1c-0.2,0.3-0.6,0.4-0.9,0.4c-0.3,0-0.7-0.2-0.9-0.4c-1.5-1.9-3.5-3.6-5.9-5
			c-0.7,2.4-1.8,4-3.2,4.9c-1.1,0.7-2.3,1-3.8,0.9c-3.5,8.4-9.9,15.4-17.9,19.8c3.2,0.3,7.2-0.3,12-2
			C106.7,180.6,107.8,180.4,108.9,180.4z"/>
	</g>
	<g class="st2">
		<path class="st3" d="M91.4,111.7c0,0,10.9,14.1-5.6,14.4l11,2.3l5.4-3.1l2.5-2.7l-4.7-5.1L91.4,111.7z"/>
	</g>
	<g class="st2">
		<path class="st3" d="M57.3,111.7c0,0-11.5,14.1,5,14.4l-11,2.3l-5.4-3.1l-2.5-2.7l4.7-5.1L57.3,111.7z"/>
	</g>
</g>
</svg>
