<?xml version="1.0" encoding="utf-8"?>
<!-- Generator: Adobe Illustrator 24.0.1, SVG Export Plug-In . SVG Version: 6.00 Build 0)  -->
<svg version="1.1" id="Layer_1" xmlns="http://www.w3.org/2000/svg" xmlns:xlink="http://www.w3.org/1999/xlink" x="0px" y="0px"
	 viewBox="0 0 170.08 141.26" style="enable-background:new 0 0 170.08 141.26;" xml:space="preserve">
<style type="text/css">
	.st0{fill:#060505;}
	.st1{fill:#E6A027;}
	.st2{fill:#FBEFA7;}
	.st3{fill:#F5D47D;}
	.st4{fill:#F6D882;}
	.st5{fill:#E6A837;}
	.st6{fill:#E4A430;}
	.st7{fill:#F8E191;}
	.st8{fill:#E9AF46;}
	.st9{fill:#FAE494;}
	.st10{fill:#F5D37C;}
	.st11{fill:#ECBC58;}
	.st12{fill:#E7A938;}
	.st13{fill:#F3CF77;}
	.st14{fill:#EAB64E;}
	.st15{fill:#F5DE8B;}
	.st16{fill:#E5AB41;}
	.st17{fill:#EDC05F;}
	.st18{fill:#EDBC5A;}
	.st19{fill:#FAE498;}
	.st20{fill:#ECB854;}
	.st21{fill:#ECB651;}
	.st22{fill:#F1CD77;}
	.st23{fill:#F1CC75;}
	.st24{fill:#020202;}
	.st25{fill:#8D9078;}
	.st26{fill:#BDB794;}
	.st27{fill:#DABA73;}
	.st28{fill:#E8B54F;}
	.st29{fill:#D4B368;}
	.st30{fill:#C8A765;}
	.st31{fill:#FEFEFE;}
	.st32{fill:#FFFFFF;}
	.st33{fill:#F9F8F9;}
	.st34{fill:#FBFAFB;}
	.st35{fill:#D59A2E;}
	.st36{fill:#E0A12C;}
	.st37{fill:#F5DF95;}
	.st38{fill:#E8B44D;}
	.st39{fill:#EEC76F;}
	.st40{fill:#F8F7F8;}
	.st41{fill:#E3A534;}
	.st42{fill:#F8F6F7;}
	.st43{fill:#F3D280;}
	.st44{fill:#F6E094;}
	.st45{fill:#EDC76D;}
	.st46{fill:#E6B14C;}
	.st47{fill:#EDCB74;}
	.st48{fill:#D49C3B;}
	.st49{fill:#DDBB70;}
	.st50{fill:#D89F30;}
	.st51{fill:#CD9C42;}
	.st52{fill:#F4F2F2;}
	.st53{fill:#CD9A46;}
	.st54{fill:#C59A56;}
	.st55{fill:#88724E;}
	.st56{fill:#C8C5C8;}
	.st57{fill:#080608;}
	.st58{fill:#C7C6C6;}
	.st59{fill:#C8C5C7;}
	.st60{fill:#C7C5C8;}
	.st61{fill:#C8C6C6;}
	.st62{fill:#C8C6C7;}
	.st63{fill:#24190D;}
	.st64{fill:#24180C;}
	.st65{fill:#0D0A07;}
	.st66{fill:#17120D;}
	.st67{fill:#1C150A;}
</style>
<g>
	<path class="st0" d="M4.82,72.37c0.86-2.62,1.66-5.26,2.19-7.97c1.43-4.78,2.76-9.59,3.86-14.46c0.05-0.22,0.15-0.42,0.23-0.63
		c1.09-3.44,1.91-6.96,2.78-10.46c0.37-1.3,0.81-2.59,1.09-3.9c0.23-1.06,0.73-1.65,1.85-1.8c3.46-0.45,6.92-0.99,10.38-1.42
		c1.87-0.23,2.08-0.38,2.35-2.24c0.17-1.12,0.47-2.22,0.7-3.33c0.15-0.74,0.59-1.11,1.31-1.4c6.58-2.69,13.13-5.45,19.71-8.16
		c5.39-2.22,10.79-4.41,16.19-6.61c5.34-2.19,10.68-4.37,16.02-6.56c0.16-0.07,0.3-0.19,0.44-0.29c0.86-0.5,1.65-0.17,2.47,0.16
		c8.32,3.45,16.65,6.88,24.98,10.32c8.85,3.66,17.69,7.33,26.56,10.94c1.12,0.46,1.8,1,1.95,2.27c0.14,1.22,0.59,2.4,0.76,3.61
		c0.13,0.87,0.62,1.11,1.36,1.22c3.83,0.56,7.66,1.16,11.5,1.65c0.91,0.12,1.2,0.47,1.42,1.29c0.85,3.26,1.77,6.5,2.67,9.74
		c1.37,5.13,2.74,10.25,4.1,15.38c1.39,5.21,2.79,10.42,4.16,15.64c0.14,0.54,0.72,1.17-0.08,1.69c-2.16,0.88-4,2.32-6.02,3.45
		c-2.9,1.63-5.76,3.31-8.64,4.98c-1.93,1.12-3.85,2.24-5.78,3.36c-0.73,0.42-1.37,1.03-2.38,0.65c-0.55-0.21-0.76,0.37-0.95,0.78
		c-2.91,6.37-6.68,12.2-11.06,17.64c-0.16,0.2-0.24,0.48-0.35,0.72c-1.72,1.49-3.07,3.33-4.67,4.94
		c-6.82,6.92-14.6,12.58-23.05,17.33c-3.52,1.7-6.96,3.57-10.61,5.02c-0.21,0.08-0.43,0.15-0.64,0.23c-1.27,0.52-2.55,1-3.79,1.57
		c-1.84,0.84-3.58,0.81-5.5,0.06c-7.68-2.99-15.12-6.45-22.04-10.94c-6.84-4.44-13-9.73-18.53-15.73
		c-3.22-3.49-5.84-7.45-8.65-11.26c-1.66-3.23-3.63-6.3-5.1-9.63c-0.21-0.49-0.53-1.01-1.11-0.76c-0.8,0.34-1.36-0.13-1.9-0.44
		c-6.87-3.94-13.71-7.93-20.57-11.87c-0.64-0.37-0.6-0.73-0.46-1.33C4.26,74.65,4.85,73.58,4.82,72.37z"/>
	<path class="st1" d="M116.9,117.83c-9.09,7.7-19.45,13.15-30.54,17.31c-0.91,0.34-1.71,0.38-2.63,0.04
		c-11.03-4.13-21.32-9.59-30.44-17.13c-1.48-1.22-2.97-2.42-4.27-3.84c-0.37-0.82-1.12-1.31-1.7-1.94c-0.4-0.44-0.66-0.89-0.41-1.48
		c0.24-0.56,0.77-0.58,1.27-0.61c0.97-0.07,1.9,0.03,2.71,0.67c0.64,0.51,1.42,0.82,2.16,1.17c0.68,0.34,1.08,0.98,1.56,1.52
		c6.54,7.36,14.66,11.92,24.39,13.29c10.6,1.49,20.44-0.62,29.27-6.92c1.67-1.19,3.1-2.69,4.91-3.7c0.76-0.23,1.28-0.85,1.98-1.17
		c0.71-0.33,1.44-0.62,2.21-0.25c0.82,0.39,0.97,1.44,0.36,2.16C117.48,117.27,117.07,117.44,116.9,117.83z"/>
	<path class="st2" d="M64.96,14.17c3.79-1.58,7.57-3.17,11.36-4.75c2.56-1.07,5.12-2.13,7.69-3.18c0.48-0.2,0.93-0.45,1.55-0.19
		c9.61,4.01,19.23,7.99,28.85,11.98c-0.18,0.71-0.74,0.51-1.2,0.47c-0.45-0.04-0.86-0.25-1.26-0.46c-0.55-0.29-1.16-0.52-1.53,0.17
		c-0.39,0.74,0.34,0.85,0.76,1.15c0.33,0.24,1.27,0.33,0.4,1.05c-0.83,0.15-1.51-0.3-2.21-0.59c-7.47-3.07-14.95-6.13-22.4-9.26
		c-1.31-0.55-2.46-0.61-3.79-0.03c-3.64,1.59-7.33,3.06-11.01,4.56c-0.59,0.24-1.16,0.57-1.84,0.33c-0.95-0.77-2.01-0.91-3.22-0.72
		C66.39,14.81,65.47,15.17,64.96,14.17z"/>
	<path class="st3" d="M33.33,94.18c-1.42-2.22-2.52-4.6-3.56-7.01c-0.39-0.89-0.79-1.36-1.81-0.92c-0.89,0.38-1.69,0.19-2.54-0.34
		c-2.46-1.53-4.99-2.96-7.48-4.44c-0.34-0.8-0.09-1.33,0.75-1.56c0.75-0.2,1.45-0.56,2.25-0.57c1.75,0.48,3.19,1.57,4.72,2.47
		c0.97,0.57,1.9,0.76,3,0.51c7.5-1.73,15.1-2.84,22.74-3.65c2.77-0.29,5.53-0.7,8.33-0.66c0.45,0.08,0.96,0.02,1.17,0.58
		c-0.44,0.67-1.18,0.62-1.84,0.73c-8.27,1.38-16.45,3.15-24.53,5.38c-1.66,0.46-1.64,0.48-1,2.02c0.63,1.52,1.35,3.01,2.19,4.43
		c0.3,0.51,0.57,1.05,0.57,1.67c-0.03,0.3-0.19,0.53-0.49,0.53C34.88,93.32,34.15,93.86,33.33,94.18z"/>
	<path class="st4" d="M149.81,82.8c-1.96,1.16-3.93,2.28-5.86,3.48c-0.62,0.39-1.19,0.21-1.69,0.01c-1.19-0.48-1.65,0-2.1,1.07
		c-0.94,2.22-1.93,4.42-3.3,6.43c-0.79-0.55-1.53-1.16-2.58-0.46c-0.28,0.18-0.55-0.19-0.61-0.54c0.44-2.05,1.94-3.61,2.54-5.59
		c0.05-0.17,0.16-0.33,0.24-0.49c0.71-1.47,0.69-1.55-0.83-1.97c-4.36-1.22-8.76-2.32-13.19-3.24c-3.13-0.65-6.27-1.3-9.43-1.84
		c-0.56-0.1-1.23-0.07-1.42-0.83c0.39-0.7,1.1-0.45,1.68-0.55c4.03,0.07,8,0.69,11.98,1.2c5.17,0.66,10.31,1.48,15.37,2.71
		c1.63,0.39,3.04,0.27,4.38-0.76c0.43-0.33,0.93-0.58,1.48-0.69c0.64,0.02,1.23-0.16,1.82-0.42c1.06-0.46,2.19-0.52,3.32-0.27
		c0.42,0.09,0.78,0.33,0.79,0.81c0.01,0.43-0.42,0.37-0.67,0.52C151.07,81.8,150.29,82.11,149.81,82.8z"/>
	<path class="st5" d="M151.48,35.9c0.62-0.11,0.92,0.21,1.07,0.77c1.36,5.22,2.73,10.43,4.1,15.65c-0.19,0.36,0.02,0.71,0.08,1.05
		c0.17,0.99-0.31,1.86-1.24,2.22c-1.05,0.41-1.18-0.46-1.5-1.08c-0.08-0.16-0.24-0.27-0.35-0.41c-0.85-1.64-1.12-3.46-1.59-5.21
		c-0.74-2.72-1.54-5.43-2.19-8.17c-0.31-1.28-0.99-1.93-2.23-2.24c-1.04-0.26-2.18-0.27-3.06-1.04c-0.69-0.7-1.74-0.65-2.49-1.23
		c-0.36-0.27-0.91-0.4-0.74-0.98c0.19-0.62,0.67-0.7,1.31-0.62c2.6,0.33,5.14,1,7.75,1.31C150.76,35.97,151.12,36.01,151.48,35.9z"
		/>
	<path class="st6" d="M13.95,50.12c1.17-4.44,2.34-8.87,3.5-13.32c0.14-0.54,0.37-0.87,0.97-0.97c1.97-0.32,3.94-0.69,5.9-1.04
		c1.41-0.05,2.83,0.08,4.18-0.46c0.73-0.29,1.45-0.12,2.15,0.08c0.39,0.11,0.82,0.3,0.87,0.77c0.05,0.55-0.44,0.61-0.82,0.74
		c-0.23,0.08-0.38,0.24-0.54,0.41c-0.67,0.57-1.53,0.55-2.32,0.76c-1.85,0.5-3.71,0.99-5.59,1.4c-1.11,0.24-1.73,0.8-2.02,1.93
		c-0.69,2.66-1.4,5.31-2.11,7.96c-0.23,0.87-0.33,1.81-0.95,2.54c-0.33,0.12-0.67,0.19-0.97,0.42c-0.54,0.41-1.13,0.78-1.84,0.44
		C13.6,51.43,14.11,50.68,13.95,50.12z"/>
	<path class="st7" d="M20.76,79.56c-0.54,0.2-1.06,0.5-1.61,0.59c-0.81,0.13-1.18,0.53-1.2,1.32c-3.4-1.93-6.8-3.87-10.21-5.8
		c-0.35-0.2-0.57-0.42-0.45-0.86c1.13-4.11,2.24-8.22,3.36-12.33c0.28-0.03,0.4,0.16,0.5,0.37c0.38,0.79,0.9,0.92,1.63,0.43
		c0.36-0.24,0.79-0.61,1.05,0.14c-0.25,2.93-1.34,5.66-1.99,8.49c-0.38,1.68-0.42,1.67,1.1,2.56c2.32,1.36,4.69,2.61,6.91,4.14
		C20.21,78.86,20.67,79.03,20.76,79.56z"/>
	<path class="st8" d="M52.89,112.24c-0.68-0.28-1.53-0.4-1.99-0.89c-0.81-0.86-1.74-0.84-2.73-0.8c-0.38,0.02-0.87-0.13-1.01,0.43
		c-0.11,0.41,0.01,0.78,0.28,1.13c0.53,0.7,1.52,1.05,1.58,2.1c-3.36-3.01-6.37-6.33-9.06-9.95c-0.12-0.2-0.26-0.38-0.33-0.59
		c-0.19-0.58-1.15-1.01-0.39-1.76c0.65-0.64,2.22-0.59,2.89,0.1c0.5,0.52,0.85,1.19,1.55,1.51c1.15,0.91,1.99,2.11,2.67,3.07
		c-0.9-1.91-1.66-4.13-1.9-6.52c0.05-0.35,0.07-0.71,0.11-1.07c0.1-0.97,0.58-1.12,1.35-0.61c0.43,0.26,0.55,0.71,0.69,1.14
		c1.34,4.15,3.33,7.97,5.85,11.52C52.71,111.38,53.12,111.7,52.89,112.24z"/>
	<path class="st9" d="M149.81,82.8c0.2-1.04,1.18-1.27,1.87-1.79c0.11-0.08,0.47,0.18,0.5-0.19c0.02-0.26-0.22-0.4-0.44-0.44
		c-1.18-0.2-2.33-0.18-3.46,0.31c-0.46,0.2-0.89,0.75-1.48,0.24c0.11-0.7,0.72-0.89,1.22-1.19c3.1-1.84,6.25-3.61,9.38-5.41
		c0.98-0.56,1.15-1.15,0.89-2.22c-0.37-1.53-1.14-3-0.99-4.65c0.08-0.16,0.25-0.4,0.39-0.31c1.13,0.76,2,0.32,2.8-0.53
		c0.69,2.5,1.32,5.01,2.1,7.49c0.31,1,0.06,1.41-0.82,1.9C157.76,78.21,153.79,80.52,149.81,82.8z"/>
	<path class="st10" d="M38.32,25.16c5.56-2.35,11.11-4.75,16.76-6.89c0.28,0.09,0.6,0.05,0.78-0.1c1.39-1.14,2.66,0.12,3.98,0.2
		c0.43,0.03,0.67,0.56,0.8,1.02c-0.11,0.54-0.6,0.65-1,0.82c-5.26,2.16-10.46,4.43-15.78,6.44c-0.42,0.16-0.83,0.38-1.31,0.32
		c-0.73-0.24-0.36-0.67-0.17-1.06c0.16-0.32,0.41-0.64,0.07-0.98c-0.29-0.28-0.67-0.22-1.02-0.13c-0.66,0.16-1.25,0.51-1.91,0.67
		C39.1,25.58,38.56,25.9,38.32,25.16z"/>
	<path class="st11" d="M133.86,92.9c0.14,0.2,0.35,0.38,0.55,0.17c1.3-1.35,1.89-0.35,2.47,0.72c-2.02,4.14-4.7,7.84-7.53,11.44
		c-0.84,1.07-1.76,2.07-2.65,3.1c-0.51-0.09-0.33-0.43-0.24-0.71c0.1-0.32,0.42-0.68-0.02-0.95c-0.34-0.21-0.69,0-1.01,0.17
		c-0.39,0.21-0.75,0.5-1.22,0.54c-0.3,0.03-0.52-0.08-0.61-0.4c0.07-0.85,0.74-1.35,1.22-1.92c2.92-3.45,5.57-7.09,7.84-11
		C132.94,93.59,133.11,92.93,133.86,92.9z"/>
	<path class="st12" d="M123.72,107.01c0.7,0.44,1.03-0.26,1.51-0.49c0.57-0.27,1.16-0.66,1.73-0.12c0.65,0.61-0.01,1.02-0.33,1.46
		c-0.12,0.16-0.07,0.34,0.07,0.48c-2.95,3.49-6.22,6.65-9.79,9.49c0.04-0.13,0.04-0.3,0.13-0.38c0.68-0.62,1.23-1.36,0.47-2.17
		c-0.74-0.79-1.58-0.12-2.36,0.17c-0.7,0.27-1.07,1.14-1.95,1.1c0.03-0.78,0.66-1.19,1.1-1.66c1.84-1.96,3.31-4.23,5.09-6.24
		c0.94-1.1,2.29-1.34,3.57-1.74C123.2,107.04,123.48,106.85,123.72,107.01z"/>
	<path class="st13" d="M127.03,23.24c3.16,1.28,6.32,2.57,9.49,3.83c0.65,0.26,0.72,0.75,0.7,1.33c0.25,0.61,0.18,1.03-0.61,0.87
		c-1.16-0.24-1.31,0.42-1.3,1.32c0,0.54,0.25,1.23-0.59,1.44c-0.12-0.08-0.27-0.16-0.28-0.28c-0.21-1.9-1.72-2.34-3.18-2.92
		c-3.13-1.24-6.21-2.61-9.35-3.84c-0.46-0.18-0.97-0.3-1.23-0.79c0.09-0.7-0.67-0.53-0.92-0.89c-0.21-0.3-0.54-0.54-0.4-0.95
		c0.14-0.4,0.49-0.5,0.88-0.51c1.26-0.02,2.5-0.17,3.72,0.49C124.88,22.83,125.91,23.25,127.03,23.24z"/>
	<path class="st14" d="M134.8,31.99c0.32-0.5,0.19-1.02,0.11-1.56c-0.18-1.25,0.46-1.88,1.62-1.5c0.67,0.22,0.66-0.1,0.68-0.53
		c0.32,1.32,0.75,2.62,0.91,3.96c0.14,1.2,0.86,1.38,1.8,1.53c3.85,0.65,7.7,1.33,11.55,2.01c-1.15,0.27-2.22,0.23-3.41-0.11
		c-1.88-0.53-3.87-0.71-5.81-1.01c-0.33-0.05-0.64,0.21-0.71,0.53c-0.1,0.47,0.32,0.43,0.61,0.52c0.82,0.24,1.44,1.05,2.48,0.8
		c0.25-0.06,0.64,0.46-0.08,0.6c-0.34,0.32-0.76,0.29-1.15,0.2c-3.49-0.84-7-1.54-10.49-2.35c-0.27-0.06-0.51-0.18-0.75-0.31
		c-1.73-0.74-3.55-0.99-5.41-1.01c-0.64,0-1.27-0.09-1.84-0.41c-0.32-0.28-0.95-0.45-0.61-1.03c0.33-0.56,0.95-0.42,1.49-0.37
		c2.4,0.26,4.78,0.68,7.19,0.74C133.71,32.79,134.37,32.69,134.8,31.99z"/>
	<path class="st15" d="M127.03,23.24c-1.37,0.3-2.58-0.31-3.71-0.87c-1.18-0.57-2.3,0.05-3.46-0.17c-0.5-0.1-0.37,0.48-0.04,0.74
		c0.39,0.31,0.82,0.57,1.22,0.86c0.01,0.01,0,0.11-0.03,0.12c-0.08,0.04-0.17,0.06-0.26,0.09c-0.38,0.34-0.78,0.14-1.15,0
		c-2.39-0.9-4.73-1.92-7.09-2.9c-0.41-0.17-0.86-0.36-0.95-0.89c0.1-0.78-0.62-0.51-0.96-0.7c-0.54-0.32-1.1-0.57-0.69-1.34
		c0.37-0.71,0.86-1.21,1.74-0.75c0.87,0.45,1.67,1.18,2.76,0.59c4.13,1.46,8.05,3.44,12.11,5.07
		C126.68,23.15,126.86,23.19,127.03,23.24z"/>
	<path class="st16" d="M30.11,36.11c-0.13-1.07,1.01-0.16,1.16-0.94c-0.76-0.56-1.74-0.96-2.72-0.55c-1.42,0.59-2.8,0.45-4.22,0.19
		c1.84-0.3,3.67-0.65,5.52-0.88c1.11-0.14,2.02-0.39,2.14-1.7c0.15-0.05,0.14-0.18,0.18-0.31c0.3-0.93,0.88-1.58,1.92-1.59
		c1.16-0.01,1.23,0.98,1.51,1.76c0.34,0.69,0.93,0.44,1.45,0.37c2.59-0.3,5.18-0.58,7.77-0.87c0.5-0.06,1.01-0.05,1.51,0.01
		c1.18,0.53,1.18,0.64,0.1,1.5c-0.99,0.51-2.1,0.56-3.17,0.76c-3.61,0.7-7.22,1.44-10.81,2.25C31.7,36.28,30.89,36.71,30.11,36.11z"
		/>
	<path class="st17" d="M35.24,31.99c-0.35-0.49-0.11-1.49-1.15-1.37c-1,0.12-1.58,0.74-1.81,1.7c-0.02,0.07-0.06,0.14-0.1,0.21
		c-0.06-0.1-0.13-0.2-0.19-0.31c0.29-1.47,0.59-2.93,0.85-4.4c0.08-0.43,0.34-0.61,0.69-0.76c1.59-0.64,3.19-1.27,4.78-1.91
		c0.66,0.46,1.19-0.09,1.76-0.25c0.56-0.16,1.09-0.44,1.66-0.58c0.45-0.12,0.9-0.07,1.2,0.4c0.3,0.46,0.14,0.84-0.12,1.25
		c-0.16,0.24-0.73,0.39-0.28,0.84c-0.09,0.55-0.56,0.68-0.97,0.86c-0.58,0.26-1.18,0.5-1.77,0.72
		C37.89,29.11,35.96,29.78,35.24,31.99z"/>
	<path class="st18" d="M43.53,103.74c-0.75-0.02-0.98-0.68-1.35-1.15c-0.68-0.85-1.92-1.09-2.75-0.5c-0.35,0.25-0.27,0.53-0.07,0.82
		c0.29,0.41,0.58,0.82,0.6,1.35c-2.51-3.17-4.78-6.49-6.63-10.08c0.56-1.3,1.82-1.02,2.84-1.27c0.5-0.02,0.72,0.35,0.92,0.7
		c1.77,3.14,3.85,6.08,6.04,8.95C43.38,102.88,43.83,103.2,43.53,103.74z"/>
	<path class="st19" d="M60.57,19.35c-0.82-1.21-2.48-0.49-3.43-1.46c-0.07-0.08-0.56,0.2-0.83,0.37c-0.42,0.27-0.82,0.41-1.23,0.01
		c3.21-1.56,6.56-2.79,9.88-4.1c0.87,0.42,1.73,0.22,2.62,0.06c1.15-0.22,2.22-0.09,2.92,1.02c-0.02,0.59-0.51,0.71-0.91,0.89
		c-2.52,1.08-5.08,2.07-7.6,3.15C61.55,19.47,61.06,19.73,60.57,19.35z"/>
	<path class="st20" d="M153.91,53.96c0.17,0.14,0.36,0.26,0.5,0.43c0.26,0.33-0.08,1.27,0.75,0.95c0.7-0.27,1.53-0.7,1.37-1.74
		c-0.07-0.45-0.22-0.89,0.12-1.3c0.87,2.71,1.6,5.46,2.21,8.24c-0.11,0.63,0.12,1.41-0.72,1.72c-0.75,0.27-1.32-0.13-1.82-0.61
		c-0.23-0.22-0.44-0.33-0.75-0.31c-0.99-2.12-1.42-4.39-1.89-6.65C153.62,54.44,153.7,54.17,153.91,53.96z"/>
	<path class="st21" d="M13.95,50.12c0.54,1.94,0.63,1.97,2.39,0.67c0.39-0.29,0.53-0.24,0.59,0.21c0.17,0.18,0.25,0.41,0.2,0.63
		c-0.43,1.9-0.68,3.85-1.55,5.63c-0.56,0.39-0.84,1.26-1.73,1.1c-1.05-0.2-1.44-0.96-1.56-1.93C12.69,54.29,13.31,52.2,13.95,50.12z
		"/>
	<path class="st22" d="M155.87,61.37c0.06-0.19,0.06-0.51,0.39-0.25c1.82,1.41,1.87,1.4,2.59-0.56c0.65,1.99,1.22,4,1.64,6.05
		c-0.45,1.9-1.59,1.58-2.99,0.85c-0.33,0-0.48-0.23-0.58-0.49c-0.58-1.57-0.97-3.2-1.28-4.85
		C155.59,61.85,155.67,61.58,155.87,61.37z"/>
	<path class="st23" d="M12.28,56.43c0.18,0.25,0.37,0.5,0.55,0.76c0.86,1.22,1.13,1.23,2.09,0.05c0.04-0.05,0.22,0.02,0.34,0.03
		c0.28,0.3,0.27,0.66,0.2,1.02c-0.31,1.51-0.77,2.97-1.2,4.44c-0.09,0.3-0.23,0.6-0.63,0.61c-0.11-0.03-0.27-0.13-0.33-0.09
		c-1.69,1.15-2,1.06-2.66-0.76C11.06,60.43,11.62,58.42,12.28,56.43z"/>
	<path class="st24" d="M13.63,63.33c0.7-1.98,1.2-4.02,1.63-6.07c0.71-2.05,1.22-4.15,1.67-6.26c0.99-3.58,2.02-7.16,2.94-10.76
		c0.29-1.12,0.7-1.76,1.94-2.02c2.79-0.6,5.54-1.39,8.3-2.11c4.33-0.88,8.66-1.75,13-2.63c1.07-0.22,2.14-0.44,3.21-0.66
		c3.77-1.47,7.87-1.24,11.75-2.12c0.14-0.19-0.18-0.18-0.03-0.08c0.08,0.05,0.07,0.1-0.03,0.13c-1.43,0.51-2.95,0.41-4.43,0.64
		c-1.57,0.24-3.16,0.34-4.72,0.63c-0.94,0.17-1.79-0.39-2.69-0.07c-3.33,0.16-6.62,0.63-9.91,1.1c-1.02,0.15-1.29-0.12-1.02-1.06
		c0.03-1.94,1.2-2.8,2.92-3.34c1.5-0.47,2.92-1.21,4.37-1.83c5.61-2.29,11.22-4.59,16.83-6.88c0.41-0.17,0.81-0.39,1.21-0.58
		c3.36-1.25,6.69-2.58,9.93-4.11c4.42-1.79,8.86-3.54,13.25-5.39c0.93-0.39,1.65-0.34,2.56,0.03c8.15,3.39,16.31,6.72,24.48,10.07
		c0.25,0.1,0.51,0.17,0.77,0.26c3.02,1.38,6.07,2.66,9.19,3.79c3.59,1.51,7.14,3.09,10.77,4.49c1.73,0.67,3.16,1.4,3.27,3.49
		c0.53,1.63-0.73,0.95-1.37,1.06c-3.61-0.25-7.17-0.93-10.81-0.96c-2.95-0.03-5.86-0.67-8.8-1.02c-0.3-0.04-0.6-0.12-0.99,0.05
		c-0.08,0.01,0.14,0.25,0.07,0.09c-0.03-0.07,0-0.1,0.08-0.11c1.51-0.14,2.96,0.28,4.44,0.43c1.8,0.18,3.6,0.54,5.4,0.8
		c0.83,0.12,1.49,0.65,2.3,0.75c0.48,0.46,1.09,0.24,1.64,0.31c1.84,0.28,3.69,0.52,5.48,1.07c4.1,0.93,8.21,1.86,12.31,2.78
		c1.27,0.35,2.52,0.77,3.8,1.04c1.02,0.21,1.49,0.7,1.75,1.73c1.12,4.42,2.33,8.81,3.52,13.22c0.07,0.26,0.19,0.5,0.29,0.75
		c0.49,2.51,1.14,4.98,1.96,7.41c0.42,2.06,0.92,4.1,1.63,6.09c0.42,1.71,0.8,3.43,1.29,5.11c0.26,0.87,0.13,1.32-0.73,1.8
		c-3.49,1.93-6.92,3.95-10.38,5.95c-0.31,0.18-0.59,0.4-0.88,0.6c-2.95,2.67-6.22,1.7-9.57,0.99c-7.86-1.66-15.82-2.69-23.83-3.26
		c-2.02-0.04-4.03-0.14-5.75-0.4c-0.48,0.03-0.24,0.32-0.32,0.15c-0.02-0.04,0.01-0.07,0.09-0.07c1.45-0.02,2.88,0.11,4.25,0.63
		c2.31,0.45,4.61,0.9,6.92,1.34c6.04,1.16,11.99,2.68,17.94,4.23c1,0.26,1.17,0.61,0.68,1.54c-1.18,2.25-2.26,4.55-3.38,6.83
		c-3,4.98-6.32,9.72-10.14,14.11c-0.19-0.03-0.4,0.5-0.56-0.03c-0.08-0.17-0.14-0.36-0.07-0.53c0.88-2.16,1.21-4.47,1.91-6.68
		c0.85-4.21,1-8.46,0.89-12.72c-0.09-0.18-0.23,0.1-0.07,0c0.48,4.33-0.24,8.5-1.63,12.58c-0.03,0.09-0.06,0.17-0.08,0.26
		c-1.09,3.02-2.23,6.03-4.21,8.61c-0.11,0.14-0.2,0.3-0.38,0.36c-1.86,2.76-4,5.29-6.3,7.68c-3.05,2.63-6.27,5.03-9.87,6.84
		c-17.12,8.6-37.79,4.16-49.95-10.69c-0.14-0.17-0.32-0.31-0.49-0.47c-3.2-4.18-5.47-8.84-7.12-13.83
		c-0.88-1.08-0.96-2.44-1.22-3.72c-0.5-2.46-0.55-4.95-0.47-6.39c-0.05,1.78,0.03,4.62,0.33,7.45c0.15,1.45,0.28,2.89,0.31,4.34
		c0.42,2.43,1.26,4.74,2.22,7.32c-1.48-1.2-2.28-2.6-3.42-3.67c-2.69-3.45-5.08-7.11-7.36-10.84c-1.14-2.33-2.25-4.67-3.43-6.98
		c-0.43-0.83-0.28-1.09,0.63-1.34c7.35-2.02,14.77-3.74,22.27-5.08c1.71-0.31,3.42-0.56,5.13-0.84c0.93-0.48,1.99-0.33,2.96-0.63
		c-1.33,0.43-2.7,0.24-4.06,0.34c-10.67,0.73-21.23,2.18-31.67,4.53c-0.71,0.16-1.2,0.03-1.78-0.3c-1.83-1.01-3.55-2.22-5.47-3.04
		c-2.94-1.74-5.87-3.51-8.85-5.21c-0.77-0.44-0.94-0.86-0.71-1.71C12.06,69.55,12.83,66.44,13.63,63.33z"/>
	<path class="st25" d="M59.68,78.36c1.41-0.46,2.89-0.21,4.34-0.38c-1.02,0.53-2.14,0.57-3.24,0.67
		C60.49,78.25,60.02,78.54,59.68,78.36z"/>
	<path class="st26" d="M111.69,78.96c-1.61-0.08-3.19-0.39-4.75-0.79c2.17-0.01,4.33,0.1,6.47,0.48
		C112.86,78.86,112.19,78.45,111.69,78.96z"/>
	<path class="st27" d="M44.73,100.09c-1.09-4.43-1.08-8.9-0.63-13.41c0.3,1.93,0.24,3.89,0.51,5.83c0.27,2,0.82,3.92,1.17,5.9
		c-0.53-0.09-0.98-0.11-0.87,0.67C44.96,99.41,44.99,99.79,44.73,100.09z"/>
	<path class="st28" d="M125.31,100.1c-0.67,1.7-0.68,3.59-1.48,5.26c-0.25,0.53-0.45,1.08-0.68,1.62c-0.35,0.47-0.63,0.8-1.4,0.63
		c-0.98-0.22-1.38,1.03-2.25,1.26c1.64-2.82,3.07-5.74,4.22-8.79C124.26,99.61,124.79,99.16,125.31,100.1z"/>
	<path class="st29" d="M125.12,33.07c-4.22-0.67-8.43-1.34-12.65-2.01c1.63-0.35,3.24,0,4.84,0.15c5.26,0.5,10.5,1.1,15.75,1.68
		c0.13,0.01,0.25,0.11,0.37,0.17c-2.51,0.12-4.96-0.46-7.45-0.66c-0.53-0.04-1.04-0.21-1.54,0.01
		C124.48,32.9,125,32.76,125.12,33.07z"/>
	<path class="st29" d="M132.24,34.45c-1.85-0.23-3.68-0.6-5.48-1.07C128.65,33.41,130.51,33.6,132.24,34.45z"/>
	<path class="st30" d="M46.16,31.95c1.82-0.46,3.69-0.43,5.54-0.64c2.21-0.25,4.43-0.41,6.69-0.37c-4.03,0.63-8.05,1.26-12.08,1.88
		c0.22-0.19,0.63-0.4,0.62-0.57C46.89,31.85,46.43,32.05,46.16,31.95z"/>
	<path class="st31" d="M136.4,56.99c0.76,4.08,1.51,8.06,2.3,12.25c-2.35-0.59-4.52-1.14-6.7-1.69c-0.51-0.13-0.51-0.55-0.58-0.96
		c-1.08-6.57-2.16-13.14-3.25-19.72c-0.43-2.61-0.85-5.22-1.29-7.83c-0.13-0.77-0.4-1.35,0.95-1.08c4.02,0.8,8.05,1.57,12.04,2.54
		c3.74,0.91,5.99,3.31,6.9,6.98c0.63,2.52,1.14,5.07,1.73,7.6c0.71,3.07,0.08,4.01-3.11,4.41c2.46,4.74,4.91,9.44,7.48,14.37
		c-2.64-0.91-5.07-1.76-7.51-2.6c-0.55-0.19-0.63-0.75-0.85-1.18c-1.99-3.89-4-7.78-5.92-11.71
		C138.13,57.42,137.55,56.95,136.4,56.99z"/>
	<path class="st32" d="M76.77,114.14c-2.42,0-4.83-0.17-7.23-0.51c-0.57-0.08-1-0.29-1.39-0.73c-3.03-3.36-5.75-6.95-8.17-10.79
		c-0.45-0.71-0.47-1.29-0.16-2.01c1.32-3.04,2.65-6.09,3.91-9.16c0.31-0.75,0.69-0.86,1.44-0.78c4.32,0.43,8.64,0.79,12.96,1.15
		c0.5,0.04,0.83,0.18,1.14,0.59c2.39,3.12,4.78,6.22,7.21,9.31c0.4,0.5,0.41,0.9,0.17,1.47c-1.53,3.55-3.11,7.08-4.9,10.51
		c-0.33,0.63-0.66,1-1.42,0.96C79.14,114.1,77.95,114.14,76.77,114.14z"/>
	<path class="st31" d="M34.11,48.95c0.21-1.13,0.33-2.12,0.58-3.08c0.26-1.03-0.11-1.24-1.02-0.97c-0.22,0.06-0.43,0.14-0.66,0.19
		c-4.35,1.03-4.34,1.03-5.1,5.35c-0.16,0.93,0.07,1.37,1.11,1.34c2.06-0.05,4.12-0.06,6.18-0.01c2.83,0.06,4.36,1.85,3.99,4.67
		c-0.27,2.08-0.55,4.17-0.98,6.22c-0.69,3.3-3.03,5.12-6.05,6.1c-3.46,1.13-6.97,2.12-10.46,3.16c-0.44,0.13-0.88,0.24-1.33,0.31
		c-2.16,0.32-3.51-0.99-3.14-3.11c0.3-1.7,0.76-3.38,1.14-5.07c0.12-0.56,0.47-0.82,1-0.99c2.04-0.63,4.07-1.29,6.22-1.98
		c0.02,1.23-0.36,2.3-0.58,3.39c-0.15,0.71-0.05,0.97,0.68,0.76c1.66-0.47,3.33-0.93,4.99-1.44c0.28-0.09,0.66-0.34,0.71-0.57
		c0.34-1.47,0.65-2.94,0.86-4.43c0.1-0.69-0.52-0.74-1.05-0.71c-2.19,0.09-4.39,0.22-6.58,0.27c-2.9,0.06-4.31-1.42-3.81-4.27
		c0.46-2.64,0.99-5.3,1.84-7.84c0.96-2.89,3.11-4.84,6.08-5.63c2.82-0.75,5.69-1.32,8.55-1.9c3-0.61,4.73,1.19,4.16,4.24
		c-0.23,1.26-0.47,2.52-0.6,3.79c-0.07,0.67-0.31,0.92-0.96,1.04C38.02,48.08,36.2,48.51,34.11,48.95z"/>
	<path class="st32" d="M62.45,40.96c-0.47,5.45-0.97,11.6-1.55,17.75c-0.26,2.8-2.09,4.86-4.84,5.37c-3.45,0.64-6.93,1.15-10.4,1.65
		c-1.03,0.15-2.09,0.17-3.06-0.42c-1.15-0.7-1.65-1.72-1.45-3.01c0.99-6.64,2-13.27,3.05-19.9c0.57-3.6,3-5.59,7.09-5.99
		c2.09-0.2,4.18-0.43,6.27-0.7C60.92,35.27,62.65,36.85,62.45,40.96z"/>
	<path class="st31" d="M106.15,37.02c-0.04-1.86-0.05-1.8,1.78-1.61c5.04,0.53,10.08,1.06,15.1,1.77c0.75,0.11,1,0.37,1.08,1.07
		c0.15,1.22,0.32,2.45,0.6,3.64c0.19,0.85-0.12,0.91-0.82,0.81c-2.98-0.44-5.96-0.84-8.95-1.25c-0.41-0.06-0.82-0.06-1.22-0.15
		c-0.94-0.19-1.03,0.23-0.9,1.03c0.21,1.31,0.39,2.63,0.43,3.95c0.03,0.86,0.38,1.04,1.14,1.12c2.22,0.24,4.43,0.58,6.65,0.86
		c0.78,0.1,1.2,0.44,1.28,1.26c0.13,1.27,0.3,2.54,0.53,3.8c0.16,0.87-0.18,1.01-0.94,0.89c-2.07-0.34-4.15-0.64-6.22-0.97
		c-1.7-0.28-1.74-0.25-1.53,1.51c0.01,0.09,0.02,0.18,0.04,0.27c0.32,1.32-0.28,3.1,0.76,3.89c0.97,0.73,2.6,0.6,3.94,0.84
		c2.56,0.45,5.12,0.93,7.69,1.31c0.84,0.12,1.18,0.43,1.25,1.27c0.09,1.09,0.28,2.17,0.49,3.25c0.18,0.9,0,1.24-1,1.02
		c-3.88-0.85-7.79-1.47-11.71-2.07c-0.9-0.14-1.81-0.23-2.7-0.43c-2.73-0.6-4.62-2.64-4.86-5.35c-0.57-6.37-1.08-12.75-1.63-19.12
		C106.37,38.74,106.25,37.88,106.15,37.02z"/>
	<path class="st31" d="M83.11,40.74c-0.06,3.01-0.06,3.01-3.1,3.03c-0.55,0-1.11-0.06-1.64,0.02c-1.46,0.24-1.73-0.47-1.46-1.69
		c0.05-0.22,0.03-0.46,0.07-0.68c0.27-1.29-0.24-1.72-1.53-1.56c-0.99,0.13-2.01,0.09-3.01,0.06c-0.8-0.02-1.14,0.28-1.18,1.11
		c-0.24,5.21-0.52,10.41-0.8,15.61c-0.04,0.66,0.2,0.93,0.86,0.89c1.51-0.09,3.01-0.16,4.52-0.24c0.64-0.03,0.63-0.47,0.7-0.95
		c0.14-1.01-0.54-2.36,0.37-2.94c0.73-0.47,1.95-0.18,2.96-0.2c3.2-0.07,3.2-0.06,3.2,3.27c0,3.61-1.5,5.69-4.42,5.97
		c-1.77,0.17-3.56,0.18-5.34,0.27c-1.51,0.08-3.01,0.17-4.52,0.25c-3.3,0.18-5.12-1.55-4.9-4.79c0.42-6.29,0.9-12.58,1.38-18.87
		c0.18-2.3,2.43-4.38,4.95-4.52c2.56-0.14,5.12-0.22,7.68-0.25c3.64-0.04,5.27,1.62,5.23,5.25C83.11,40.1,83.11,40.42,83.11,40.74z"
		/>
	<path class="st31" d="M85.85,48.26c0-3.07,0-6.13,0-9.2c0-2.56,1.76-4.51,4.3-4.53c2.93-0.02,5.86,0.07,8.78,0.28
		c2.59,0.18,4.56,2.24,4.8,4.81c0.13,1.32,0.16,2.65,0.29,3.97c0.06,0.62-0.14,0.8-0.74,0.76c-1.6-0.12-3.19-0.22-4.79-0.28
		c-0.55-0.02-0.72-0.26-0.73-0.74c0-0.18-0.02-0.37-0.03-0.55c-0.15-2.79-0.15-2.79-3.02-2.85c-2.74-0.06-2.73-0.06-2.65,2.67
		c0.13,4.48,0.27,8.96,0.35,13.45c0.02,0.94,0.27,1.3,1.24,1.29c1.28-0.02,2.56,0.11,3.83,0.21c0.79,0.07,1.11-0.24,1-1.02
		c-0.01-0.04-0.01-0.09,0-0.14c0.15-0.92-0.68-2.13,0.12-2.69c0.6-0.42,1.77-0.09,2.67,0.02c4.32,0.5,3.4-0.66,3.78,3.72
		c0.02,0.27-0.02,0.56,0.04,0.82c0.6,2.76-1.56,4.7-4.19,4.67c-3.56-0.04-7.13-0.23-10.69-0.52c-2.53-0.21-4.29-2.3-4.31-4.82
		c-0.02-3.11,0-6.22,0-9.34C85.88,48.26,85.87,48.26,85.85,48.26z"/>
	<path class="st32" d="M102.63,89.4c0-1.14-0.02-2.29,0.01-3.43c0.02-0.86-0.39-1.93,0.14-2.53c0.96-1.07,2.12-2.08,3.4-2.71
		c1.14-0.56,2.51,0.08,3.76,0.26c3.11,0.45,6.2,1.07,9.31,1.55c0.95,0.15,1.31,0.61,1.39,1.5c0.37,3.94,0.26,7.85-0.55,11.73
		c-0.09,0.44-0.24,0.86-0.59,1.21c-2.44,2.47-4.97,4.85-7.85,6.82c-0.74,0.51-1.23,0.48-1.87-0.12c-2.25-2.07-4.53-4.12-6.84-6.13
		c-0.58-0.5-0.63-1.08-0.55-1.71C102.68,93.7,102.59,91.54,102.63,89.4z"/>
	<path class="st32" d="M86.62,79.27c-2.49,3.6-4.99,6.96-7.56,10.26c-0.23,0.29-0.5,0.33-0.84,0.3c-4.32-0.4-8.64-0.79-12.97-1.15
		c-0.77-0.06-1.18-0.37-1.45-1.13c-0.69-1.93-1.45-3.83-2.26-5.71c-0.37-0.87-0.06-1.08,0.75-1.18
		C70.29,79.7,78.3,79.04,86.62,79.27z"/>
	<path class="st33" d="M90.19,119.81c-0.55,0.14-0.88-0.15-1.23-0.35c-2.04-1.15-3.85-2.6-5.58-4.16c-0.52-0.47-0.64-0.84-0.27-1.5
		c1.86-3.39,3.41-6.93,4.89-10.5c0.3-0.73,0.74-1.06,1.45-1.21c3.79-0.83,7.45-2.06,11.05-3.5c0.73-0.29,1.17-0.22,1.76,0.33
		c2.16,2.03,4.38,4.01,6.63,5.95c0.59,0.51,0.67,0.89,0.36,1.61c-0.91,2.14-1.92,4.23-2.89,6.34c-0.71,1.54-1.79,2.53-3.33,3.2
		C98.86,117.83,94.57,119.15,90.19,119.81z"/>
	<path class="st34" d="M68,119.7c-7.97-3.82-15.73-13.16-17.74-23.02c2.4,1.9,4.83,3.45,7.38,4.81c0.38,0.2,0.52,0.61,0.74,0.96
		c2.57,4.11,5.41,8.02,8.74,11.56c0.41,0.43,0.58,0.85,0.6,1.44C67.76,116.82,67.9,118.18,68,119.7z"/>
	<path class="st35" d="M134.39,78.89c-1.9-0.38-3.78-0.74-5.65-1.13c-2.94-0.61-2.93-0.62-3.32-3.64c-0.14-1.04-0.26-2.09-0.48-3.11
		c-0.19-0.9-0.04-1.31,0.98-1.08c2.05,0.46,4.11,0.83,6.14,1.34c2.15,0.55,2.7,1.58,2.12,3.74c-0.12,0.46,0.24,0.41,0.41,0.53
		c0.71,0.49,0.91,1.22,0.98,2.01C135.66,78.47,135.15,78.79,134.39,78.89z"/>
	<path class="st36" d="M38.55,73.78c1.18-0.22,2.48-0.49,3.78-0.68c1.42-0.21,1.87,0.24,1.79,1.62c-0.1,1.54-0.77,2.45-2.31,2.84
		c-1.81,0.46-3.64,0.82-5.47,1.21c-0.62,0.13-1.32,0.35-1.74-0.32c-0.28-0.44-0.27-1.11,0.07-1.42c0.57-0.53,1.44-0.78,2.15-0.48
		c1.66,0.71,3.04-0.25,4.53-0.55c0.3-0.06,0.38-0.39,0.29-0.68c-0.11-0.34-0.43-0.31-0.68-0.27c-1.35,0.24-2.69,0.49-4.03,0.76
		c-1.65,0.33-2.14-0.14-1.82-1.79c0.23-1.2,0.83-2.08,2.06-2.51c1.86-0.65,3.77-1.09,5.72-1.3c1.07-0.12,1.84,0.74,1.41,1.55
		c-0.47,0.91-1.51,0.85-2.25,0.59c-1.6-0.57-2.87,0.27-4.25,0.68c-0.21,0.06-0.34,0.35-0.2,0.58
		C37.77,73.96,38.13,73.79,38.55,73.78z"/>
	<path class="st37" d="M88.75,73.98c-0.73,0-1.46,0.02-2.2-0.01c-0.36-0.01-0.72-0.09-1.07-0.17c-0.81-0.19-1.04-0.82-1.13-1.53
		c-0.03-0.26-0.11-0.68,0.21-0.69c0.69-0.03,1.43-0.33,2.07,0.23c0.55,0.49,3.59,0.78,4.16,0.44c0.22-0.13,0.3-0.32,0.29-0.57
		c-0.02-0.44-0.37-0.52-0.67-0.54c-1.32-0.08-2.65-0.12-3.97-0.16c-1.5-0.04-2.03-0.5-2.15-1.88c-0.13-1.58,0.35-2.31,1.77-2.57
		c1.72-0.31,3.46-0.25,5.19-0.02c0.18,0.02,0.37,0.05,0.54,0.11c0.89,0.34,1.46,1.11,1.12,1.91c-0.31,0.74-1.49,0.51-1.9,0.17
		c-1.18-1-2.44-0.4-3.65-0.5c-0.29-0.02-0.7-0.07-0.71,0.42c-0.02,0.47,0.32,0.64,0.71,0.65c1.23,0.04,2.47,0.04,3.7,0.09
		c1.74,0.08,2.57,1.07,2.41,2.79c-0.11,1.12-0.69,1.78-1.83,1.83C90.67,74.01,89.71,73.98,88.75,73.98z"/>
	<path class="st38" d="M61.8,67.32c2.61,0.01,3.09,0.5,2.95,3.06c-0.02,0.32-0.04,0.64-0.07,0.96c-0.25,2.6-0.8,3.24-3.4,3.61
		c-1.62,0.23-3.26,0.46-4.91,0.42c-1.24-0.02-1.84-0.6-1.84-1.85c0-1.2,0.23-2.36,0.51-3.51c0.28-1.16,1.01-1.83,2.14-2.03
		C58.72,67.73,60.26,67.54,61.8,67.32z"/>
	<path class="st39" d="M65.29,72.69c0.1-1.5,0.22-3.01,0.28-4.51c0.03-0.8,0.35-1.09,1.16-1.11c1.87-0.06,3.74-0.25,5.61-0.34
		c0.83-0.04,1.79-0.02,2.1,0.91c0.34,0.99,0.44,2.11-0.27,3.01c-0.33,0.43-0.79,0.54-0.08,1.12c0.6,0.49,0.39,1.4,0.18,2.08
		c-0.18,0.58-0.87,0.3-1.34,0.37c-0.62,0.1-0.97-0.11-0.87-0.81c0.12-0.88-0.35-1.12-1.14-1.04c-0.82,0.08-1.64,0.16-2.46,0.16
		c-0.75,0-1.07,0.29-1.02,1.06c0.09,1.35-0.96,0.87-1.63,0.96c-0.94,0.12-0.53-0.61-0.57-1.02C65.21,73.24,65.26,72.96,65.29,72.69
		C65.28,72.69,65.28,72.69,65.29,72.69z"/>
	<path class="st40" d="M85.01,15.71c0.6,1.83,1.14,3.27,1.54,4.74c0.18,0.68,0.49,0.85,1.14,0.84c1.53-0.04,3.06-0.01,4.98-0.01
		c-1.55,1.13-2.76,2.07-4.03,2.92c-0.55,0.37-0.68,0.68-0.43,1.33c0.54,1.44,0.96,2.92,1.55,4.76c-1.49-1.09-2.72-1.96-3.9-2.89
		c-0.61-0.47-1.07-0.47-1.68,0c-1.17,0.93-2.4,1.79-3.89,2.88c0.57-1.8,1-3.3,1.54-4.77c0.24-0.65,0.12-0.95-0.44-1.33
		c-1.27-0.85-2.47-1.79-4.02-2.93c1.9,0,3.43-0.02,4.96,0.01c0.64,0.01,0.96-0.13,1.14-0.83C83.87,18.99,84.41,17.54,85.01,15.71z"
		/>
	<path class="st41" d="M54.1,70.66c-0.07,2.48-0.83,3.32-3.29,3.66c-0.81,0.11-1.61,0.32-2.43,0.38c-0.96,0.07-1.56,0.28-1.63,1.47
		c-0.06,1.09-1.2,0.83-1.87,0.82c-0.87,0-0.36-0.74-0.31-1.14c0.21-1.63,0.5-3.24,0.7-4.87c0.11-0.92,0.45-1.45,1.47-1.57
		c1.72-0.19,3.42-0.54,5.13-0.78C53.55,68.41,54.14,68.96,54.1,70.66z"/>
	<path class="st42" d="M86.41,124.09c2.14-2.69,5.16-3.03,8.08-3.63c3.31-0.69,6.48-1.83,9.52-3.3c0.74-0.36,1.42-0.45,2.4-0.11
		C100.36,121.45,93.79,123.81,86.41,124.09z"/>
	<path class="st43" d="M79.58,66.41c1.09,0,2.19,0.06,3.28-0.02c0.91-0.07,0.91,0.43,0.93,1.08c0.02,0.67-0.14,0.96-0.9,0.99
		c-2.3,0.08-2.3,0.12-2.32,2.37c-0.01,0.59-0.01,1.19-0.03,1.78c-0.03,1.3-0.77,1.8-1.98,1.38c-0.53-0.18-0.36-0.57-0.36-0.9
		c0.01-1.19-0.01-2.38,0.12-3.55c0.1-0.89-0.19-1.15-1.02-1.05c-0.4,0.05-0.82,0-1.23,0.02c-0.56,0.03-1,0.01-0.93-0.76
		c0.05-0.6-0.07-1.2,0.87-1.16c1.18,0.05,2.37,0.01,3.56,0.01C79.58,66.54,79.58,66.47,79.58,66.41z"/>
	<path class="st44" d="M99.31,69.08c-0.11,3.28,0.85,4.08,4.13,3.61c0.74-0.1,0.7-1.41,1.71-0.9c0.45,0.22,1.28-0.28,1.27,0.76
		c-0.01,0.85,0.02,1.85-1.04,1.94c-2.32,0.19-4.65,0.16-6.92-0.46c-0.41-0.11-0.81-0.36-0.92-0.76c-0.59-1.96-1.03-3.94,0.09-5.88
		C98.51,67.63,99.08,68.19,99.31,69.08z"/>
	<path class="st45" d="M113.28,75.42c-1.79-0.19-3.42-0.39-5.05-0.52c-0.66-0.05-0.94-0.23-0.98-0.96
		c-0.09-1.77-0.32-3.54-0.43-5.31c-0.02-0.41-0.53-1.22,0.5-1.19c0.74,0.02,1.71-0.29,1.76,1.05c0.04,1.23,0.27,2.45,0.32,3.68
		c0.03,0.74,0.25,1.04,1.03,1.05c0.91,0.01,1.81,0.24,2.72,0.25c1.04,0.01,1.66,0.28,1.53,1.47
		C114.52,76.44,113.51,74.76,113.28,75.42z"/>
	<path class="st46" d="M123.75,76.45c-2.54,0.38-4.98-0.07-7.3-1.04c-1.12-0.47-1.3-1.69-1.45-2.79c-0.14-1.08-0.27-2.18-0.31-3.27
		c-0.01-0.35-0.68-1.13,0.35-1.08c0.67,0.04,1.65-0.3,1.8,0.91c0.15,1.18,0.35,2.34,0.48,3.52c0.11,1.03,0.66,1.53,1.68,1.62
		c0.68,0.06,1.36,0.16,2.03,0.29c0.88,0.16,1.29-0.2,1.29-1.07c0.42-0.3,0.53-0.31,0.57,0.14
		C122.99,74.67,123.46,75.53,123.75,76.45z"/>
	<path class="st47" d="M99.31,69.08c-0.64-0.49-1.2-1.05-1.68-1.69c0.21-0.16,0.42-0.44,0.64-0.46c2.15-0.17,4.31-0.19,6.4,0.38
		c1.14,0.32,1.27,1.43,1.45,2.5c-0.98,0.06-1.7-0.02-2.62-0.64C102.35,68.38,100.72,68.5,99.31,69.08z"/>
	<path class="st48" d="M101.17,88.02c0,2.75,0,5.44,0,8.13c0,0.44-0.06,0.81-0.53,1c-2.26,0.93-4.55,1.79-6.95,2.3
		c1.61-0.94,3.21-1.89,4.83-2.81c0.82-0.46,1.21-1.11,1.37-2.04C100.26,92.41,100.73,90.25,101.17,88.02z"/>
	<path class="st49" d="M125.31,100.1c-0.52-0.52-1.06-0.06-1.58-0.02c1.25-4.39,2.2-8.83,2.15-13.44
		C126.45,91.16,126.35,95.65,125.31,100.1z"/>
	<path class="st50" d="M123.75,76.45c-1.16-0.65-1.15-1.75-1.12-2.87c0-0.03-0.04-0.1-0.06-0.1c-0.08,0-0.16,0.03-0.24,0.05
		c-0.17-1.02-0.39-2.03-0.48-3.05c-0.03-0.36-0.62-1.12,0.29-1.13c0.67-0.01,1.65-0.24,1.86,0.86c0.17,0.88,0.39,1.76,0.32,2.68
		c-0.39,0.57,0.01,1.08,0.09,1.62c0.08,0.56,0.12,1.14-0.15,1.68C124.16,76.44,123.96,76.46,123.75,76.45z"/>
	<path class="st51" d="M52.29,96.32c1.4,0.64,2.81,1.24,4.18,1.94c0.96,0.5,1.46,0.39,1.89-0.7c0.85-2.1,2.03-4.04,3.55-5.78
		c-1.11,2.68-2.23,5.36-3.33,8.04c-0.2,0.48-0.48,0.44-0.85,0.24C55.81,98.99,53.92,97.89,52.29,96.32z"/>
	<path class="st52" d="M103.99,80.18c-1.87,2.12-2.02,2.16-4.31,1.32c-1.6-0.58-3.19-1.17-4.71-2.06
		C97.94,79.69,100.91,79.93,103.99,80.18z"/>
	<path class="st53" d="M77.01,123.5c-2.48-0.43-4.8-1.34-7.08-2.36c-0.44-0.2-0.54-0.52-0.59-0.97c-0.13-1.36-0.32-2.71-0.24-4.28
		c0.68,1.14,0.86,2.28,1.2,3.35c0.22,0.71,0.59,1.17,1.24,1.52c1.84,0.98,3.71,1.9,5.73,2.46C77.37,123.48,77.3,123.6,77.01,123.5z"
		/>
	<path class="st54" d="M116.26,106.32c-1.9,3.48-4.42,6.44-7.34,9.07c-0.65,0.59-1.36,0.31-1.97,0.3
		C110.82,113.37,113.34,109.64,116.26,106.32z"/>
	<path class="st46" d="M124.25,76.21c0.37-1.09-0.63-2.22,0.06-3.3c-0.22,0.71,0.36,1.28,0.33,1.95
		C124.63,75.33,124.74,75.86,124.25,76.21z"/>
	<path class="st55" d="M77.01,123.5c0.09-0.09,0.18-0.19,0.27-0.28c0.67,0.18,1.34,0.37,2.01,0.55
		C78.46,124.02,77.72,123.86,77.01,123.5z"/>
	<path class="st56" d="M143.23,57.79c2.44,4.71,4.78,9.21,7.25,13.98c-1.6-0.52-2.93-0.94-4.25-1.39c-0.48-0.16-0.6-0.66-0.81-1.06
		c-2.02-3.95-4.03-7.9-6.04-11.84c-0.5-0.99-2.96-2.24-3.99-2.03c-0.56,0.12-0.39,0.56-0.34,0.88c0.37,2.1,0.76,4.2,1.16,6.3
		c0.3,1.6,0.63,3.2,0.98,5c-1.49-0.38-2.83-0.73-4.17-1.04c-0.5-0.12-0.45-0.48-0.51-0.84c-0.71-4.17-1.44-8.33-2.14-12.51
		c-0.13-0.75-0.16-1.28,1.03-1.02c5.12,1.12,10.17,2.52,15.19,4c0.42,0.12,1.13,0.12,1.01,0.87c-0.11,0.68-0.59,0.96-1.27,1.01
		C145.38,58.16,144.45,57.93,143.23,57.79z"/>
	<path class="st57" d="M134.12,44.64c1.74,0.4,3.33,0.79,4.92,1.14c0.74,0.16,1.17,0.48,1.3,1.32c0.24,1.53,0.64,3.03,0.97,4.54
		c0.17,0.75,0.06,1.14-0.87,0.85c-1.21-0.38-2.45-0.78-3.7-0.93c-1.18-0.14-1.58-0.74-1.73-1.79
		C134.76,48.1,134.43,46.45,134.12,44.64z"/>
	<path class="st58" d="M77.73,113.37c-2.58-0.21-5.18-0.34-7.75-0.66c-1.37-0.17-2.06-1.47-2.85-2.41
		c-1.64-1.94-3.11-4.03-4.63-6.09c-0.19-0.26-0.65-0.56-0.34-0.92c0.15-0.18,0.59-0.15,0.9-0.15c7.02-0.03,13.96-0.86,20.85-2.16
		c0.65-0.12,1.12,0.08,1.58,0.55c0.5,0.51,0.17,0.97,0,1.38c-1.35,3.24-2.86,6.41-4.44,9.55c-0.31,0.62-0.72,0.88-1.4,0.84
		c-0.64-0.04-1.28-0.01-1.92-0.01C77.74,113.32,77.74,113.34,77.73,113.37z"/>
	<path class="st59" d="M29.23,56.97c-1.43,0.06-2.75-0.1-4.06,0.24c-0.39,0.1-0.84,0.09-1.23,0c-0.6-0.14-1.52-0.13-1.54-0.85
		c-0.02-0.57,0.88-0.45,1.37-0.59c3.42-0.95,6.85-1.9,10.28-2.79c2.5-0.65,4.33,0.93,3.98,3.46c-0.31,2.25-0.59,4.52-1.14,6.72
		c-0.57,2.28-2.43,3.53-4.5,4.25c-3.7,1.28-7.47,2.36-11.22,3.48c-0.51,0.15-1.09,0.14-1.63,0.11c-0.97-0.04-1.4-0.56-1.18-1.55
		c0.31-1.37,0.69-2.74,0.91-4.13c0.14-0.87,0.58-1.28,1.36-1.48c0.44-0.11,0.87-0.28,1.3-0.43c1.9-0.63,1.9-0.63,1.83,1.29
		c-0.05,1.34,0.8,2.04,2.07,1.69c1.71-0.48,3.42-0.96,5.12-1.5c0.86-0.27,1.5-0.8,1.65-1.81c0.19-1.26,0.53-2.49,0.74-3.74
		c0.25-1.49-0.51-2.34-2.03-2.35C30.59,56.96,29.85,56.97,29.23,56.97z"/>
	<path class="st58" d="M60.57,49.82c-0.48,3.14-0.49,6.34-0.86,9.5c-0.17,1.5-2.1,3.37-3.88,3.65c-3.55,0.54-7.1,1.05-10.64,1.66
		c-2.07,0.36-3.01-0.59-2.75-2.66c0.42-3.29,0.93-6.57,1.41-9.85c0.13-0.92,0.57-1.5,1.61-1.47c0.89,0.02,1.94-0.79,2.57-0.22
		c0.59,0.54-0.1,1.62-0.14,2.48c-0.08,1.63-0.41,3.24-0.63,4.86c-0.08,0.59-0.16,1.18-0.14,1.77c0.04,1.06,0.8,1.68,1.82,1.52
		c1.57-0.24,3.13-0.53,4.7-0.78c1.28-0.2,1.87-0.95,1.99-2.22c0.25-2.81,0.56-5.61,0.82-8.41c0.06-0.62,0.38-0.89,0.97-0.9
		c0.59-0.01,1.23,0.09,1.77-0.09C60.4,48.25,60.72,48.7,60.57,49.82z"/>
	<path class="st24" d="M48.97,59.87c-0.58,0.19-0.84-0.08-0.72-0.93c0.73-5.34,1.44-10.68,2.11-16.03c0.09-0.72,0.3-1.07,1.04-1.14
		c1.27-0.12,2.54-0.31,3.81-0.48c0.73-0.1,1.07,0.08,0.97,0.93c-0.58,5.18-1.14,10.36-1.67,15.54c-0.1,0.97-0.44,1.44-1.51,1.49
		C51.73,59.32,50.47,59.63,48.97,59.87z"/>
	<path class="st60" d="M108.38,49.42c-0.07-0.7,0.15-1,0.93-0.88c3.59,0.55,7.19,1.05,10.79,1.56c0.83,0.12,1.73,1.71,1.38,2.44
		c-0.22,0.44-0.63,0.35-0.96,0.26c-2.12-0.57-4.32-0.56-6.46-1c-0.84-0.17-1.44-0.06-1.28,1.09c0.23,1.66,0.41,3.34,0.51,5.01
		c0.08,1.33,0.64,2.16,1.98,2.39c3.23,0.55,6.45,1.1,9.68,1.62c1.5,0.24,2.33,1.32,2.08,2.77c-0.11,0.59-0.43,0.41-0.8,0.34
		c-3.23-0.54-6.45-1.09-9.68-1.59c-1.34-0.21-2.72-0.24-4.02-0.7c-2.23-0.79-3.21-2.26-3.36-4.62
		C108.97,55.21,108.65,52.32,108.38,49.42z"/>
	<path class="st61" d="M69.64,51.19c0.18,1.71-0.35,3.64-0.31,5.61c0.03,1.24,0.63,1.8,1.73,1.81c1.64,0.01,3.27,0.12,4.91-0.21
		c1.16-0.23,1.63-0.79,1.65-1.94c0.03-1.97,0.05-1.97,1.94-1.97c2.43,0,2.39,0,2.43,2.52c0.05,3.01-1.62,4.13-4.04,4.32
		c-3.09,0.25-6.19,0.27-9.29,0.32c-2.93,0.06-3.86-0.87-3.67-3.72c0.2-2.99,0.54-5.98,0.73-8.97c0.06-0.97,0.53-1.14,1.32-1.06
		c0.05,0,0.09-0.01,0.14,0c0.85,0.21,1.94-0.73,2.45-0.03c0.4,0.54,0.04,1.65,0.01,2.5C69.63,50.57,69.64,50.75,69.64,51.19z"/>
	<path class="st56" d="M86.96,51.72c0-0.89-0.01-1.44,0-1.99c0.03-2.76-0.36-2.27,2.41-2.41c1.43-0.07,1.75,0.4,1.73,1.76
		c-0.04,2.55,0.15,5.11,0.24,7.66c0.04,0.98,0.58,1.42,1.51,1.63c1.72,0.39,3.46,0.25,5.19,0.23c1.22-0.01,1.56-0.87,1.55-1.97
		c-0.01-1.94,0.01-1.95,1.93-1.62c0.67,0.11,1.65-0.29,1.95,0.25c0.41,0.74,0.42,1.74,0.48,2.64c0.05,0.89,0.23,1.85-0.41,2.65
		c-0.57,0.71-1.27,1.15-2.23,1.12c-3.56-0.11-7.13-0.06-10.67-0.35c-1.95-0.16-3.67-1.45-3.45-3.65
		C87.37,55.57,86.73,53.49,86.96,51.72z"/>
	<path class="st61" d="M119.88,90.63c-0.34,1.55-0.27,3.3-0.77,4.97c-0.42,1.37-1.6,2.09-2.54,2.96c-1.5,1.38-3.02,2.75-4.68,3.97
		c-0.76,0.56-1.34,0.58-2.02-0.03c-1.96-1.77-3.93-3.53-5.9-5.29c-0.71-0.63-0.72-1.13,0.26-1.45c4.99-1.62,9.82-3.62,14.53-5.92
		C119.82,89.32,119.91,89.38,119.88,90.63z"/>
	<path class="st58" d="M90.52,118.8c-1.44,0-2.28-0.85-3.21-1.48c-0.98-0.66-1.83-1.51-2.77-2.22c-0.54-0.41-0.6-0.8-0.28-1.39
		c1.66-3.1,3.1-6.31,4.45-9.55c0.28-0.67,0.64-1.03,1.32-1.2c3.55-0.84,7.04-1.9,10.4-3.33c0.79-0.34,1.25,0.05,1.68,0.47
		c1.83,1.79,3.71,3.51,5.71,5.11c0.5,0.4,0.56,0.83,0.29,1.44c-1.02,2.3-2,4.61-3.28,6.77c-0.18,0.31-0.39,0.67-0.68,0.83
		C99.84,116.64,95.16,117.94,90.52,118.8z"/>
	<path class="st62" d="M53.48,103.13c1.3,0,2.39,0.03,3.47-0.01c0.6-0.02,0.92,0.31,1.2,0.74c2.47,3.83,5.16,7.48,8.27,10.82
		c0.8,0.86,0.39,2,0.46,3.32C60.81,114.35,56.53,109.44,53.48,103.13z"/>
	<path class="st63" d="M128.56,74.73c1.24,0.27,2.49,0.52,3.73,0.82c0.46,0.11,0.91,0.43,0.74,0.97c-0.17,0.52-0.69,0.29-1.06,0.22
		c-1.16-0.23-2.31-0.52-3.47-0.74c-0.55-0.11-0.61-0.49-0.62-0.91C127.87,74.51,128.26,74.76,128.56,74.73z"/>
	<path class="st64" d="M128.05,71.97c1.19,0.25,2.32,0.45,3.43,0.72c0.45,0.11,0.91,0.39,0.74,0.96c-0.16,0.51-0.59,0.25-0.93,0.19
		c-1.07-0.21-2.15-0.45-3.23-0.62c-0.58-0.1-0.58-0.56-0.61-0.92C127.39,71.7,127.86,72.04,128.05,71.97z"/>
	<path class="st65" d="M56.96,72.03c0.04-1.96,0.33-2.26,2.29-2.47c0.63-0.07,1.27-0.15,1.9-0.23c1.14-0.16,1.43,0.42,1.35,1.45
		c-0.16,2.07-0.35,2.27-2.44,2.46c-0.55,0.05-1.09,0.14-1.63,0.19C57.05,73.54,56.93,73.42,56.96,72.03z"/>
	<path class="st66" d="M68.41,70.67c-0.23-0.01-0.8,0.22-0.71-0.58c0.07-0.59-0.2-1.35,0.87-1.32c0.96,0.02,1.91-0.06,2.87-0.08
		c0.47-0.01,0.95-0.01,0.94,0.67c-0.01,0.61-0.19,1.07-0.92,1.11C70.51,70.52,69.56,70.59,68.41,70.67z"/>
	<path class="st62" d="M81.74,27.81c1.67-2.56,1.04-4.35-1.7-5.42c0.08-0.1,0.17-0.2,0.25-0.3c0.51,0,1.03,0,1.54,0
		c2.07,0,2.08,0,2.61-2.04c0.09-0.35,0.13-0.7,0.52-1.14c0,1.98,0,3.77,0,5.56c0.66-2.8,2.65-2.63,4.97-2.24
		c-0.77,0.57-1.37,1.12-2.06,1.5c-0.8,0.44-0.9,0.97-0.61,1.78c0.26,0.7,0.71,1.36,0.72,2.28c-0.73-0.15-1.24-0.52-1.65-0.97
		c-0.85-0.93-1.65-0.89-2.54-0.08c-0.46,0.42-1,0.75-1.5,1.12C82.11,27.84,81.92,27.83,81.74,27.81z"/>
	<path class="st67" d="M50.57,70.67c0.49,0.01,1.06-0.2,1.18,0.44c0.13,0.66-0.16,1.18-0.85,1.33c-0.84,0.18-1.68,0.34-2.54,0.45
		c-0.37,0.04-0.99,0.39-0.99-0.43c0-0.57-0.11-1.26,0.71-1.41C48.93,70.89,49.78,70.79,50.57,70.67z"/>
</g>
</svg>
