<?xml version="1.0" encoding="utf-8"?>
<!-- Generator: Adobe Illustrator 24.0.1, SVG Export Plug-In . SVG Version: 6.00 Build 0)  -->
<svg version="1.1" id="Layer_1" xmlns="http://www.w3.org/2000/svg" xmlns:xlink="http://www.w3.org/1999/xlink" x="0px" y="0px"
	 viewBox="0 0 120.8 68.2" style="enable-background:new 0 0 120.8 68.2;" xml:space="preserve">
<style type="text/css">
	.st0{fill:#FFFFFF;}
</style>
<g>
	<path class="st0" d="M126.6-144.3c-0.2,0-0.4,0-0.5,0c-63.9-9.8-116.7-2.6-131.4-0.1c-1,0.2-2-0.1-2.8-0.8s-1.2-1.6-1.2-2.7v-8.6
		c0-0.9-0.4-1.8-1.2-2.3c-0.8-0.6-1.7-0.7-2.6-0.4l-11.8,3.7c-1.3,0.4-2.8,0-3.7-1.1l-5-6c-0.7-0.8-1-1.9-0.7-3l10.2-46.9
		c0.3-1.6,1.8-2.7,3.4-2.7h154.1c1.7,0,3.1,1.2,3.4,2.8l5.3,27.7c0.2,1,0.9,1.9,1.9,2.2l6.3,2.2c1.1,0.4,2,1.4,2.3,2.6l2.8,12.9
		c0.3,1.2-0.1,2.4-0.9,3.2l-6.5,6.5c-0.9,0.9-2.2,1.2-3.5,0.9l-10.6-3.3c-0.9-0.3-1.8-0.1-2.6,0.4c-0.7,0.6-1.2,1.4-1.2,2.3v7
		c0,1-0.4,2-1.2,2.6C128.3-144.6,127.5-144.3,126.6-144.3z M59.6-149.9c19.6,0,42.3,1.3,66.6,5c0.8,0.1,1.7-0.1,2.3-0.7
		c0.6-0.6,1-1.4,1-2.2v-7c0-1.1,0.5-2.1,1.4-2.8s2-0.9,3.1-0.5l10.5,3.2c1,0.3,2.1,0,2.9-0.7l6.5-6.5c0.7-0.7,1-1.7,0.8-2.7
		l-2.8-12.9c-0.2-1-0.9-1.8-1.9-2.1l-6.3-2.2c-1.2-0.4-2-1.4-2.3-2.6l-5.3-27.7c-0.3-1.4-1.5-2.4-2.9-2.4H-20.7
		c-1.4,0-2.6,1-2.8,2.3l-10.3,46.9c-0.2,0.9,0,1.8,0.6,2.5l5,6c0.8,0.9,2,1.3,3.1,0.9l11.8-3.7c1.1-0.3,2.2-0.1,3.1,0.5
		c0.9,0.7,1.4,1.7,1.4,2.8v8.6c0,0.9,0.4,1.7,1,2.2c0.7,0.6,1.5,0.8,2.4,0.6C3.7-146.5,27.6-149.9,59.6-149.9z"/>
</g>
<g>
	<g>
		<g>
			<path d="M-23.8-170c2.4-12.8,4.8-25.7,7.2-38.5c0.2-0.9,1-1.6,1.8-1.6c3.5,0,7,0,10.6,0c0.8,0,1.4,0.7,1.3,1.5
				c-0.1,0.7-0.2,1.5-0.4,2.2c-0.1,0.8-0.9,1.5-1.8,1.5c-1.5,0-3.1,0.1-4.6,0.1c-0.8,0-1.7,0.7-1.8,1.6c-0.5,2.6-0.9,5.1-1.4,7.7
				c-0.2,0.9,0.4,1.5,1.3,1.4c1.4-0.1,2.8-0.2,4.1-0.3c0.9-0.1,1.5,0.6,1.3,1.4c-0.1,0.7-0.2,1.5-0.4,2.2c-0.1,0.8-1,1.6-1.9,1.6
				c-1.4,0.1-2.8,0.3-4.2,0.4c-0.9,0.1-1.7,0.8-1.9,1.7c-0.9,5.3-1.9,10.6-2.8,15.9c-0.2,0.9-1,1.7-1.9,1.8
				c-1.1,0.2-2.2,0.4-3.3,0.6C-23.3-168.5-24-169.1-23.8-170z"/>
		</g>
		<g>
			<path d="M4.6-172.4c-2.3,0.3-4.1,0.1-5.4-0.5c-1.3-0.6-2.2-1.7-2.6-3.3c-0.4-1.6-0.4-3.6,0-6c0.9-5.9,1.9-11.8,2.8-17.6
				c0.4-2.2,1-4.1,1.8-5.7c0.9-1.6,2-2.8,3.4-3.6c1.5-1,3.3-1.4,5.4-1.4c1.6,0,2.9,0.2,3.9,0.7s1.8,1.1,2.4,2
				c0.6,0.9,0.9,1.9,1.1,3.1c0.2,1.2,0.2,2.6,0,4.2c-0.7,5.5-1.3,11-2,16.6c-0.3,2.3-0.8,4.3-1.7,5.9c-0.8,1.6-2,2.9-3.5,3.9
				C8.7-173.3,6.8-172.7,4.6-172.4z M5.3-177.3c0.8-0.1,1.5-0.4,1.9-0.8c0.5-0.5,0.8-1.1,1.1-2c0.3-0.9,0.5-2,0.6-3.3
				c0.8-5.7,1.6-11.5,2.3-17.2c0.2-1.6,0.2-2.8,0-3.7c-0.2-0.9-0.9-1.3-1.9-1.3c-1.1,0-1.9,0.5-2.4,1.3c-0.5,0.9-0.9,2.1-1.2,3.8
				c-0.9,5.9-1.7,11.7-2.6,17.6c-0.2,1.4-0.3,2.5-0.3,3.3c0,0.9,0.2,1.5,0.6,1.8C3.8-177.4,4.4-177.2,5.3-177.3z"/>
		</g>
		<g>
			<path d="M29.4-174.8c-2.3,0.2-4.1-0.1-5.5-0.7c-1.4-0.7-2.3-1.7-2.8-3.2s-0.6-3.4-0.4-5.6c0.6-5.4,1.2-10.9,1.8-16.3
				c0.2-2.1,0.7-3.8,1.5-5.3s1.8-2.6,3.2-3.4c1.4-0.9,3.2-1.2,5.3-1.2c1.6,0,2.9,0.2,4,0.6c1.1,0.4,1.9,1.1,2.5,1.9s1.1,1.8,1.3,3
				c0.2,1.2,0.3,2.5,0.2,4c-0.3,5.2-0.6,10.5-0.9,15.7c-0.1,2.2-0.6,4-1.3,5.6c-0.7,1.5-1.8,2.7-3.3,3.5
				C33.6-175.5,31.7-175,29.4-174.8z M29.8-179.4c0.8,0,1.5-0.3,1.9-0.7c0.4-0.4,0.8-1,1-1.9c0.2-0.8,0.3-1.8,0.4-3.1
				c0.4-5.4,0.8-10.8,1.2-16.2c0.1-1.5,0-2.7-0.2-3.5c-0.3-0.8-0.9-1.2-2-1.2s-1.9,0.4-2.4,1.2s-0.8,2-0.9,3.6
				c-0.5,5.5-1,10.9-1.5,16.4c-0.1,1.3-0.1,2.3-0.1,3.1c0.1,0.8,0.3,1.4,0.7,1.8C28.3-179.5,29-179.4,29.8-179.4z"/>
		</g>
		<g>
			<path d="M47.5-177.4c0.3-9,0.6-18,1-27c0-0.7-0.6-1.3-1.5-1.3c-0.5,0-1.1,0-1.6,0c-0.9,0-1.5-0.6-1.5-1.3c0-0.6,0.1-1.3,0.1-1.9
				c0-0.7,0.7-1.3,1.6-1.3c4,0,8,0,12.1,0c0.8,0,1.5,0.6,1.5,1.3c0,0.6,0,1.2,0,1.9s-0.7,1.3-1.5,1.3c-0.5,0-1,0-1.4,0
				c-0.9,0-1.6,0.6-1.6,1.3c-0.3,9-0.4,17.9-0.6,26.9c0,0.7-0.8,1.3-1.7,1.3c-1.1,0-2.2,0-3.3,0.1C48.2-176.1,47.4-176.6,47.5-177.4
				z"/>
		</g>
		<g>
			<path d="M62.8-177.5c-0.1-10.4-0.2-20.9-0.3-31.3c0-0.7,0.7-1.3,1.5-1.3c2.4,0,4.7,0,7.1,0c2,0,3.6,0.3,4.8,0.8
				c1.2,0.5,2.1,1.4,2.7,2.5c0.6,1.1,1,2.6,1.1,4.5c0,0.4,0,0.7,0.1,1.1c0.1,1.8-0.1,3.3-0.6,4.4c-0.2,0.5-0.6,1-1,1.4
				c-0.6,0.5-0.5,1.4,0.2,1.9c0.3,0.2,0.6,0.5,0.8,0.8c0.7,0.8,1.2,1.7,1.6,2.9c0.4,1.1,0.6,2.4,0.7,3.7c0,0.3,0,0.6,0.1,0.9
				c0.1,2.3-0.1,4.2-0.7,5.6c-0.6,1.4-1.5,2.4-2.9,3c-1.4,0.6-3.2,0.9-5.5,0.8c-2.7-0.1-5.3-0.1-8-0.2
				C63.5-176.2,62.8-176.8,62.8-177.5z M68.9-197.7c0,0.7,0.7,1.3,1.6,1.3c0.2,0,0.5,0,0.7,0c0.5,0,1-0.1,1.3-0.2
				c0.3-0.1,0.6-0.3,0.8-0.7c0.2-0.3,0.3-0.8,0.3-1.3c0-0.6,0.1-1.3,0-2.2c0-0.7-0.1-1.4-0.1-2.1c0-0.9-0.2-1.6-0.4-2.1
				c-0.2-0.5-0.5-0.8-0.9-1s-0.9-0.3-1.6-0.3c-0.2,0-0.3,0-0.5,0c-0.8,0-1.5,0.6-1.5,1.3C68.7-202.4,68.8-200,68.9-197.7z
				 M69.3-181.5c0,0.7,0.8,1.3,1.7,1.3c0.2,0,0.5,0,0.7,0c0.9,0,1.6-0.1,2.1-0.4c0.5-0.3,0.9-0.8,1.1-1.5c0.2-0.7,0.3-1.7,0.2-2.9
				c0-0.9-0.1-1.8-0.1-2.8c-0.1-1.7-0.3-2.9-0.7-3.6c-0.4-0.8-1.2-1.2-2.5-1.2c-0.4,0-0.7,0-1.1,0c-0.9,0-1.6,0.6-1.6,1.3
				C69.1-187.9,69.2-184.7,69.3-181.5z"/>
		</g>
		<g>
			<path d="M84.9-177.1c1.2-10.5,2.2-21.2,3-31.9c0.1-0.7,0.7-1.2,1.4-1.1c1.8,0,3.6,0,5.3,0c0.8,0,1.4,0.5,1.6,1.2
				c3,11,6.3,22.1,9.7,33.5c0.3,0.9-0.4,1.5-1.5,1.4c-0.9-0.1-1.9-0.2-2.8-0.3c-0.8-0.1-1.6-0.6-1.8-1.3c-0.4-1.3-0.7-2.7-1.1-4
				c-0.2-0.7-0.9-1.2-1.8-1.3c-1.3-0.1-2.7-0.2-4-0.3c-0.8-0.1-1.5,0.4-1.5,1.1c-0.1,1.3-0.2,2.6-0.2,3.8c0,0.7-0.7,1.1-1.6,1.1
				c-1-0.1-2-0.1-3-0.2C85.6-175.5,84.8-176.3,84.9-177.1z M93.6-185.5c0.6,0,1.2,0.1,1.9,0.1c1,0.1,1.7-0.6,1.5-1.4
				c-1.4-5.5-2.8-10.9-4.2-16.3h-0.1c-0.2,5.4-0.5,10.7-0.8,16.1C91.8-186.3,92.6-185.5,93.6-185.5z"/>
		</g>
		<g>
			<path d="M110.2-174.8c-1.5-11.3-3-22.6-4.5-33.9c-0.1-0.8,0.5-1.4,1.3-1.4c1,0,2,0,3,0c0.8,0,1.6,0.6,1.7,1.4
				c1.4,9.9,2.9,19.8,4.3,29.7c0.1,0.8,0.9,1.5,1.9,1.6c1.7,0.2,3.3,0.4,5,0.6c0.9,0.1,1.8,0.9,1.9,1.7c0.1,0.7,0.2,1.4,0.3,2
				c0.1,0.8-0.5,1.4-1.4,1.2c-3.9-0.6-7.8-1.1-11.7-1.5C111.1-173.3,110.3-174,110.2-174.8z"/>
		</g>
		<g>
			<path d="M128.8-172.4c-2-12-4-24.1-6-36.1c-0.1-0.8,0.4-1.5,1.3-1.5c1,0,2,0,3,0c0.8,0,1.6,0.7,1.8,1.5
				c1.9,10.6,3.8,21.3,5.6,31.9c0.1,0.9,1,1.7,1.9,1.8c1.7,0.3,3.3,0.5,5,0.8c0.9,0.1,1.8,1,1.9,1.9c0.1,0.7,0.3,1.5,0.4,2.2
				c0.2,0.9-0.4,1.5-1.4,1.3c-3.9-0.7-7.8-1.4-11.6-2C129.7-170.8,128.9-171.6,128.8-172.4z"/>
		</g>
	</g>
	<g>
		<g>
			<path class="st0" d="M-22.7-163.7c-1.2,0-2.3-0.4-3.2-1.3c-1-1-1.5-2.5-1.2-4l7.2-38.5c0.5-2.5,2.7-4.4,5.1-4.4h10.6
				c1.4,0,2.7,0.6,3.6,1.6c0.9,1,1.3,2.4,1,3.8L0-204.3c-0.4,2.4-2.6,4.3-5,4.4c-1.1,0-2.2,0.1-3.4,0.1l-0.7,3.8
				c0.5,0,0.9-0.1,1.4-0.1c1.5-0.1,2.9,0.4,3.8,1.5c0.9,1,1.3,2.4,1.1,3.8l-0.4,2.2c-0.4,2.4-2.4,4.2-4.9,4.5
				c-1.1,0.1-2.1,0.2-3.2,0.3l-2.7,14.9c-0.4,2.2-2.4,4.2-4.7,4.6c-1.1,0.2-2.2,0.4-3.3,0.6C-22.1-163.7-22.4-163.7-22.7-163.7z
				 M-23.8-168.4L-23.8-168.4L-23.8-168.4z M-23-170.4L-23-170.4L-23-170.4z M-12.2-183.7L-12.2-183.7L-12.2-183.7z M-15.9-191.9
				l-0.7,3.5c0.6-0.7,1.3-1.2,2.1-1.6c-0.2-0.2-0.4-0.3-0.6-0.5C-15.4-191-15.7-191.4-15.9-191.9z M-11.8-195.8L-11.8-195.8
				L-11.8-195.8z M-9.5-199.8C-9.5-199.8-9.6-199.8-9.5-199.8C-9.6-199.8-9.5-199.8-9.5-199.8z M-13.4-205.1l-0.1,0.3
				c0.1-0.1,0.2-0.2,0.3-0.3H-13.4z M-14.7-205.1L-14.7-205.1L-14.7-205.1z"/>
		</g>
		<g>
			<path class="st0" d="M2.6-167.3c-1.9,0-3.5-0.3-4.9-1c-2.2-1.1-3.7-3-4.3-5.5c-0.5-2-0.6-4.5-0.1-7.4l2.8-17.6
				c0.4-2.6,1.1-4.9,2.2-6.8c1.2-2.1,2.7-3.8,4.7-4.9c1.9-1.1,4.3-1.7,7-1.7l0,0c2,0,3.8,0.3,5.3,1c1.6,0.7,2.9,1.8,3.9,3.2
				c0.9,1.3,1.4,2.8,1.6,4.6c0.2,1.5,0.2,3.2,0,5l-2,16.6c-0.3,2.7-1,5.1-2,7c-1.1,2.2-2.7,3.9-4.7,5.2c-1.9,1.2-4.3,2-7.1,2.4
				C4.1-167.4,3.3-167.3,2.6-167.3z M0-175.2c0.1,0.2,0.1,0.3,0.2,0.4C0.2-174.9,0.1-175,0-175.2z M5.3-175.7L5.3-175.7L5.3-175.7z"
				/>
		</g>
		<g>
			<path class="st0" d="M28.1-169.8c-2.2,0-4.1-0.4-5.7-1.1c-2.2-1.1-3.7-2.8-4.5-5.2c-0.7-2-0.9-4.3-0.6-7.1l1.9-16.3
				c0.3-2.5,0.9-4.6,1.8-6.5c1.1-2,2.6-3.6,4.6-4.8c1.9-1.1,4.2-1.6,6.9-1.6l0,0c2,0,3.8,0.3,5.2,0.9c1.6,0.7,3,1.6,3.9,2.9
				c0.9,1.2,1.6,2.7,1.9,4.3c0.3,1.5,0.4,3.1,0.3,4.9l-0.9,15.7c-0.2,2.6-0.7,4.9-1.6,6.8c-1,2.1-2.6,3.8-4.7,5
				c-1.9,1.1-4.3,1.7-7.1,1.9l0,0C29.1-169.8,28.6-169.8,28.1-169.8z M29.4-173.2L29.4-173.2L29.4-173.2z M30.6-180.2L30.6-180.2
				L30.6-180.2z"/>
		</g>
		<g>
			<path class="st0" d="M49.1-171.1c-1.4,0-2.7-0.5-3.7-1.5c-0.9-0.9-1.3-2.1-1.3-3.3l0.9-24.8c-1.2-0.1-2.4-0.6-3.3-1.5
				c-0.9-0.9-1.3-2.1-1.3-3.4l0.1-1.9c0.1-2.5,2.3-4.5,5-4.5h12.1c1.3,0,2.6,0.5,3.5,1.4c0.9,0.9,1.4,2,1.4,3.2v1.9
				c0,2.5-2,4.5-4.6,4.7l-0.4,24.9c0,2.6-2.3,4.6-5,4.7C51.4-171.2,50.3-171.2,49.1-171.1C49.1-171.1,49.1-171.1,49.1-171.1z
				 M50.9-175.6L50.9-175.6L50.9-175.6L50.9-175.6z M47.5-175.8L47.5-175.8L47.5-175.8z M50.7-176L50.7-176L50.7-176z M51.1-205.2
				c0.1,0.2,0.3,0.5,0.4,0.7c0.1-0.3,0.2-0.5,0.4-0.7H51.1z M45.3-207.4L45.3-207.4L45.3-207.4z"/>
		</g>
		<g>
			<path class="st0" d="M73.1-171.1c-0.2,0-0.5,0-0.8,0c-2.6-0.1-5.3-0.1-8-0.1c-2.8,0-5-2.1-5-4.7L59-207.2c0-1.2,0.5-2.4,1.3-3.3
				c0.9-0.9,2.2-1.5,3.6-1.5H71c2.5,0,4.5,0.4,6.2,1.1c1.9,0.8,3.4,2.2,4.4,4c0.8,1.6,1.3,3.5,1.5,5.9l0.1,1.1
				c0.1,2.3-0.1,4.3-0.8,5.9c-0.1,0.2-0.2,0.5-0.3,0.7c0.9,1.1,1.6,2.4,2.1,3.9c0.4,1.4,0.7,2.9,0.8,4.5l0.1,0.9
				c0.2,2.9-0.1,5.2-0.9,7c-0.9,2.2-2.5,3.9-4.7,4.9C77.6-171.4,75.6-171.1,73.1-171.1z M66.1-175.9L66.1-175.9L66.1-175.9z
				 M66.1-176L66.1-176L66.1-176z M66.1-178c0.1,0,0.2,0,0.2,0c-0.1-0.2-0.2-0.4-0.2-0.6V-178z M72.7-179.9L72.7-179.9L72.7-179.9
				L72.7-179.9z M66-194v2.7c0.2-0.5,0.5-1,0.9-1.4C66.6-193.1,66.2-193.6,66-194z M80.5-191.4L80.5-191.4L80.5-191.4z M72.2-196.2
				L72.2-196.2L72.2-196.2z M70.3-197L70.3-197L70.3-197z M70.2-201.1L70.2-201.1L70.2-201.1z"/>
		</g>
		<g>
			<path class="st0" d="M104.7-169c-0.2,0-0.4,0-0.5,0c-0.9-0.1-1.8-0.2-2.8-0.3c-2.2-0.2-4.2-1.8-4.7-3.8c-0.3-1-0.5-1.9-0.8-2.9
				c-0.4,0-0.8-0.1-1.1-0.1c0,0.5-0.1,1.1-0.1,1.6c-0.1,1.2-0.6,2.3-1.5,3c-1,0.9-2.3,1.3-3.7,1.2c-1-0.1-2-0.1-3-0.2
				c-1.5-0.1-2.9-0.8-3.8-1.9c-0.8-1-1.2-2.2-1.1-3.5c1.2-10.5,2.2-21.2,3-31.8c0.2-2.4,2.2-4.3,4.8-4.3l0,0h5.3
				c2.3,0,4.3,1.5,4.9,3.6c3,10.7,6.2,21.9,9.6,33.4c0.4,1.4,0.1,3-0.8,4.1C107.5-169.7,106.1-169,104.7-169z M102.7-172.9
				L102.7-172.9L102.7-172.9z M88.2-175.1L88.2-175.1L88.2-175.1z M84.9-175.5L84.9-175.5L84.9-175.5z M104.8-175.8L104.8-175.8
				L104.8-175.8z M89.1-183.1c-0.1,0.7-0.1,1.4-0.2,2.1c0.3-0.4,0.6-0.7,1-1c-0.1-0.1-0.1-0.1-0.2-0.2
				C89.5-182.6,89.3-182.8,89.1-183.1z M99.4-182.2c0.2,0.1,0.4,0.2,0.7,0.4c-0.1-0.3-0.2-0.6-0.3-1
				C99.7-182.5,99.5-182.3,99.4-182.2z M95.2-185.3L95.2-185.3L95.2-185.3z M91.1-205.1c0,0.2,0,0.4,0,0.6c0.5-0.3,1.1-0.4,1.7-0.4
				c0.2,0,0.5,0,0.7,0.1c0-0.1-0.1-0.2-0.1-0.3H91.1z"/>
		</g>
		<g>
			<path class="st0" d="M124-166.7c-0.2,0-0.5,0-0.7-0.1c-3.9-0.5-7.8-1.1-11.6-1.5c-2.5-0.3-4.5-2.2-4.8-4.5l-4.5-33.9
				c-0.2-1.3,0.2-2.6,1.1-3.6c0.9-1,2.2-1.6,3.6-1.6l0,0h3c2.5,0,4.7,1.9,5.1,4.3l4.2,28.6c1.4,0.2,2.7,0.3,4.1,0.5
				c2.4,0.3,4.4,2.2,4.8,4.5l0.3,2c0.2,1.4-0.2,2.8-1.2,3.8C126.5-167.2,125.3-166.7,124-166.7z M121.8-170.8L121.8-170.8
				L121.8-170.8z M113.5-173.7L113.5-173.7L113.5-173.7L113.5-173.7z M113.4-174.9h0.1c-0.1-0.1-0.1-0.2-0.1-0.2V-174.9z
				 M119.5-177.8L119.5-177.8L119.5-177.8z M110.1-205.1L110.1-205.1L110.1-205.1z"/>
		</g>
		<g>
			<path class="st0" d="M142.6-163.7c-0.3,0-0.6,0-0.9-0.1c-3.8-0.7-7.7-1.4-11.6-2c-2.4-0.4-4.4-2.3-4.7-4.5l-6-36.1
				c-0.2-1.4,0.1-2.8,1-3.8s2.2-1.6,3.6-1.6l0,0h3c2.5,0,4.7,1.9,5.1,4.3l5.5,31.1c1.4,0.2,2.8,0.4,4.3,0.7c2.3,0.4,4.3,2.3,4.7,4.6
				l0.4,2.2c0.3,1.5-0.1,3-1.2,4C145-164.1,143.9-163.7,142.6-163.7z M140.8-169.1L140.8-169.1L140.8-169.1z M132.1-171.4
				L132.1-171.4L132.1-171.4z M131.9-172.3C132-172.3,132-172.3,131.9-172.3L131.9-172.3L131.9-172.3z M137.8-175.6L137.8-175.6
				L137.8-175.6z M127-205.1L127-205.1L127-205.1z"/>
		</g>
	</g>
	<g>
		<g>
			<path d="M-23.8-170c2.4-12.8,4.8-25.7,7.2-38.5c0.2-0.9,1-1.6,1.8-1.6c3.5,0,7,0,10.6,0c0.8,0,1.4,0.7,1.3,1.5
				c-0.1,0.7-0.2,1.5-0.4,2.2c-0.1,0.8-0.9,1.5-1.8,1.5c-1.5,0-3.1,0.1-4.6,0.1c-0.8,0-1.7,0.7-1.8,1.6c-0.5,2.6-0.9,5.1-1.4,7.7
				c-0.2,0.9,0.4,1.5,1.3,1.4c1.4-0.1,2.8-0.2,4.1-0.3c0.9-0.1,1.5,0.6,1.3,1.4c-0.1,0.7-0.2,1.5-0.4,2.2c-0.1,0.8-1,1.6-1.9,1.6
				c-1.4,0.1-2.8,0.3-4.2,0.4c-0.9,0.1-1.7,0.8-1.9,1.7c-0.9,5.3-1.9,10.6-2.8,15.9c-0.2,0.9-1,1.7-1.9,1.8
				c-1.1,0.2-2.2,0.4-3.3,0.6C-23.3-168.5-24-169.1-23.8-170z"/>
		</g>
		<g>
			<path d="M4.6-172.4c-2.3,0.3-4.1,0.1-5.4-0.5c-1.3-0.6-2.2-1.7-2.6-3.3c-0.4-1.6-0.4-3.6,0-6c0.9-5.9,1.9-11.8,2.8-17.6
				c0.4-2.2,1-4.1,1.8-5.7c0.9-1.6,2-2.8,3.4-3.6c1.5-1,3.3-1.4,5.4-1.4c1.6,0,2.9,0.2,3.9,0.7s1.8,1.1,2.4,2
				c0.6,0.9,0.9,1.9,1.1,3.1c0.2,1.2,0.2,2.6,0,4.2c-0.7,5.5-1.3,11-2,16.6c-0.3,2.3-0.8,4.3-1.7,5.9c-0.8,1.6-2,2.9-3.5,3.9
				C8.7-173.3,6.8-172.7,4.6-172.4z M5.3-177.3c0.8-0.1,1.5-0.4,1.9-0.8c0.5-0.5,0.8-1.1,1.1-2c0.3-0.9,0.5-2,0.6-3.3
				c0.8-5.7,1.6-11.5,2.3-17.2c0.2-1.6,0.2-2.8,0-3.7c-0.2-0.9-0.9-1.3-1.9-1.3c-1.1,0-1.9,0.5-2.4,1.3c-0.5,0.9-0.9,2.1-1.2,3.8
				c-0.9,5.9-1.7,11.7-2.6,17.6c-0.2,1.4-0.3,2.5-0.3,3.3c0,0.9,0.2,1.5,0.6,1.8C3.8-177.4,4.4-177.2,5.3-177.3z"/>
		</g>
		<g>
			<path d="M29.4-174.8c-2.3,0.2-4.1-0.1-5.5-0.7c-1.4-0.7-2.3-1.7-2.8-3.2s-0.6-3.4-0.4-5.6c0.6-5.4,1.2-10.9,1.8-16.3
				c0.2-2.1,0.7-3.8,1.5-5.3s1.8-2.6,3.2-3.4c1.4-0.9,3.2-1.2,5.3-1.2c1.6,0,2.9,0.2,4,0.6c1.1,0.4,1.9,1.1,2.5,1.9s1.1,1.8,1.3,3
				c0.2,1.2,0.3,2.5,0.2,4c-0.3,5.2-0.6,10.5-0.9,15.7c-0.1,2.2-0.6,4-1.3,5.6c-0.7,1.5-1.8,2.7-3.3,3.5
				C33.6-175.5,31.7-175,29.4-174.8z M29.8-179.4c0.8,0,1.5-0.3,1.9-0.7c0.4-0.4,0.8-1,1-1.9c0.2-0.8,0.3-1.8,0.4-3.1
				c0.4-5.4,0.8-10.8,1.2-16.2c0.1-1.5,0-2.7-0.2-3.5c-0.3-0.8-0.9-1.2-2-1.2s-1.9,0.4-2.4,1.2s-0.8,2-0.9,3.6
				c-0.5,5.5-1,10.9-1.5,16.4c-0.1,1.3-0.1,2.3-0.1,3.1c0.1,0.8,0.3,1.4,0.7,1.8C28.3-179.5,29-179.4,29.8-179.4z"/>
		</g>
		<g>
			<path d="M47.5-177.4c0.3-9,0.6-18,1-27c0-0.7-0.6-1.3-1.5-1.3c-0.5,0-1.1,0-1.6,0c-0.9,0-1.5-0.6-1.5-1.3c0-0.6,0.1-1.3,0.1-1.9
				c0-0.7,0.7-1.3,1.6-1.3c4,0,8,0,12.1,0c0.8,0,1.5,0.6,1.5,1.3c0,0.6,0,1.2,0,1.9s-0.7,1.3-1.5,1.3c-0.5,0-1,0-1.4,0
				c-0.9,0-1.6,0.6-1.6,1.3c-0.3,9-0.4,17.9-0.6,26.9c0,0.7-0.8,1.3-1.7,1.3c-1.1,0-2.2,0-3.3,0.1C48.2-176.1,47.4-176.6,47.5-177.4
				z"/>
		</g>
		<g>
			<path d="M62.8-177.5c-0.1-10.4-0.2-20.9-0.3-31.3c0-0.7,0.7-1.3,1.5-1.3c2.4,0,4.7,0,7.1,0c2,0,3.6,0.3,4.8,0.8
				c1.2,0.5,2.1,1.4,2.7,2.5c0.6,1.1,1,2.6,1.1,4.5c0,0.4,0,0.7,0.1,1.1c0.1,1.8-0.1,3.3-0.6,4.4c-0.2,0.5-0.6,1-1,1.4
				c-0.6,0.5-0.5,1.4,0.2,1.9c0.3,0.2,0.6,0.5,0.8,0.8c0.7,0.8,1.2,1.7,1.6,2.9c0.4,1.1,0.6,2.4,0.7,3.7c0,0.3,0,0.6,0.1,0.9
				c0.1,2.3-0.1,4.2-0.7,5.6c-0.6,1.4-1.5,2.4-2.9,3c-1.4,0.6-3.2,0.9-5.5,0.8c-2.7-0.1-5.3-0.1-8-0.2
				C63.5-176.2,62.8-176.8,62.8-177.5z M68.9-197.7c0,0.7,0.7,1.3,1.6,1.3c0.2,0,0.5,0,0.7,0c0.5,0,1-0.1,1.3-0.2
				c0.3-0.1,0.6-0.3,0.8-0.7c0.2-0.3,0.3-0.8,0.3-1.3c0-0.6,0.1-1.3,0-2.2c0-0.7-0.1-1.4-0.1-2.1c0-0.9-0.2-1.6-0.4-2.1
				c-0.2-0.5-0.5-0.8-0.9-1s-0.9-0.3-1.6-0.3c-0.2,0-0.3,0-0.5,0c-0.8,0-1.5,0.6-1.5,1.3C68.7-202.4,68.8-200,68.9-197.7z
				 M69.3-181.5c0,0.7,0.8,1.3,1.7,1.3c0.2,0,0.5,0,0.7,0c0.9,0,1.6-0.1,2.1-0.4c0.5-0.3,0.9-0.8,1.1-1.5c0.2-0.7,0.3-1.7,0.2-2.9
				c0-0.9-0.1-1.8-0.1-2.8c-0.1-1.7-0.3-2.9-0.7-3.6c-0.4-0.8-1.2-1.2-2.5-1.2c-0.4,0-0.7,0-1.1,0c-0.9,0-1.6,0.6-1.6,1.3
				C69.1-187.9,69.2-184.7,69.3-181.5z"/>
		</g>
		<g>
			<path d="M84.9-177.1c1.2-10.5,2.2-21.2,3-31.9c0.1-0.7,0.7-1.2,1.4-1.1c1.8,0,3.6,0,5.3,0c0.8,0,1.4,0.5,1.6,1.2
				c3,11,6.3,22.1,9.7,33.5c0.3,0.9-0.4,1.5-1.5,1.4c-0.9-0.1-1.9-0.2-2.8-0.3c-0.8-0.1-1.6-0.6-1.8-1.3c-0.4-1.3-0.7-2.7-1.1-4
				c-0.2-0.7-0.9-1.2-1.8-1.3c-1.3-0.1-2.7-0.2-4-0.3c-0.8-0.1-1.5,0.4-1.5,1.1c-0.1,1.3-0.2,2.6-0.2,3.8c0,0.7-0.7,1.1-1.6,1.1
				c-1-0.1-2-0.1-3-0.2C85.6-175.5,84.8-176.3,84.9-177.1z M93.6-185.5c0.6,0,1.2,0.1,1.9,0.1c1,0.1,1.7-0.6,1.5-1.4
				c-1.4-5.5-2.8-10.9-4.2-16.3h-0.1c-0.2,5.4-0.5,10.7-0.8,16.1C91.8-186.3,92.6-185.5,93.6-185.5z"/>
		</g>
		<g>
			<path d="M110.2-174.8c-1.5-11.3-3-22.6-4.5-33.9c-0.1-0.8,0.5-1.4,1.3-1.4c1,0,2,0,3,0c0.8,0,1.6,0.6,1.7,1.4
				c1.4,9.9,2.9,19.8,4.3,29.7c0.1,0.8,0.9,1.5,1.9,1.6c1.7,0.2,3.3,0.4,5,0.6c0.9,0.1,1.8,0.9,1.9,1.7c0.1,0.7,0.2,1.4,0.3,2
				c0.1,0.8-0.5,1.4-1.4,1.2c-3.9-0.6-7.8-1.1-11.7-1.5C111.1-173.3,110.3-174,110.2-174.8z"/>
		</g>
		<g>
			<path d="M128.8-172.4c-2-12-4-24.1-6-36.1c-0.1-0.8,0.4-1.5,1.3-1.5c1,0,2,0,3,0c0.8,0,1.6,0.7,1.8,1.5
				c1.9,10.6,3.8,21.3,5.6,31.9c0.1,0.9,1,1.7,1.9,1.8c1.7,0.3,3.3,0.5,5,0.8c0.9,0.1,1.8,1,1.9,1.9c0.1,0.7,0.3,1.5,0.4,2.2
				c0.2,0.9-0.4,1.5-1.4,1.3c-3.9-0.7-7.8-1.4-11.6-2C129.7-170.8,128.9-171.6,128.8-172.4z"/>
		</g>
	</g>
</g>
<g>
	<g>
		<g>
			<path class="st0" d="M2.8-151c1.1-3.9,2.3-7.8,3.4-11.7c-0.5,0.1-1.1,0.1-1.6,0.2c0.1-0.4,0.3-0.8,0.4-1.3
				c1.6-0.2,3.1-0.4,4.7-0.6c-0.1,0.4-0.2,0.8-0.3,1.3c-0.5,0.1-1,0.1-1.5,0.2c-1.1,3.9-2.2,7.8-3.3,11.7C4-151.1,3.4-151,2.8-151z"
				/>
		</g>
		<g>
			<path class="st0" d="M14.7-152.1c-0.8,0.1-1.3,0-1.7-0.2s-0.6-0.6-0.6-1.2c0-0.6,0-1.3,0.2-2.1c0.5-1.9,0.9-3.8,1.4-5.7
				c0.2-0.7,0.4-1.4,0.7-2c0.3-0.6,0.7-1,1.2-1.4c0.5-0.3,1.1-0.6,1.9-0.6c0.6-0.1,1,0,1.3,0.1c0.3,0.1,0.5,0.4,0.7,0.7
				c0.1,0.3,0.2,0.7,0.2,1.1c0,0.4-0.1,0.9-0.2,1.5c-0.4,1.9-0.8,3.8-1.2,5.7c-0.2,0.9-0.4,1.6-0.7,2.2c-0.3,0.6-0.7,1-1.2,1.4
				C16-152.4,15.4-152.2,14.7-152.1z M15-153.4c0.3,0,0.6-0.1,0.8-0.3s0.4-0.5,0.5-0.8c0.1-0.4,0.3-0.9,0.4-1.5
				c0.4-1.9,0.9-3.9,1.3-5.8c0.2-0.8,0.2-1.3,0.2-1.7c-0.1-0.4-0.3-0.5-0.8-0.5s-0.8,0.3-1.1,0.6c-0.3,0.4-0.5,1-0.7,1.7
				c-0.5,1.9-0.9,3.9-1.4,5.8c-0.2,0.6-0.2,1.1-0.3,1.5c0,0.4,0,0.6,0.2,0.8C14.4-153.5,14.6-153.4,15-153.4z"/>
		</g>
		<g>
			<path class="st0" d="M27.1-153.2c-0.8,0.1-1.3,0-1.7-0.2s-0.6-0.6-0.7-1.1c-0.1-0.5-0.1-1.1,0.1-1.9c0.6-3.2,1.2-6.4,1.7-9.5
				c0.6,0,1.1-0.1,1.7-0.1c-0.5,3.2-1.1,6.3-1.6,9.5c-0.2,0.4-0.2,0.8-0.2,1.1s0,0.6,0.2,0.7c0.1,0.2,0.4,0.2,0.8,0.2
				c0.4,0,0.7-0.1,0.9-0.3c0.2-0.2,0.3-0.4,0.4-0.8c0.1-0.3,0.2-0.7,0.2-1.2c0.5-3.2,1-6.3,1.5-9.5c0.6,0,1.1-0.1,1.7-0.1
				c-0.5,3.2-1,6.3-1.4,9.5c-0.1,0.8-0.3,1.4-0.6,1.9c-0.3,0.5-0.6,0.9-1.1,1.2C28.5-153.4,27.9-153.2,27.1-153.2z"/>
		</g>
		<g>
			<path class="st0" d="M36.8-153.9c0.5-4.3,1-8.5,1.5-12.8c1,0,2-0.1,3-0.1c0.8,0,1.3,0.1,1.6,0.3c0.3,0.2,0.5,0.6,0.6,1.1
				s0.1,1.1,0,1.8c-0.1,0.8-0.2,1.4-0.4,1.9c-0.2,0.5-0.6,0.8-1.2,0.9c0.3,0,0.5,0.1,0.6,0.3c0.2,0.2,0.3,0.4,0.3,0.7
				c0.1,0.3,0.1,0.8,0.1,1.4c0,0.6,0,1.3-0.1,2.1c0,0.1,0,0.2,0,0.4s0,0.3,0,0.5s0,0.4,0,0.5c0,0.2,0,0.3,0,0.5c0,0.1,0,0.2,0,0.3
				c-0.6,0-1.2,0-1.8,0.1c0,0,0-0.1,0-0.3c0-0.1,0-0.3,0-0.6c0-0.2,0-0.5,0.1-0.9c0-0.3,0.1-0.7,0.1-1.1s0.1-0.9,0.1-1.4
				s0.1-0.9,0-1.1c0-0.3-0.1-0.4-0.3-0.5c-0.2-0.1-0.4-0.1-0.8-0.1c-0.3,0-0.7,0-1,0c-0.2,2.1-0.4,4.1-0.7,6.2
				C38-153.9,37.4-153.9,36.8-153.9z M39.4-161.2c0.4,0,0.7,0,1.1,0c0.3,0,0.6-0.1,0.7-0.2c0.2-0.1,0.3-0.3,0.4-0.7
				c0.1-0.3,0.2-0.8,0.2-1.5v-0.1c0.1-0.5,0.1-0.9,0-1.2c0-0.3-0.1-0.5-0.3-0.5c-0.2-0.1-0.4-0.1-0.7-0.1c-0.4,0-0.7,0-1.1,0
				C39.7-164.1,39.5-162.7,39.4-161.2z"/>
		</g>
		<g>
			<path class="st0" d="M49.2-154.3c0.2-4.2,0.5-8.5,0.7-12.7c0.4,0,0.8,0,1.3,0c1,2.9,2,5.7,3.1,8.6c0-1.2,0-2.5-0.1-3.7
				c0-1.7,0.1-3.3,0.1-5c0.5,0,1,0,1.5,0c-0.1,4.2-0.2,8.5-0.3,12.7c-0.4,0-0.9,0-1.3,0c-1.1-2.9-2.1-5.8-3-8.7c0,1.1,0,2.1,0,3.2
				c-0.1,1.8-0.2,3.7-0.2,5.5C50.3-154.3,49.8-154.3,49.2-154.3z"/>
		</g>
		<g>
			<path class="st0" d="M61.5-154.4c0.7-4.2,1.4-8.5,2-12.7c0.7,0,1.3,0,2,0c0.9,4.3,1.9,8.5,3,12.8c-0.6,0-1.1,0-1.7,0
				c-0.2-0.8-0.3-1.6-0.5-2.4c-0.9,0-1.8,0-2.7,0c-0.1,0.8-0.2,1.6-0.3,2.4C62.6-154.4,62-154.4,61.5-154.4z M63.7-158.1
				c0.8,0,1.5,0,2.3,0c-0.5-2.3-0.9-4.5-1.4-6.7l0,0C64.3-162.5,64-160.3,63.7-158.1z"/>
		</g>
		<g>
			<path class="st0" d="M74.4-154.2c-0.3-4.3-0.7-8.5-1-12.8c0.6,0,1.3,0,1.9,0.1c1,3.4,2.1,6.9,3.2,10.3c0.4-3.4,0.8-6.7,1.1-10.1
				c0.6,0,1.3,0.1,1.9,0.1c0.5,4.3,1.1,8.5,1.6,12.8c-0.5,0-1-0.1-1.5-0.1c-0.2-1.6-0.4-3.2-0.6-4.8c-0.1-1.6-0.3-3.2-0.4-4.8
				c-0.4,3.2-0.8,6.3-1.2,9.5c-0.4,0-0.9,0-1.3-0.1c-1.1-3.2-2.2-6.5-3.2-9.7c0.2,1.6,0.4,3.2,0.6,4.8c0.1,1.6,0.3,3.2,0.4,4.8
				C75.5-154.2,74.9-154.2,74.4-154.2z"/>
		</g>
		<g>
			<path class="st0" d="M89.9-153.4c-0.7-4.3-1.3-8.5-2-12.8c1.4,0.1,2.8,0.2,4.3,0.3c0.1,0.4,0.2,0.8,0.2,1.3
				c-0.9-0.1-1.7-0.1-2.6-0.2c0.2,1.5,0.5,2.9,0.7,4.4c0.8,0.1,1.7,0.1,2.5,0.2c0.1,0.4,0.2,0.8,0.2,1.3c-0.8-0.1-1.7-0.1-2.5-0.2
				c0.3,1.6,0.5,3.1,0.8,4.7c0.9,0.1,1.9,0.1,2.8,0.2c0.1,0.4,0.2,0.8,0.2,1.3C93-153.2,91.5-153.3,89.9-153.4z"/>
		</g>
		<g>
			<path class="st0" d="M100.7-152.6c-0.9-4.3-1.8-8.6-2.7-12.9c0.4,0,0.8,0.1,1.3,0.1c1.7,3,3.5,6.1,5.4,9.1
				c-0.4-1.2-0.7-2.5-1.1-3.7c-0.4-1.7-0.8-3.4-1.2-5c0.5,0,1,0.1,1.5,0.1c1.1,4.3,2.1,8.6,3.2,12.9c-0.4,0-0.9-0.1-1.3-0.1
				c-1.8-3.1-3.6-6.1-5.4-9.2c0.3,1.1,0.5,2.2,0.8,3.3c0.4,1.9,0.8,3.7,1.2,5.6C101.8-152.5,101.3-152.5,100.7-152.6z"/>
		</g>
		<g>
			<path class="st0" d="M114.4-151.2c-1.1-3.9-2.2-7.8-3.3-11.7c-0.5-0.1-1.1-0.1-1.6-0.2c-0.1-0.4-0.2-0.8-0.3-1.3
				c1.6,0.2,3.1,0.4,4.7,0.6c0.1,0.4,0.3,0.8,0.4,1.3c-0.5-0.1-1-0.1-1.5-0.2c1.1,3.9,2.3,7.8,3.4,11.7
				C115.6-151,115-151.1,114.4-151.2z"/>
		</g>
	</g>
	<g>
		<g>
			<path class="st0" d="M0.6-148.8c-0.1,0-0.2,0-0.2-0.1c-0.1-0.1-0.1-0.2-0.1-0.3l3.3-11.3l-1.2,0.2c-0.1,0-0.2,0-0.3-0.1
				C2-160.5,2-160.6,2-160.7l1.4-4.6c0-0.1,0.1-0.2,0.2-0.2l1-0.1c1.6-0.2,3.1-0.4,4.7-0.6l2.4-0.3c0.1,0,0.2,0,0.2,0.1
				c0.1,0.1,0.1,0.2,0.1,0.3l-1.2,4.6c0,0.1-0.1,0.2-0.2,0.2l-1.3,0.1l-3.2,11.5c0,0.1-0.1,0.2-0.2,0.2c0,0-2.2,0.3-2.8,0.3
				L0.6-148.8L0.6-148.8z M4-161.1c0.1,0,0.2,0,0.2,0.1c0.1,0.1,0.1,0.2,0.1,0.3L1-149.4l2-0.2c0.5-0.1,2.1-0.3,2.6-0.3l3.2-11.6
				c0-0.1,0.1-0.2,0.2-0.2l1.3-0.1l1.1-4l-1.9,0.2c-1.6,0.2-3.1,0.4-4.7,0.6l-0.9,0.1l-1.2,4L4-161.1C3.9-161.1,4-161.1,4-161.1z"/>
		</g>
		<g>
			<path class="st0" d="M14.1-150.2c-0.9,0-1.6-0.2-2.2-0.6c-0.6-0.4-1.4-1.2-1.5-2.6c-0.1-0.8,0-1.7,0.3-2.7l1.4-5.7
				c0.2-0.9,0.5-1.7,0.9-2.4c0.4-0.8,1-1.5,1.8-2s1.7-0.9,2.8-1c0.9-0.1,1.6,0,2.3,0.3c0.8,0.3,1.3,0.9,1.7,1.7
				c0.2,0.6,0.3,1.2,0.3,1.9c0,0.5-0.1,1.2-0.2,1.8l-1.2,5.7c-0.2,1-0.5,1.9-0.9,2.6c-0.5,0.9-1.1,1.6-1.8,2.1s-1.7,0.8-2.7,0.9
				C14.6-150.2,14.4-150.2,14.1-150.2z M18.2-166.7c-0.2,0-0.4,0-0.6,0c-1,0.1-1.8,0.4-2.5,0.9s-1.2,1.1-1.6,1.8
				c-0.3,0.7-0.6,1.4-0.8,2.3l-1.4,5.7c-0.2,1-0.3,1.8-0.3,2.5c0.1,1.2,0.7,1.9,1.2,2.2c0.6,0.4,1.4,0.6,2.5,0.4
				c1-0.1,1.8-0.4,2.5-0.8c0.7-0.4,1.2-1.1,1.7-1.9c0.4-0.7,0.6-1.5,0.9-2.5l1.2-5.7c0.1-0.6,0.2-1.2,0.2-1.7c0-0.6-0.1-1.2-0.3-1.7
				c-0.3-0.6-0.7-1.1-1.4-1.4C19.2-166.6,18.7-166.7,18.2-166.7z"/>
		</g>
		<g>
			<path class="st0" d="M26.7-151.3c-0.9,0-1.6-0.2-2.2-0.5c-0.9-0.5-1.5-1.3-1.7-2.4c-0.1-0.7-0.1-1.6,0.1-2.6l2-10.7
				c0-0.1,0.1-0.2,0.3-0.2c0,0,2.4-0.2,2.9-0.2l2-0.1c0,0,0,0,0.1,0c0.3,0,1.4-0.1,1.9-0.1l2-0.1c0.1,0,0.2,0,0.2,0.1
				c0.1,0.1,0.1,0.1,0.1,0.2l-1.9,11.4c-0.1,1-0.4,1.8-0.7,2.5c-0.4,0.8-1,1.5-1.8,2c-0.7,0.4-1.6,0.7-2.7,0.7
				C27.1-151.3,26.9-151.3,26.7-151.3z M25.4-167.2l-2,10.6c-0.2,1-0.2,1.7-0.1,2.4c0.2,0.9,0.7,1.6,1.4,2c0.6,0.3,1.4,0.5,2.5,0.4
				c1-0.1,1.8-0.3,2.4-0.7c0.7-0.4,1.2-1,1.6-1.7c0.3-0.7,0.6-1.4,0.7-2.3l1.7-11.1l-1.6,0.1c-0.6,0-1.9,0.1-1.9,0.1s0,0-0.1,0
				l-2,0.1C27.6-167.3,26-167.2,25.4-167.2z"/>
		</g>
		<g>
			<path class="st0" d="M35-151.9c-0.1,0-0.2,0-0.2-0.1c-0.1-0.1-0.1-0.1-0.1-0.2l1.9-16c0-0.1,0.1-0.2,0.3-0.2l1.4-0.1
				c1,0,2-0.1,3-0.1c1.2,0,2.1,0.1,2.8,0.6c0.6,0.4,1.3,1.1,1.4,2.4c0.1,0.6,0.1,1.4,0,2.2c-0.1,1-0.3,1.9-0.6,2.5
				c0,0.1-0.1,0.2-0.1,0.3c0,0.1,0.1,0.3,0.1,0.5c0.1,0.5,0.1,1.1,0.1,1.8c0,0.6-0.1,1.4-0.1,2.3v0.4c0,0.1,0,0.3,0,0.4
				c0,0.2,0,0.3,0,0.5c0,0.1,0,0.2,0,0.2l0.7,1.9c0,0.1,0,0.2,0,0.3c-0.1,0.1-0.1,0.1-0.2,0.1l-2.2,0.1c-0.6,0-2.9,0.1-2.9,0.1l0,0
				l0,0c0,0-2.6,0.1-3.2,0.1H35L35-151.9z M37.1-167.9l-1.8,15.4l1.6-0.1c0.5,0,2.6-0.1,3.1-0.1h0.1c0.1,0,0.1,0,0.2,0
				c0.5,0,2.2-0.1,2.8-0.1l1.8-0.1l-0.7-1.6v-0.1c0-0.1,0-0.2,0-0.3c0-0.2,0-0.3,0-0.5c0-0.2,0-0.3,0-0.5v-0.4
				c0.1-0.9,0.1-1.6,0.1-2.2c0-0.7,0-1.2-0.1-1.6c0-0.2-0.1-0.4-0.1-0.5c0-0.1,0-0.2,0-0.3c0.1-0.1,0.1-0.2,0.2-0.3
				c0.3-0.6,0.5-1.4,0.6-2.3c0.1-0.8,0.1-1.5,0-2.1c-0.2-1.1-0.7-1.7-1.2-2c-0.6-0.4-1.4-0.6-2.4-0.5c-1,0-2,0.1-3,0.1L37.1-167.9z"
				/>
		</g>
		<g>
			<path class="st0" d="M47.5-152.4c-0.1,0-0.1,0-0.2-0.1c-0.1-0.1-0.1-0.1-0.1-0.2l0.8-15.9c0-0.1,0.1-0.3,0.3-0.3l3.9-0.1
				c0.1,0,0.2,0,0.2,0.1c0.1-0.1,0.1-0.1,0.2-0.1h4.7c0.1,0,0.1,0,0.2,0.1c0.1,0.1,0.1,0.1,0.1,0.2l-0.2,15.9c0,0.2-0.1,0.3-0.3,0.3
				h-4l0,0c-0.1,0-0.2-0.1-0.3-0.2l-0.1-0.3v0.3c0,0.1-0.1,0.3-0.3,0.3H47.5L47.5-152.4z M48.6-168.4L47.8-153l4.3-0.1l0.1-1.4
				c0-0.1,0.1-0.2,0.2-0.3c0.1,0,0.3,0.1,0.3,0.2l0.5,1.5h3.5l0.4-15.4H53v0.9c0,0.1-0.1,0.3-0.2,0.3s-0.3-0.1-0.3-0.2
				c0,0-0.2-0.7-0.3-1L48.6-168.4z"/>
		</g>
		<g>
			<path class="st0" d="M70.5-152.4L70.5-152.4h-2.1c-0.6,0-3,0-3,0c-0.1,0-0.2-0.1-0.3-0.2l-0.2-1l-0.1,1c0,0.1-0.1,0.2-0.3,0.2
				c0,0-2.5,0-3.1,0h-1.9c-0.1,0-0.2,0-0.2-0.1c-0.1-0.1-0.1-0.1-0.1-0.2l0.3-1.9c0.7-4.2,1.4-8.5,2-12.7l0.2-1.4
				c0-0.1,0.1-0.2,0.3-0.2h1.4c0.7,0,3.3,0,3.3,0c0.1,0,0.2,0.1,0.3,0.2l0.4,1.2c0.9,4.2,1.9,8.5,2.9,12.7l0.5,2
				c0,0.1,0,0.2-0.1,0.2C70.7-152.5,70.6-152.4,70.5-152.4z M65.7-153.1c0.6,0,2.3,0,2.7,0h1.7l-0.4-1.7c-1-4.2-2-8.5-3-12.8l-0.2-1
				c-0.6,0-2.5,0-3.1,0l-1,0.1l-0.2,1.1c-0.6,4.2-1.3,8.5-2,12.7l-0.3,1.5h1.6c0.5,0,2.2,0,2.9,0l0.3-2.2c0-0.1,0.1-0.2,0.3-0.2h0.1
				c0.1,0,0.2,0.1,0.3,0.2L65.7-153.1z"/>
		</g>
		<g>
			<path class="st0" d="M85-151.9L85-151.9c0,0-2.9-0.2-3.4-0.2l-4.5-0.2l0,0c0,0-2.2-0.1-2.7-0.1H73c-0.1,0-0.3-0.1-0.3-0.3
				l-1.2-16c0-0.1,0-0.2,0.1-0.2c0.1-0.1,0.1-0.1,0.2-0.1l1.8,0.1c0.6,0,3.1,0.1,3.1,0.1c0.1,0,0.2,0.1,0.3,0.2l0.3,1.1
				c0.2,0.6,0.3,1.1,0.5,1.7c0-0.4,0.1-0.8,0.1-1.2l0.1-1.5c0-0.1,0.1-0.3,0.3-0.3c0,0,2.8,0.1,3.5,0.2l1.3,0.1
				c0.1,0,0.2,0.1,0.3,0.2l2,16c0,0.1,0,0.2-0.1,0.2C85.2-151.9,85.1-151.9,85-151.9z M73.2-152.9h1.2c0.5,0,2.7,0.1,2.7,0.1
				l4.5,0.2l0,0c0.4,0,2.3,0.1,3.1,0.2l-1.9-15.4l-1.1-0.1c-0.5,0-2.5-0.1-3.2-0.2l-0.1,1.3c-0.1,0.8-0.2,1.7-0.2,2.6
				c0,0.1-0.1,0.2-0.3,0.3c-0.1,0-0.3-0.1-0.3-0.2c-0.3-1-0.6-2-0.9-3.1l-0.3-0.9c-0.6,0-2.3-0.1-2.9-0.1H72L73.2-152.9z"/>
		</g>
		<g>
			<path class="st0" d="M96.5-151.1L96.5-151.1l-2.1-0.2c-1.5-0.1-3-0.2-4.6-0.3l-1.3-0.1c-0.1,0-0.2-0.1-0.3-0.2l-2.5-16
				c0-0.1,0-0.2,0.1-0.2c0.1-0.1,0.1-0.1,0.2-0.1l2,0.1c1.4,0.1,2.9,0.2,4.3,0.3l1.2,0.1c0.1,0,0.2,0.1,0.3,0.2l0.8,4.5
				c0,0.1,0,0.2-0.1,0.2s-0.1,0.1-0.2,0.1l-2.3-0.2l0.1,0.6c0.7,0,2.3,0.2,2.3,0.2c0.1,0,0.2,0.1,0.3,0.2l0.8,4.5
				c0,0.1,0,0.2-0.1,0.2c-0.1,0.1-0.1,0.1-0.2,0.1l-2.2-0.2l0.1,0.9c0.7,0.1,2.5,0.2,2.5,0.2c0.1,0,0.2,0.1,0.3,0.2l0.8,4.5
				c0,0.1,0,0.2-0.1,0.2C96.6-151.1,96.6-151.1,96.5-151.1z M88.8-152.2l1,0.1c1.5,0.1,3.1,0.2,4.6,0.3l0,0l1.7,0.1l-0.7-3.9
				c-0.6,0-2.1-0.2-2.5-0.2c-0.1,0-0.2-0.1-0.3-0.2l-0.2-1.5c0-0.1,0-0.2,0.1-0.2c0.1-0.1,0.1-0.1,0.2-0.1l2.2,0.2l-0.7-3.9
				c-0.5,0-1.9-0.1-2.3-0.2c-0.1,0-0.2-0.1-0.3-0.2l-0.2-1.1c0-0.1,0-0.2,0.1-0.2c0.1-0.1,0.1-0.1,0.2-0.1l2.3,0.2l-0.7-3.9l-1-0.1
				c-1.4-0.1-2.8-0.2-4.3-0.3l-1.6-0.1L88.8-152.2z"/>
		</g>
		<g>
			<path class="st0" d="M109.1-149.9L109.1-149.9l-4.4-0.4c-0.1,0-0.1,0-0.2-0.1c-0.1,0-0.1,0-0.2,0l-2.2-0.2
				c-0.5-0.1-2.8-0.3-2.8-0.3c-0.1,0-0.2-0.1-0.3-0.2l-3.4-16.1c0-0.1,0-0.2,0.1-0.2c0.1-0.1,0.1-0.1,0.2-0.1l4.2,0.4l0,0
				c0,0,0,0,0.1,0l4.8,0.5c0.1,0,0.2,0.1,0.2,0.2l4,16.2C109.2-150.1,109.2-150,109.1-149.9C109.3-149.9,109.2-149.9,109.1-149.9z
				 M104.9-150.9l3.8,0.4l-3.8-15.6l-4.3-0.4c0,0.1-0.1,0.2-0.2,0.2c-0.1,0.1-0.3,0-0.3-0.1l-0.1-0.1l-3.7-0.3l3.3,15.6
				c0.6,0.1,2.2,0.2,2.6,0.2l1.8,0.2l-0.1-0.4c0-0.1,0-0.3,0.2-0.3c0.1-0.1,0.3,0,0.3,0.1L104.9-150.9z"/>
		</g>
		<g>
			<path class="st0" d="M118.4-148.8L118.4-148.8l-2.4-0.3l0,0c-0.6-0.1-2.8-0.3-2.8-0.3c-0.1,0-0.2-0.1-0.2-0.2l-3.2-11.5l-1.4-0.2
				c-0.1,0-0.2-0.1-0.2-0.2l-1.3-4.6c0-0.1,0-0.2,0.1-0.3c0.1-0.1,0.1-0.1,0.2-0.1l2.3,0.3c1.6,0.2,3.1,0.4,4.7,0.6l1,0.1
				c0.1,0,0.2,0.1,0.2,0.2l1.4,4.6c0,0.1,0,0.2-0.1,0.3c-0.1,0.1-0.2,0.1-0.2,0.1l-1.1-0.2l3.3,11.3c0,0.1,0,0.2-0.1,0.3
				C118.6-148.8,118.5-148.8,118.4-148.8z M116-149.7l2,0.2l-3.3-11.3c0-0.1,0-0.2,0.1-0.3c0.1-0.1,0.2-0.1,0.2-0.1l1.1,0.1l-1.2-4
				l-0.9-0.1c-1.6-0.2-3.1-0.4-4.7-0.6l-1.9-0.2l1.1,4l1.4,0.2c0.1,0,0.2,0.1,0.2,0.2l3.2,11.5C113.9-149.9,115.5-149.7,116-149.7
				L116-149.7z"/>
		</g>
	</g>
	<g>
		<g>
			<path class="st0" d="M2.8-151c1.1-3.9,2.3-7.8,3.4-11.7c-0.5,0.1-1.1,0.1-1.6,0.2c0.1-0.4,0.3-0.8,0.4-1.3
				c1.6-0.2,3.1-0.4,4.7-0.6c-0.1,0.4-0.2,0.8-0.3,1.3c-0.5,0.1-1,0.1-1.5,0.2c-1.1,3.9-2.2,7.8-3.3,11.7C4-151.1,3.4-151,2.8-151z"
				/>
		</g>
		<g>
			<path class="st0" d="M14.7-152.1c-0.8,0.1-1.3,0-1.7-0.2s-0.6-0.6-0.6-1.2c0-0.6,0-1.3,0.2-2.1c0.5-1.9,0.9-3.8,1.4-5.7
				c0.2-0.7,0.4-1.4,0.7-2c0.3-0.6,0.7-1,1.2-1.4c0.5-0.3,1.1-0.6,1.9-0.6c0.6-0.1,1,0,1.3,0.1c0.3,0.1,0.5,0.4,0.7,0.7
				c0.1,0.3,0.2,0.7,0.2,1.1c0,0.4-0.1,0.9-0.2,1.5c-0.4,1.9-0.8,3.8-1.2,5.7c-0.2,0.9-0.4,1.6-0.7,2.2c-0.3,0.6-0.7,1-1.2,1.4
				C16-152.4,15.4-152.2,14.7-152.1z M15-153.4c0.3,0,0.6-0.1,0.8-0.3s0.4-0.5,0.5-0.8c0.1-0.4,0.3-0.9,0.4-1.5
				c0.4-1.9,0.9-3.9,1.3-5.8c0.2-0.8,0.2-1.3,0.2-1.7c-0.1-0.4-0.3-0.5-0.8-0.5s-0.8,0.3-1.1,0.6c-0.3,0.4-0.5,1-0.7,1.7
				c-0.5,1.9-0.9,3.9-1.4,5.8c-0.2,0.6-0.2,1.1-0.3,1.5c0,0.4,0,0.6,0.2,0.8C14.4-153.5,14.6-153.4,15-153.4z"/>
		</g>
		<g>
			<path class="st0" d="M27.1-153.2c-0.8,0.1-1.3,0-1.7-0.2s-0.6-0.6-0.7-1.1c-0.1-0.5-0.1-1.1,0.1-1.9c0.6-3.2,1.2-6.4,1.7-9.5
				c0.6,0,1.1-0.1,1.7-0.1c-0.5,3.2-1.1,6.3-1.6,9.5c-0.2,0.4-0.2,0.8-0.2,1.1s0,0.6,0.2,0.7c0.1,0.2,0.4,0.2,0.8,0.2
				c0.4,0,0.7-0.1,0.9-0.3c0.2-0.2,0.3-0.4,0.4-0.8c0.1-0.3,0.2-0.7,0.2-1.2c0.5-3.2,1-6.3,1.5-9.5c0.6,0,1.1-0.1,1.7-0.1
				c-0.5,3.2-1,6.3-1.4,9.5c-0.1,0.8-0.3,1.4-0.6,1.9c-0.3,0.5-0.6,0.9-1.1,1.2C28.5-153.4,27.9-153.2,27.1-153.2z"/>
		</g>
		<g>
			<path class="st0" d="M36.8-153.9c0.5-4.3,1-8.5,1.5-12.8c1,0,2-0.1,3-0.1c0.8,0,1.3,0.1,1.6,0.3c0.3,0.2,0.5,0.6,0.6,1.1
				s0.1,1.1,0,1.8c-0.1,0.8-0.2,1.4-0.4,1.9c-0.2,0.5-0.6,0.8-1.2,0.9c0.3,0,0.5,0.1,0.6,0.3c0.2,0.2,0.3,0.4,0.3,0.7
				c0.1,0.3,0.1,0.8,0.1,1.4c0,0.6,0,1.3-0.1,2.1c0,0.1,0,0.2,0,0.4s0,0.3,0,0.5s0,0.4,0,0.5c0,0.2,0,0.3,0,0.5c0,0.1,0,0.2,0,0.3
				c-0.6,0-1.2,0-1.8,0.1c0,0,0-0.1,0-0.3c0-0.1,0-0.3,0-0.6c0-0.2,0-0.5,0.1-0.9c0-0.3,0.1-0.7,0.1-1.1s0.1-0.9,0.1-1.4
				s0.1-0.9,0-1.1c0-0.3-0.1-0.4-0.3-0.5c-0.2-0.1-0.4-0.1-0.8-0.1c-0.3,0-0.7,0-1,0c-0.2,2.1-0.4,4.1-0.7,6.2
				C38-153.9,37.4-153.9,36.8-153.9z M39.4-161.2c0.4,0,0.7,0,1.1,0c0.3,0,0.6-0.1,0.7-0.2c0.2-0.1,0.3-0.3,0.4-0.7
				c0.1-0.3,0.2-0.8,0.2-1.5v-0.1c0.1-0.5,0.1-0.9,0-1.2c0-0.3-0.1-0.5-0.3-0.5c-0.2-0.1-0.4-0.1-0.7-0.1c-0.4,0-0.7,0-1.1,0
				C39.7-164.1,39.5-162.7,39.4-161.2z"/>
		</g>
		<g>
			<path class="st0" d="M49.2-154.3c0.2-4.2,0.5-8.5,0.7-12.7c0.4,0,0.8,0,1.3,0c1,2.9,2,5.7,3.1,8.6c0-1.2,0-2.5-0.1-3.7
				c0-1.7,0.1-3.3,0.1-5c0.5,0,1,0,1.5,0c-0.1,4.2-0.2,8.5-0.3,12.7c-0.4,0-0.9,0-1.3,0c-1.1-2.9-2.1-5.8-3-8.7c0,1.1,0,2.1,0,3.2
				c-0.1,1.8-0.2,3.7-0.2,5.5C50.3-154.3,49.8-154.3,49.2-154.3z"/>
		</g>
		<g>
			<path class="st0" d="M61.5-154.4c0.7-4.2,1.4-8.5,2-12.7c0.7,0,1.3,0,2,0c0.9,4.3,1.9,8.5,3,12.8c-0.6,0-1.1,0-1.7,0
				c-0.2-0.8-0.3-1.6-0.5-2.4c-0.9,0-1.8,0-2.7,0c-0.1,0.8-0.2,1.6-0.3,2.4C62.6-154.4,62-154.4,61.5-154.4z M63.7-158.1
				c0.8,0,1.5,0,2.3,0c-0.5-2.3-0.9-4.5-1.4-6.7l0,0C64.3-162.5,64-160.3,63.7-158.1z"/>
		</g>
		<g>
			<path class="st0" d="M74.4-154.2c-0.3-4.3-0.7-8.5-1-12.8c0.6,0,1.3,0,1.9,0.1c1,3.4,2.1,6.9,3.2,10.3c0.4-3.4,0.8-6.7,1.1-10.1
				c0.6,0,1.3,0.1,1.9,0.1c0.5,4.3,1.1,8.5,1.6,12.8c-0.5,0-1-0.1-1.5-0.1c-0.2-1.6-0.4-3.2-0.6-4.8c-0.1-1.6-0.3-3.2-0.4-4.8
				c-0.4,3.2-0.8,6.3-1.2,9.5c-0.4,0-0.9,0-1.3-0.1c-1.1-3.2-2.2-6.5-3.2-9.7c0.2,1.6,0.4,3.2,0.6,4.8c0.1,1.6,0.3,3.2,0.4,4.8
				C75.5-154.2,74.9-154.2,74.4-154.2z"/>
		</g>
		<g>
			<path class="st0" d="M89.9-153.4c-0.7-4.3-1.3-8.5-2-12.8c1.4,0.1,2.8,0.2,4.3,0.3c0.1,0.4,0.2,0.8,0.2,1.3
				c-0.9-0.1-1.7-0.1-2.6-0.2c0.2,1.5,0.5,2.9,0.7,4.4c0.8,0.1,1.7,0.1,2.5,0.2c0.1,0.4,0.2,0.8,0.2,1.3c-0.8-0.1-1.7-0.1-2.5-0.2
				c0.3,1.6,0.5,3.1,0.8,4.7c0.9,0.1,1.9,0.1,2.8,0.2c0.1,0.4,0.2,0.8,0.2,1.3C93-153.2,91.5-153.3,89.9-153.4z"/>
		</g>
		<g>
			<path class="st0" d="M100.7-152.6c-0.9-4.3-1.8-8.6-2.7-12.9c0.4,0,0.8,0.1,1.3,0.1c1.7,3,3.5,6.1,5.4,9.1
				c-0.4-1.2-0.7-2.5-1.1-3.7c-0.4-1.7-0.8-3.4-1.2-5c0.5,0,1,0.1,1.5,0.1c1.1,4.3,2.1,8.6,3.2,12.9c-0.4,0-0.9-0.1-1.3-0.1
				c-1.8-3.1-3.6-6.1-5.4-9.2c0.3,1.1,0.5,2.2,0.8,3.3c0.4,1.9,0.8,3.7,1.2,5.6C101.8-152.5,101.3-152.5,100.7-152.6z"/>
		</g>
		<g>
			<path class="st0" d="M114.4-151.2c-1.1-3.9-2.2-7.8-3.3-11.7c-0.5-0.1-1.1-0.1-1.6-0.2c-0.1-0.4-0.2-0.8-0.3-1.3
				c1.6,0.2,3.1,0.4,4.7,0.6c0.1,0.4,0.3,0.8,0.4,1.3c-0.5-0.1-1-0.1-1.5-0.2c1.1,3.9,2.3,7.8,3.4,11.7
				C115.6-151,115-151.1,114.4-151.2z"/>
		</g>
	</g>
</g>
<g>
	<path class="st0" d="M358.7-67.6v-29.8H369v3.9h-5.7v7.9h5.3v4h-5.3v14H358.7z"/>
	<path class="st0" d="M378.4-67.2c-1.5,0-2.8-0.3-3.8-1c-1-0.7-1.7-1.6-2.2-2.9c-0.5-1.3-0.7-2.9-0.7-4.8v-13.6
		c0-1.7,0.2-3.2,0.7-4.4c0.5-1.2,1.2-2.2,2.1-2.8c1-0.7,2.3-1,3.9-1c1.2,0,2.2,0.2,3,0.6c0.8,0.4,1.5,0.9,2,1.6
		c0.5,0.7,0.9,1.6,1.1,2.6c0.2,1,0.3,2.2,0.3,3.4v13.6c0,1.9-0.2,3.5-0.7,4.8c-0.4,1.3-1.1,2.3-2.1,2.9
		C381.2-67.6,379.9-67.2,378.4-67.2z M378.4-71.2c0.6,0,1-0.2,1.3-0.5c0.3-0.3,0.5-0.9,0.6-1.5s0.1-1.6,0.1-2.6v-13.9
		c0-1.3-0.1-2.3-0.4-3s-0.8-1.1-1.6-1.1c-0.8,0-1.4,0.3-1.7,1c-0.3,0.7-0.4,1.7-0.4,3v13.9c0,1.1,0,2,0.1,2.7
		c0.1,0.7,0.3,1.2,0.6,1.5C377.3-71.3,377.8-71.2,378.4-71.2z"/>
	<path class="st0" d="M395.3-67.2c-1.5,0-2.8-0.3-3.8-1c-1-0.7-1.7-1.6-2.2-2.9c-0.5-1.3-0.7-2.9-0.7-4.8v-13.6
		c0-1.7,0.2-3.2,0.7-4.4c0.5-1.2,1.2-2.2,2.1-2.8c1-0.7,2.3-1,3.9-1c1.2,0,2.2,0.2,3,0.6c0.8,0.4,1.5,0.9,2,1.6
		c0.5,0.7,0.9,1.6,1.1,2.6c0.2,1,0.3,2.2,0.3,3.4v13.6c0,1.9-0.2,3.5-0.7,4.8c-0.4,1.3-1.1,2.3-2.1,2.9
		C398.1-67.6,396.8-67.2,395.3-67.2z M395.3-71.2c0.6,0,1-0.2,1.3-0.5c0.3-0.3,0.5-0.9,0.6-1.5c0.1-0.7,0.1-1.6,0.1-2.6v-13.9
		c0-1.3-0.1-2.3-0.4-3s-0.8-1.1-1.6-1.1c-0.8,0-1.4,0.3-1.7,1c-0.3,0.7-0.4,1.7-0.4,3v13.9c0,1.1,0,2,0.1,2.7
		c0.1,0.7,0.3,1.2,0.6,1.5C394.2-71.3,394.7-71.2,395.3-71.2z"/>
	<path class="st0" d="M407.5-67.6v-25.8H404v-3.9h11.3v3.9H412v25.8H407.5z"/>
	<path class="st0" d="M417.9-67.6v-29.8h6.4c1.5,0,2.7,0.2,3.6,0.7c0.9,0.5,1.5,1.2,1.9,2.2c0.4,1,0.6,2.3,0.6,3.9v0.9
		c0,1.5-0.2,2.8-0.6,3.8c-0.4,1-1.1,1.7-2,2.1c0.8,0.3,1.4,0.7,1.9,1.4c0.5,0.7,0.8,1.5,1,2.5c0.2,1,0.3,2,0.3,3.2v0.8
		c0,2-0.2,3.6-0.7,4.8c-0.5,1.2-1.2,2.2-2.1,2.7c-1,0.6-2.2,0.9-3.8,0.9H417.9z M422.4-85.3h1.7c0.4,0,0.7-0.1,1-0.2
		c0.2-0.1,0.4-0.3,0.6-0.6c0.1-0.3,0.2-0.7,0.3-1.2c0.1-0.5,0.1-1.1,0.1-1.9v-1.8c0-0.8-0.1-1.4-0.2-1.8c-0.1-0.4-0.4-0.7-0.7-0.8
		c-0.3-0.1-0.7-0.2-1.2-0.2h-1.5V-85.3z M422.4-71.1h1.6c0.6,0,1.1-0.1,1.4-0.4c0.4-0.3,0.6-0.7,0.8-1.3c0.2-0.6,0.2-1.5,0.2-2.5
		v-2.4c0-1.4-0.1-2.5-0.4-3.2c-0.3-0.7-0.8-1-1.7-1h-1.9V-71.1z"/>
	<path class="st0" d="M432.7-67.6l4.2-29.8h6l4.5,29.8h-4.2l-0.7-5.3h-4.8l-0.6,5.3H432.7z M438.2-76.5h3.9l-2-15H440L438.2-76.5z"
		/>
	<path class="st0" d="M450.2-67.6v-29.8h4.5v25.9h5.7v3.9H450.2z"/>
	<path class="st0" d="M462.9-67.6v-29.8h4.5v25.9h5.7v3.9H462.9z"/>
	<path class="st0" d="M374.8-52.5v-9.7h-1.2v-1.1h3.6v1.1h-1.1v9.7H374.8z"/>
	<path class="st0" d="M383.3-52.4c-0.5,0-1-0.1-1.3-0.4c-0.3-0.2-0.5-0.6-0.7-1.1s-0.2-1.1-0.2-1.8v-4.8c0-0.6,0.1-1.2,0.2-1.6
		c0.1-0.5,0.3-0.8,0.7-1.1c0.3-0.3,0.8-0.4,1.3-0.4c0.4,0,0.8,0.1,1.1,0.2c0.3,0.1,0.5,0.4,0.6,0.6c0.1,0.3,0.3,0.6,0.3,1
		s0.1,0.8,0.1,1.3v4.8c0,0.7-0.1,1.3-0.2,1.8c-0.1,0.5-0.3,0.8-0.7,1.1C384.3-52.5,383.8-52.4,383.3-52.4z M383.3-53.5
		c0.2,0,0.4-0.1,0.5-0.2c0.1-0.1,0.2-0.4,0.3-0.7c0-0.3,0.1-0.7,0.1-1.3v-4.8c0-0.6-0.1-1.1-0.2-1.4c-0.1-0.3-0.3-0.5-0.7-0.5
		c-0.4,0-0.6,0.2-0.7,0.5s-0.2,0.8-0.2,1.4v4.9c0,0.5,0,1,0.1,1.3c0,0.3,0.1,0.5,0.3,0.7C382.9-53.5,383.1-53.5,383.3-53.5z"/>
	<path class="st0" d="M392.1-52.4c-0.5,0-1-0.1-1.3-0.3c-0.3-0.2-0.5-0.5-0.7-1c-0.1-0.4-0.2-1-0.2-1.6v-8h1.3v8c0,0.4,0,0.7,0,1
		c0,0.3,0.1,0.5,0.2,0.6c0.1,0.1,0.3,0.2,0.6,0.2c0.3,0,0.5-0.1,0.6-0.2c0.1-0.1,0.2-0.4,0.2-0.6c0-0.3,0-0.6,0-1v-8h1.3v8
		c0,0.7-0.1,1.2-0.2,1.6c-0.1,0.4-0.4,0.7-0.7,1C393.1-52.5,392.7-52.4,392.1-52.4z"/>
	<path class="st0" d="M398.9-52.5v-10.8h2.3c0.6,0,1,0.1,1.3,0.3c0.3,0.2,0.5,0.5,0.5,0.9c0.1,0.4,0.1,0.9,0.1,1.5
		c0,0.7-0.1,1.2-0.2,1.6c-0.1,0.4-0.4,0.6-0.8,0.8c0.2,0,0.4,0.1,0.5,0.3c0.1,0.1,0.2,0.3,0.3,0.6c0.1,0.3,0.1,0.7,0.2,1.2
		c0,0.5,0,1.1,0,1.8c0,0.1,0,0.2,0,0.3c0,0.1,0,0.3,0,0.4c0,0.2,0,0.3,0,0.5c0,0.2,0,0.3,0,0.4c0,0.1,0,0.2,0,0.3H402
		c0,0,0-0.1,0-0.2s0-0.3,0-0.5c0-0.2,0-0.5,0-0.7c0-0.3,0-0.6,0-1c0-0.4,0-0.7,0-1.2c0-0.4,0-0.7-0.1-0.9c0-0.2-0.1-0.4-0.2-0.4
		c-0.1-0.1-0.3-0.1-0.6-0.2l-0.8,0v5.2H398.9z M400.2-58.6h0.8c0.2,0,0.4,0,0.5-0.1c0.1-0.1,0.2-0.3,0.3-0.6c0-0.3,0.1-0.7,0.1-1.2
		v-0.1c0-0.5,0-0.8-0.1-1c0-0.2-0.1-0.4-0.2-0.5c-0.1-0.1-0.3-0.1-0.6-0.1h-0.8V-58.6z"/>
	<path class="st0" d="M407.7-52.5v-10.8h1l2.5,7.4l-0.1-3.1v-4.2h1.1v10.8h-0.9l-2.4-7.4l0.1,2.7v4.7H407.7z"/>
	<path class="st0" d="M416.4-52.5l1.6-10.8h1.5l1.8,10.8h-1.2l-0.3-2.1h-2l-0.3,2.1H416.4z M418-55.6h1.7l-0.9-5.7h0L418-55.6z"/>
	<path class="st0" d="M425.5-52.5v-10.8h1.5l1.7,8.6l1.6-8.6h1.5v10.8h-1.1v-4.1l0.1-4l-1.6,8.1h-0.9l-1.7-8.1l0.1,4v4.1H425.5z"/>
	<path class="st0" d="M436.5-52.5v-10.8h3.2v1.1h-2v3.7h1.9v1.1h-1.9v3.9h2v1.1H436.5z"/>
	<path class="st0" d="M444.2-52.5v-10.8h1l2.5,7.4l-0.1-3.1v-4.2h1.1v10.8h-0.9l-2.4-7.4l0.1,2.7v4.7H444.2z"/>
	<path class="st0" d="M453.9-52.5v-9.7h-1.2v-1.1h3.6v1.1h-1.1v9.7H453.9z"/>
</g>
<g>
	<text transform="matrix(1 0 0 1 252.4137 8.0548)"><tspan x="0" y="0" class="st0" style="font-family:'Kanit-Medium'; font-size:22.3689px;">FOOTBALL</tspan><tspan x="15.5" y="8.7" class="st0" style="font-family:'Kanit-Regular'; font-size:8.9228px; letter-spacing:2;">TOURNAMENT</tspan></text>
	<g>
		<path class="st0" d="M297.6-9.8h19.1c0.6-1.1,1.2-2.3,1.8-3.4c0.4-0.7,0.3-1.4-0.1-2.1c-1.4-2.7-3-5.4-4.8-7.9
			c-0.6-0.8-1.3-1.2-2.3-1.2c-2.8,0-5.7,0-8.5,0c-1,0-1.7,0.4-2.3,1.2c-1.8,2.5-3.3,5.1-4.7,7.7c-0.5,0.9-0.5,1.7,0,2.6
			C296.4-11.9,297-10.9,297.6-9.8z"/>
		<path class="st0" d="M284.7-21.1c0.4-2.9,2-5.8,5.2-7.7c2-1.1,4.2-1.7,6.4-2.2c0.9-0.2,1.4-0.1,1.7,0.8c0,0.1,0,0.1,0.1,0.2
			c2,3,2.2,5.8-0.5,8.7c-1.2,1.3-2,3.1-2.8,4.7c-0.6,1.2-1.5,1.9-2.8,2.2c-1.5,0.3-3,0.7-4.5,1.1c-1,0.3-1.5,0-1.8-1
			C285.1-16.3,284.7-18.3,284.7-21.1z"/>
		<path class="st0" d="M329.6-21.3c-0.1,2.8-0.4,4.8-1.1,6.8c-0.3,1-0.7,1.4-1.8,1.1c-1.7-0.5-3.5-0.9-5.3-1.3
			c-0.8-0.2-1.3-0.7-1.6-1.4c-1.5-2.8-3.1-5.5-5-8.1c-0.5-0.7-0.6-1.4-0.2-2.2c0.5-0.9,1-1.8,1.2-2.8c0.5-2,1.7-2,3.3-1.5
			c2,0.6,4,1.1,5.7,2.2C327.6-26.7,329.2-23.9,329.6-21.3z"/>
		<path class="st0" d="M327.8-9.8c0,0,0-0.1,0-0.1c0.1-1.3-0.5-1.8-1.7-2.1c-1.5-0.3-3-0.7-4.5-1.1c-1-0.3-1.5,0-2,0.9
			c-0.4,0.8-0.8,1.6-1.3,2.4H327.8z"/>
		<path class="st0" d="M295.9-9.8c-0.5-0.9-1-1.8-1.4-2.7c-0.2-0.5-0.5-0.9-1.6-0.7c-1.6,0.4-3.6,0.9-5.6,1.5
			c-0.5,0.1-0.6,0.6-0.7,1.1c0,0.3-0.1,0.6-0.1,0.8H295.9z"/>
		<path class="st0" d="M307.1-25.9c-1.4,0-2.8,0-4.3,0c-0.9,0-1.5-0.3-1.8-1.2c-0.3-0.9-0.6-1.9-1.2-2.6c-1.1-1.6-0.6-2.7,1-3.5
			c0.3-0.2,0.6-0.4,0.9-0.6c6-3.5,4.6-3.5,10.7,0c3,1.7,2.9,1.9,1.5,4.9c-0.3,0.6-0.5,1.1-0.7,1.7c-0.3,0.9-0.9,1.2-1.8,1.2
			C310-26,308.5-25.9,307.1-25.9z"/>
		<path class="st0" d="M329.2-9.8h2.5c0.2-2.9,0-5.9-0.9-8.2C331-15.2,328.8-12.8,329.2-9.8z"/>
		<path class="st0" d="M284.9-9.8c-0.1-2.7-0.5-5.4-1.8-8c-0.7,2.7-0.9,5.4-0.6,8H284.9z"/>
		<path class="st0" d="M311.8-36.1c3.6,0.8,6.6,1.9,9.4,4C318.8-31.7,315.1-33.3,311.8-36.1z"/>
		<path class="st0" d="M292.9-32c2.7-1.7,5.3-3.4,9-3.8C299.1-33.3,296.2-32.1,292.9-32z"/>
	</g>
</g>
<g>
	<g>
		<path class="st0" d="M1.8,52.3v-16H13V39H5.1v4.1h7v2.6h-7v6.7H1.8z"/>
		<path class="st0" d="M22.1,52.6c-5.2,0-7.8-2.7-7.8-8.2c0-2.9,0.7-5,2-6.3c1.3-1.3,3.2-2,5.8-2s4.5,0.7,5.8,2c1.3,1.3,2,3.4,2,6.3
			C29.9,49.9,27.3,52.6,22.1,52.6z M22.1,49.7c1.5,0,2.6-0.4,3.3-1.3c0.7-0.9,1.1-2.2,1.1-4c0-2-0.4-3.4-1.1-4.2
			c-0.7-0.8-1.8-1.2-3.3-1.2c-1.5,0-2.6,0.4-3.3,1.2c-0.7,0.8-1.1,2.2-1.1,4.2c0,1.8,0.4,3.1,1.1,4C19.5,49.3,20.6,49.7,22.1,49.7z"
			/>
		<path class="st0" d="M39.5,52.6c-5.2,0-7.8-2.7-7.8-8.2c0-2.9,0.7-5,2-6.3c1.3-1.3,3.2-2,5.8-2s4.5,0.7,5.8,2c1.3,1.3,2,3.4,2,6.3
			C47.2,49.9,44.7,52.6,39.5,52.6z M39.5,49.7c1.5,0,2.6-0.4,3.3-1.3c0.7-0.9,1.1-2.2,1.1-4c0-2-0.4-3.4-1.1-4.2
			C42.1,39.4,41,39,39.5,39c-1.5,0-2.6,0.4-3.3,1.2c-0.7,0.8-1.1,2.2-1.1,4.2c0,1.8,0.4,3.1,1.1,4C36.9,49.3,38,49.7,39.5,49.7z"/>
		<path class="st0" d="M53,52.3V38.9h-4.9v-2.6h13.1v2.6h-4.9v13.4H53z"/>
		<path class="st0" d="M63.1,52.3v-16h8.1c1.6,0,2.8,0.4,3.6,1.1c0.8,0.8,1.2,1.8,1.2,3.2c0,0.9-0.2,1.6-0.5,2.1
			c-0.3,0.6-0.8,1-1.3,1.3c0.7,0.2,1.3,0.6,1.8,1.2c0.4,0.5,0.7,1.3,0.7,2.4c0,1.5-0.4,2.7-1.3,3.5c-0.9,0.8-2.1,1.2-3.8,1.2H63.1z
			 M66.4,43h4.1c0.8,0,1.4-0.2,1.7-0.5c0.3-0.4,0.5-0.9,0.5-1.5c0-0.7-0.2-1.2-0.5-1.6c-0.4-0.3-1-0.5-2-0.5h-3.9V43z M66.4,49.9
			h4.2c0.8,0,1.5-0.2,1.9-0.5c0.4-0.3,0.6-1,0.6-1.8c0-0.7-0.2-1.2-0.6-1.6c-0.4-0.3-1.1-0.5-2.1-0.5h-4V49.9z"/>
		<path class="st0" d="M77.5,52.3l6.1-16h3.7l6.1,16h-3.5l-1.5-3.8h-5.9L81,52.3H77.5z M83,45.9h4.9l-2.5-6.4L83,45.9z"/>
		<path class="st0" d="M95.7,52.3v-16H99v13.4h7.9v2.6H95.7z"/>
		<path class="st0" d="M108.7,52.3v-16h3.3v13.4h7.9v2.6H108.7z"/>
		<path class="st0" d="M19.2,62v-5.5h-2v-0.8h5.1v0.8h-2V62H19.2z"/>
		<path class="st0" d="M28.4,62.1c-1,0-1.8-0.3-2.3-0.8s-0.8-1.4-0.8-2.5c0-1.2,0.3-2,0.8-2.5c0.5-0.5,1.3-0.8,2.3-0.8
			c1,0,1.8,0.3,2.3,0.8c0.5,0.5,0.7,1.4,0.7,2.5c0,1.1-0.2,1.9-0.7,2.5C30.2,61.8,29.4,62.1,28.4,62.1z M28.4,61.2
			c0.7,0,1.2-0.2,1.5-0.5c0.3-0.4,0.5-1,0.5-1.8c0-0.9-0.2-1.5-0.5-1.9c-0.3-0.4-0.8-0.5-1.5-0.5c-0.7,0-1.1,0.2-1.5,0.5
			s-0.5,1-0.5,1.9c0,0.8,0.2,1.4,0.5,1.8S27.8,61.2,28.4,61.2z"/>
		<path class="st0" d="M37.8,62.1c-0.9,0-1.6-0.2-2-0.6c-0.5-0.4-0.7-1-0.7-1.8v-4h1.1v4c0,0.5,0.1,0.9,0.4,1.2
			c0.3,0.3,0.7,0.4,1.3,0.4c0.5,0,0.9-0.1,1.2-0.4c0.3-0.3,0.4-0.7,0.4-1.2v-4h1.1v4c0,0.8-0.2,1.4-0.7,1.8
			C39.3,61.9,38.7,62.1,37.8,62.1z"/>
		<path class="st0" d="M44.3,62v-6.4h2.9c0.7,0,1.2,0.2,1.6,0.5c0.3,0.4,0.5,0.9,0.5,1.5c0,0.4-0.1,0.8-0.3,1.1
			c-0.2,0.3-0.5,0.5-1,0.7c0.1,0.1,0.2,0.2,0.3,0.3c0.1,0.1,0.1,0.2,0.2,0.4l0.8,1.8h-1.1l-0.8-1.8c-0.1-0.2-0.2-0.3-0.3-0.4
			c-0.1-0.1-0.3-0.1-0.5-0.1h-1.2V62H44.3z M45.4,58.9h1.6c0.4,0,0.7-0.1,0.9-0.3c0.2-0.2,0.3-0.5,0.3-0.9c0-0.8-0.4-1.2-1.2-1.2
			h-1.7V58.9z"/>
		<path class="st0" d="M52.9,62v-6.4h0.9l3.3,4.7v-4.7h1.1V62h-1L54,57.3V62H52.9z"/>
		<path class="st0" d="M61.9,62l2.4-6.4h1.2l2.4,6.4h-1.1l-0.6-1.6h-2.6L63,62H61.9z M63.8,59.5H66l-1.1-2.9L63.8,59.5z"/>
		<path class="st0" d="M71.6,62v-6.4h1.1l2,4.1l2-4.1h1.1V62h-1.1v-4.6L75,60.9h-0.7l-1.7-3.5V62H71.6z"/>
		<path class="st0" d="M81.6,62v-6.4h4.4v0.8h-3.4v1.9h3v0.8h-3v1.9h3.4V62H81.6z"/>
		<path class="st0" d="M89.6,62v-6.4h0.9l3.3,4.7v-4.7H95V62h-1l-3.3-4.7V62H89.6z"/>
		<path class="st0" d="M100.5,62v-5.5h-2v-0.8h5.1v0.8h-2V62H100.5z"/>
	</g>
	<g>
		<path class="st0" d="M49.8,32.5H71c0.7-1.3,1.4-2.5,2-3.8c0.4-0.8,0.3-1.6-0.1-2.3c-1.6-3-3.3-6-5.3-8.7c-0.7-0.9-1.4-1.3-2.5-1.3
			c-3.2,0-6.3,0-9.5,0c-1.1,0-1.9,0.5-2.5,1.4c-2,2.7-3.7,5.6-5.2,8.6c-0.5,1-0.5,1.9,0,2.9C48.5,30.2,49.1,31.4,49.8,32.5z"/>
		<path class="st0" d="M35.4,20c0.5-3.2,2.2-6.5,5.8-8.5c2.2-1.2,4.7-1.9,7.1-2.4c1-0.2,1.6-0.1,1.9,0.9c0,0.1,0.1,0.1,0.1,0.2
			c2.2,3.3,2.5,6.4-0.5,9.6c-1.3,1.4-2.2,3.4-3.1,5.2c-0.7,1.4-1.7,2.1-3.1,2.4c-1.7,0.3-3.3,0.7-5,1.2c-1.1,0.3-1.6,0-2-1.1
			C35.9,25.4,35.5,23.1,35.4,20z"/>
		<path class="st0" d="M85.2,19.8c-0.1,3.1-0.5,5.4-1.2,7.6c-0.4,1.1-0.8,1.6-2,1.2c-1.9-0.6-3.9-1-5.9-1.5
			c-0.9-0.2-1.4-0.7-1.8-1.5c-1.6-3.1-3.5-6.2-5.5-9c-0.6-0.8-0.7-1.6-0.2-2.5c0.5-1,1.1-2,1.4-3.1c0.6-2.2,1.8-2.3,3.7-1.7
			c2.2,0.7,4.4,1.2,6.3,2.4C83.1,13.8,84.9,16.9,85.2,19.8z"/>
		<path class="st0" d="M83.2,32.5c0-0.1,0-0.1,0-0.2c0.1-1.4-0.5-2-1.9-2.3c-1.7-0.3-3.3-0.7-5-1.2c-1.1-0.3-1.7,0-2.2,1
			c-0.5,0.9-0.9,1.8-1.4,2.6H83.2z"/>
		<path class="st0" d="M47.9,32.5c-0.5-1-1.1-2-1.6-3c-0.3-0.5-0.6-1-1.8-0.8c-1.8,0.5-4,1-6.3,1.6c-0.6,0.2-0.7,0.7-0.7,1.2
			c-0.1,0.3-0.1,0.6-0.1,0.9H47.9z"/>
		<path class="st0" d="M60.3,14.6c-1.6,0-3.2,0-4.7,0c-1,0-1.7-0.3-2-1.3c-0.4-1-0.7-2.1-1.3-2.9c-1.2-1.8-0.6-3,1.1-3.9
			c0.3-0.2,0.6-0.4,1-0.6C61,2.1,59.5,2,66.3,6c3.3,1.9,3.2,2.1,1.7,5.5c-0.3,0.6-0.6,1.3-0.8,1.9c-0.4,1-1,1.3-2,1.3
			C63.5,14.6,61.9,14.6,60.3,14.6z"/>
		<path class="st0" d="M84.8,32.5h2.7c0.3-3.2,0-6.6-1-9.1C86.8,26.5,84.4,29.2,84.8,32.5z"/>
		<path class="st0" d="M35.7,32.5c-0.1-3-0.5-6-2-8.9c-0.7,3-1,6-0.7,8.9H35.7z"/>
		<path class="st0" d="M65.5,3.3c4,0.8,7.3,2.2,10.4,4.4C73.3,8.2,69.2,6.5,65.5,3.3z"/>
		<path class="st0" d="M44.6,7.9c2.9-1.9,5.9-3.8,10-4.3C51.4,6.4,48.3,7.9,44.6,7.9z"/>
	</g>
</g>
</svg>
