<?xml version="1.0" encoding="utf-8"?>
<!-- Generator: Adobe Illustrator 24.0.1, SVG Export Plug-In . SVG Version: 6.00 Build 0)  -->
<svg version="1.1" id="Layer_1" xmlns="http://www.w3.org/2000/svg" xmlns:xlink="http://www.w3.org/1999/xlink" x="0px" y="0px"
	 viewBox="0 0 194 78.3" style="enable-background:new 0 0 194 78.3;" xml:space="preserve">
<style type="text/css">
	.st0{fill:#FFFFFF;}
	.st1{fill:#D1D3D4;}
	.st2{fill:#58595B;}
	.st3{fill:#414042;}
	.st4{fill:#939598;}
</style>
<g>
	<path class="st0" d="M163.2,75.2c-0.2,0-0.4,0-0.5,0C98.8,65.4,46,72.6,31.3,75.1c-1,0.2-2-0.1-2.8-0.8c-0.8-0.7-1.2-1.6-1.2-2.7
		v-8.6c0-0.9-0.4-1.8-1.2-2.3c-0.8-0.6-1.7-0.7-2.6-0.4l-11.8,3.7c-1.3,0.4-2.8,0-3.7-1.1l-5-6c-0.7-0.8-1-1.9-0.7-3L12.5,7
		c0.3-1.6,1.8-2.7,3.4-2.7H170c1.7,0,3.1,1.2,3.4,2.8l5.3,27.7c0.2,1,0.9,1.9,1.9,2.2l6.3,2.2c1.1,0.4,2,1.4,2.3,2.6l2.8,12.9
		c0.3,1.2-0.1,2.4-0.9,3.2l-6.5,6.5c-0.9,0.9-2.2,1.2-3.5,0.9L170.5,62c-0.9-0.3-1.8-0.1-2.6,0.4c-0.7,0.6-1.2,1.4-1.2,2.3v7
		c0,1-0.4,2-1.2,2.6C164.9,74.9,164.1,75.2,163.2,75.2z M96.2,69.6c19.6,0,42.3,1.3,66.6,5c0.8,0.1,1.7-0.1,2.3-0.7
		c0.6-0.6,1-1.4,1-2.2v-7c0-1.1,0.5-2.1,1.4-2.8c0.9-0.7,2-0.9,3.1-0.5l10.5,3.2c1,0.3,2.1,0,2.9-0.7l6.5-6.5c0.7-0.7,1-1.7,0.8-2.7
		l-2.8-12.9c-0.2-1-0.9-1.8-1.9-2.1l-6.3-2.2c-1.2-0.4-2-1.4-2.3-2.6l-5.3-27.7c-0.3-1.4-1.5-2.4-2.9-2.4H15.9c-1.4,0-2.6,1-2.8,2.3
		L2.8,54c-0.2,0.9,0,1.8,0.6,2.5l5,6c0.8,0.9,2,1.3,3.1,0.9l11.8-3.7c1.1-0.3,2.2-0.1,3.1,0.5c0.9,0.7,1.4,1.7,1.4,2.8v8.6
		c0,0.9,0.4,1.7,1,2.2c0.7,0.6,1.5,0.8,2.4,0.6C40.3,73,64.2,69.6,96.2,69.6z"/>
</g>
<g>
	<g>
		<g>
			<path class="st1" d="M12.8,49.5c2.4-12.8,4.8-25.7,7.2-38.5c0.2-0.9,1-1.6,1.8-1.6c3.5,0,7,0,10.6,0c0.8,0,1.4,0.7,1.3,1.5
				c-0.1,0.7-0.2,1.5-0.4,2.2c-0.1,0.8-0.9,1.5-1.8,1.5c-1.5,0-3.1,0.1-4.6,0.1c-0.8,0-1.7,0.7-1.8,1.6c-0.5,2.6-0.9,5.1-1.4,7.7
				c-0.2,0.9,0.4,1.5,1.3,1.4c1.4-0.1,2.8-0.2,4.1-0.3c0.9-0.1,1.5,0.6,1.3,1.4c-0.1,0.7-0.2,1.5-0.4,2.2c-0.1,0.8-1,1.6-1.9,1.6
				c-1.4,0.1-2.8,0.3-4.2,0.4c-0.9,0.1-1.7,0.8-1.9,1.7c-0.9,5.3-1.9,10.6-2.8,15.9c-0.2,0.9-1,1.7-1.9,1.8
				c-1.1,0.2-2.2,0.4-3.3,0.6C13.3,51,12.6,50.4,12.8,49.5z"/>
		</g>
		<g>
			<path class="st1" d="M41.2,47.1c-2.3,0.3-4.1,0.1-5.4-0.5c-1.3-0.6-2.2-1.7-2.6-3.3c-0.4-1.6-0.4-3.6,0-6
				c0.9-5.9,1.9-11.8,2.8-17.6c0.4-2.2,1-4.1,1.8-5.7c0.9-1.6,2-2.8,3.4-3.6C42.7,9.4,44.5,9,46.6,9c1.6,0,2.9,0.2,3.9,0.7
				c1,0.5,1.8,1.1,2.4,2c0.6,0.9,0.9,1.9,1.1,3.1c0.2,1.2,0.2,2.6,0,4.2c-0.7,5.5-1.3,11-2,16.6c-0.3,2.3-0.8,4.3-1.7,5.9
				c-0.8,1.6-2,2.9-3.5,3.9C45.3,46.2,43.4,46.8,41.2,47.1z M41.9,42.2c0.8-0.1,1.5-0.4,1.9-0.8c0.5-0.5,0.8-1.1,1.1-2
				c0.3-0.9,0.5-2,0.6-3.3c0.8-5.7,1.6-11.5,2.3-17.2c0.2-1.6,0.2-2.8,0-3.7c-0.2-0.9-0.9-1.3-1.9-1.3c-1.1,0-1.9,0.5-2.4,1.3
				c-0.5,0.9-0.9,2.1-1.2,3.8c-0.9,5.9-1.7,11.7-2.6,17.6c-0.2,1.4-0.3,2.5-0.3,3.3c0,0.9,0.2,1.5,0.6,1.8
				C40.4,42.1,41,42.3,41.9,42.2z"/>
		</g>
		<g>
			<path class="st1" d="M66,44.7c-2.3,0.2-4.1-0.1-5.5-0.7c-1.4-0.7-2.3-1.7-2.8-3.2c-0.5-1.5-0.6-3.4-0.4-5.6
				c0.6-5.4,1.2-10.9,1.8-16.3c0.2-2.1,0.7-3.8,1.5-5.3c0.8-1.5,1.8-2.6,3.2-3.4C65.2,9.3,67,9,69.1,9c1.6,0,2.9,0.2,4,0.6
				c1.1,0.4,1.9,1.1,2.5,1.9c0.6,0.8,1.1,1.8,1.3,3c0.2,1.2,0.3,2.5,0.2,4c-0.3,5.2-0.6,10.5-0.9,15.7c-0.1,2.2-0.6,4-1.3,5.6
				c-0.7,1.5-1.8,2.7-3.3,3.5C70.2,44,68.3,44.5,66,44.7z M66.4,40.1c0.8,0,1.5-0.3,1.9-0.7c0.4-0.4,0.8-1,1-1.9
				c0.2-0.8,0.3-1.8,0.4-3.1c0.4-5.4,0.8-10.8,1.2-16.2c0.1-1.5,0-2.7-0.2-3.5c-0.3-0.8-0.9-1.2-2-1.2c-1.1,0-1.9,0.4-2.4,1.2
				c-0.5,0.8-0.8,2-0.9,3.6c-0.5,5.5-1,10.9-1.5,16.4c-0.1,1.3-0.1,2.3-0.1,3.1c0.1,0.8,0.3,1.4,0.7,1.8
				C64.9,40,65.6,40.1,66.4,40.1z"/>
		</g>
		<g>
			<path class="st1" d="M84.1,42.1c0.3-9,0.6-18,1-27c0-0.7-0.6-1.3-1.5-1.3c-0.5,0-1.1,0-1.6,0c-0.9,0-1.5-0.6-1.5-1.3
				c0-0.6,0.1-1.3,0.1-1.9c0-0.7,0.7-1.3,1.6-1.3c4,0,8,0,12.1,0c0.8,0,1.5,0.6,1.5,1.3c0,0.6,0,1.2,0,1.9c0,0.7-0.7,1.3-1.5,1.3
				c-0.5,0-1,0-1.4,0c-0.9,0-1.6,0.6-1.6,1.3C91,24.1,90.9,33,90.7,42c0,0.7-0.8,1.3-1.7,1.3c-1.1,0-2.2,0-3.3,0.1
				C84.8,43.4,84,42.9,84.1,42.1z"/>
		</g>
		<g>
			<path class="st1" d="M99.4,42c-0.1-10.4-0.2-20.9-0.3-31.3c0-0.7,0.7-1.3,1.5-1.3c2.4,0,4.7,0,7.1,0c2,0,3.6,0.3,4.8,0.8
				c1.2,0.5,2.1,1.4,2.7,2.5c0.6,1.1,1,2.6,1.1,4.5c0,0.4,0,0.7,0.1,1.1c0.1,1.8-0.1,3.3-0.6,4.4c-0.2,0.5-0.6,1-1,1.4
				c-0.6,0.5-0.5,1.4,0.2,1.9c0.3,0.2,0.6,0.5,0.8,0.8c0.7,0.8,1.2,1.7,1.6,2.9c0.4,1.1,0.6,2.4,0.7,3.7c0,0.3,0,0.6,0.1,0.9
				c0.1,2.3-0.1,4.2-0.7,5.6c-0.6,1.4-1.5,2.4-2.9,3c-1.4,0.6-3.2,0.9-5.5,0.8c-2.7-0.1-5.3-0.1-8-0.2C100.1,43.3,99.4,42.7,99.4,42
				z M105.5,21.8c0,0.7,0.7,1.3,1.6,1.3c0.2,0,0.5,0,0.7,0c0.5,0,1-0.1,1.3-0.2c0.3-0.1,0.6-0.3,0.8-0.7c0.2-0.3,0.3-0.8,0.3-1.3
				c0-0.6,0.1-1.3,0-2.2c0-0.7-0.1-1.4-0.1-2.1c0-0.9-0.2-1.6-0.4-2.1c-0.2-0.5-0.5-0.8-0.9-1c-0.4-0.2-0.9-0.3-1.6-0.3
				c-0.2,0-0.3,0-0.5,0c-0.8,0-1.5,0.6-1.5,1.3C105.3,17.1,105.4,19.5,105.5,21.8z M105.9,38c0,0.7,0.8,1.3,1.7,1.3
				c0.2,0,0.5,0,0.7,0c0.9,0,1.6-0.1,2.1-0.4c0.5-0.3,0.9-0.8,1.1-1.5c0.2-0.7,0.3-1.7,0.2-2.9c0-0.9-0.1-1.8-0.1-2.8
				c-0.1-1.7-0.3-2.9-0.7-3.6c-0.4-0.8-1.2-1.2-2.5-1.2c-0.4,0-0.7,0-1.1,0c-0.9,0-1.6,0.6-1.6,1.3C105.7,31.6,105.8,34.8,105.9,38z
				"/>
		</g>
		<g>
			<path class="st1" d="M121.5,42.4c1.2-10.5,2.2-21.2,3-31.9c0.1-0.7,0.7-1.2,1.4-1.1c1.8,0,3.6,0,5.3,0c0.8,0,1.4,0.5,1.6,1.2
				c3,11,6.3,22.1,9.7,33.5c0.3,0.9-0.4,1.5-1.5,1.4c-0.9-0.1-1.9-0.2-2.8-0.3c-0.8-0.1-1.6-0.6-1.8-1.3c-0.4-1.3-0.7-2.7-1.1-4
				c-0.2-0.7-0.9-1.2-1.8-1.3c-1.3-0.1-2.7-0.2-4-0.3c-0.8-0.1-1.5,0.4-1.5,1.1c-0.1,1.3-0.2,2.6-0.2,3.8c0,0.7-0.7,1.1-1.6,1.1
				c-1-0.1-2-0.1-3-0.2C122.2,44,121.4,43.2,121.5,42.4z M130.2,34c0.6,0,1.2,0.1,1.9,0.1c1,0.1,1.7-0.6,1.5-1.4
				c-1.4-5.5-2.8-10.9-4.2-16.3c0,0-0.1,0-0.1,0c-0.2,5.4-0.5,10.7-0.8,16.1C128.4,33.2,129.2,34,130.2,34z"/>
		</g>
		<g>
			<path class="st1" d="M146.8,44.7c-1.5-11.3-3-22.6-4.5-33.9c-0.1-0.8,0.5-1.4,1.3-1.4c1,0,2,0,3,0c0.8,0,1.6,0.6,1.7,1.4
				c1.4,9.9,2.9,19.8,4.3,29.7c0.1,0.8,0.9,1.5,1.9,1.6c1.7,0.2,3.3,0.4,5,0.6c0.9,0.1,1.8,0.9,1.9,1.7c0.1,0.7,0.2,1.4,0.3,2
				c0.1,0.8-0.5,1.4-1.4,1.2c-3.9-0.6-7.8-1.1-11.7-1.5C147.7,46.2,146.9,45.5,146.8,44.7z"/>
		</g>
		<g>
			<path class="st1" d="M165.4,47.1c-2-12-4-24.1-6-36.1c-0.1-0.8,0.4-1.5,1.3-1.5c1,0,2,0,3,0c0.8,0,1.6,0.7,1.8,1.5
				c1.9,10.6,3.8,21.3,5.6,31.9c0.1,0.9,1,1.7,1.9,1.8c1.7,0.3,3.3,0.5,5,0.8c0.9,0.1,1.8,1,1.9,1.9c0.1,0.7,0.3,1.5,0.4,2.2
				c0.2,0.9-0.4,1.5-1.4,1.3c-3.9-0.7-7.8-1.4-11.6-2C166.3,48.7,165.5,47.9,165.4,47.1z"/>
		</g>
	</g>
	<g>
		<g>
			<path class="st2" d="M13.9,55.8c-1.2,0-2.3-0.4-3.2-1.3c-1-1-1.5-2.5-1.2-4L16.7,12c0.5-2.5,2.7-4.4,5.1-4.4l10.6,0
				c1.4,0,2.7,0.6,3.6,1.6c0.9,1,1.3,2.4,1,3.8l-0.4,2.2c-0.4,2.4-2.6,4.3-5,4.4c-1.1,0-2.2,0.1-3.4,0.1l-0.7,3.8
				c0.5,0,0.9-0.1,1.4-0.1c1.5-0.1,2.9,0.4,3.8,1.5c0.9,1,1.3,2.4,1.1,3.8l-0.4,2.2c-0.4,2.4-2.4,4.2-4.9,4.5
				c-1.1,0.1-2.1,0.2-3.2,0.3l-2.7,14.9c-0.4,2.2-2.4,4.2-4.7,4.6c-1.1,0.2-2.2,0.4-3.3,0.6C14.5,55.8,14.2,55.8,13.9,55.8z
				 M12.8,51.1L12.8,51.1L12.8,51.1z M13.6,49.1C13.6,49.1,13.6,49.1,13.6,49.1C13.6,49.1,13.6,49.1,13.6,49.1z M24.4,35.8
				C24.4,35.8,24.4,35.8,24.4,35.8C24.4,35.8,24.4,35.8,24.4,35.8z M20.7,27.6L20,31.1c0.6-0.7,1.3-1.2,2.1-1.6
				c-0.2-0.2-0.4-0.3-0.6-0.5C21.2,28.5,20.9,28.1,20.7,27.6z M24.8,23.7C24.8,23.7,24.8,23.7,24.8,23.7
				C24.8,23.7,24.8,23.7,24.8,23.7z M27.1,19.7C27.1,19.7,27,19.7,27.1,19.7C27,19.7,27.1,19.7,27.1,19.7z M23.2,14.4l-0.1,0.3
				c0.1-0.1,0.2-0.2,0.3-0.3L23.2,14.4z M21.9,14.4L21.9,14.4C21.9,14.4,21.9,14.4,21.9,14.4z"/>
		</g>
		<g>
			<path class="st2" d="M39.2,52.2c-1.9,0-3.5-0.3-4.9-1c-2.2-1.1-3.7-3-4.3-5.5c-0.5-2-0.6-4.5-0.1-7.4l2.8-17.6
				c0.4-2.6,1.1-4.9,2.2-6.8c1.2-2.1,2.7-3.8,4.7-4.9c1.9-1.1,4.3-1.7,7-1.7c0,0,0,0,0,0c2,0,3.8,0.3,5.3,1c1.6,0.7,2.9,1.8,3.9,3.2
				c0.9,1.3,1.4,2.8,1.6,4.6c0.2,1.5,0.2,3.2,0,5l-2,16.6c-0.3,2.7-1,5.1-2,7c-1.1,2.2-2.7,3.9-4.7,5.2c-1.9,1.2-4.3,2-7.1,2.4
				C40.7,52.1,39.9,52.2,39.2,52.2z M36.6,44.3c0.1,0.2,0.1,0.3,0.2,0.4C36.8,44.6,36.7,44.5,36.6,44.3z M41.9,43.8L41.9,43.8
				L41.9,43.8z"/>
		</g>
		<g>
			<path class="st2" d="M64.7,49.7c-2.2,0-4.1-0.4-5.7-1.1c-2.2-1.1-3.7-2.8-4.5-5.2c-0.7-2-0.9-4.3-0.6-7.1L55.8,20
				c0.3-2.5,0.9-4.6,1.8-6.5c1.1-2,2.6-3.6,4.6-4.8c1.9-1.1,4.2-1.6,6.9-1.6c0,0,0,0,0,0c2,0,3.8,0.3,5.2,0.9c1.6,0.7,3,1.6,3.9,2.9
				c0.9,1.2,1.6,2.7,1.9,4.3c0.3,1.5,0.4,3.1,0.3,4.9l-0.9,15.7c-0.2,2.6-0.7,4.9-1.6,6.8c-1,2.1-2.6,3.8-4.7,5
				c-1.9,1.1-4.3,1.7-7.1,1.9l0,0C65.7,49.7,65.2,49.7,64.7,49.7z M66,46.3L66,46.3L66,46.3z M67.2,39.3L67.2,39.3L67.2,39.3z"/>
		</g>
		<g>
			<path class="st2" d="M85.7,48.4c-1.4,0-2.7-0.5-3.7-1.5c-0.9-0.9-1.3-2.1-1.3-3.3l0.9-24.8c-1.2-0.1-2.4-0.6-3.3-1.5
				c-0.9-0.9-1.3-2.1-1.3-3.4l0.1-1.9c0.1-2.5,2.3-4.5,5-4.5l12.1,0c1.3,0,2.6,0.5,3.5,1.4c0.9,0.9,1.4,2,1.4,3.2l0,1.9
				c0,2.5-2,4.5-4.6,4.7l-0.4,24.9c0,2.6-2.3,4.6-5,4.7c-1.1,0-2.2,0-3.3,0.1C85.7,48.4,85.7,48.4,85.7,48.4z M87.5,43.9L87.5,43.9
				C87.5,43.9,87.5,43.9,87.5,43.9C87.5,43.9,87.5,43.9,87.5,43.9z M84.1,43.7L84.1,43.7L84.1,43.7z M87.3,43.5
				C87.3,43.5,87.3,43.5,87.3,43.5L87.3,43.5z M87.7,14.3c0.1,0.2,0.3,0.5,0.4,0.7c0.1-0.3,0.2-0.5,0.4-0.7H87.7z M81.9,12.1
				C81.9,12.1,81.9,12.1,81.9,12.1L81.9,12.1z"/>
		</g>
		<g>
			<path class="st2" d="M109.7,48.4c-0.2,0-0.5,0-0.8,0c-2.6-0.1-5.3-0.1-8-0.1c-2.8,0-5-2.1-5-4.7l-0.3-31.3c0-1.2,0.5-2.4,1.3-3.3
				c0.9-0.9,2.2-1.5,3.6-1.5l7.1,0c2.5,0,4.5,0.4,6.2,1.1c1.9,0.8,3.4,2.2,4.4,4c0.8,1.6,1.3,3.5,1.5,5.9l0.1,1.1
				c0.1,2.3-0.1,4.3-0.8,5.9c-0.1,0.2-0.2,0.5-0.3,0.7c0.9,1.1,1.6,2.4,2.1,3.9c0.4,1.4,0.7,2.9,0.8,4.5l0.1,0.9
				c0.2,2.9-0.1,5.2-0.9,7c-0.9,2.2-2.5,3.9-4.7,4.9C114.2,48.1,112.2,48.4,109.7,48.4z M102.7,43.6L102.7,43.6L102.7,43.6z
				 M102.7,43.5C102.7,43.5,102.7,43.5,102.7,43.5C102.7,43.5,102.7,43.5,102.7,43.5z M102.7,41.5c0.1,0,0.2,0,0.2,0
				c-0.1-0.2-0.2-0.4-0.2-0.6L102.7,41.5z M109.3,39.6L109.3,39.6C109.3,39.6,109.3,39.6,109.3,39.6
				C109.3,39.6,109.3,39.6,109.3,39.6z M102.6,25.5l0,2.7c0.2-0.5,0.5-1,0.9-1.4C103.2,26.4,102.8,25.9,102.6,25.5z M117.1,28.1
				C117.1,28.1,117.1,28.1,117.1,28.1C117.1,28.1,117.1,28.1,117.1,28.1z M108.8,23.3L108.8,23.3L108.8,23.3z M106.9,22.5
				L106.9,22.5L106.9,22.5z M106.8,18.4C106.8,18.4,106.8,18.4,106.8,18.4L106.8,18.4z"/>
		</g>
		<g>
			<path class="st2" d="M141.3,50.5c-0.2,0-0.4,0-0.5,0c-0.9-0.1-1.8-0.2-2.8-0.3c-2.2-0.2-4.2-1.8-4.7-3.8c-0.3-1-0.5-1.9-0.8-2.9
				c-0.4,0-0.8-0.1-1.1-0.1c0,0.5-0.1,1.1-0.1,1.6c-0.1,1.2-0.6,2.3-1.5,3c-1,0.9-2.3,1.3-3.7,1.2c-1-0.1-2-0.1-3-0.2
				c-1.5-0.1-2.9-0.8-3.8-1.9c-0.8-1-1.2-2.2-1.1-3.5c1.2-10.5,2.2-21.2,3-31.8c0.2-2.4,2.2-4.3,4.8-4.3c0,0,0,0,0,0l5.3,0
				c2.3,0,4.3,1.5,4.9,3.6c3,10.7,6.2,21.9,9.6,33.4c0.4,1.4,0.1,3-0.8,4.1C144.1,49.8,142.7,50.5,141.3,50.5z M139.3,46.6
				C139.3,46.6,139.3,46.6,139.3,46.6C139.3,46.6,139.3,46.6,139.3,46.6z M124.8,44.4C124.8,44.4,124.8,44.4,124.8,44.4
				C124.8,44.4,124.8,44.4,124.8,44.4z M121.5,44L121.5,44L121.5,44z M141.4,43.7C141.4,43.7,141.4,43.7,141.4,43.7
				C141.4,43.7,141.4,43.7,141.4,43.7z M125.7,36.4c-0.1,0.7-0.1,1.4-0.2,2.1c0.3-0.4,0.6-0.7,1-1c-0.1-0.1-0.1-0.1-0.2-0.2
				C126.1,36.9,125.9,36.7,125.7,36.4z M136,37.3c0.2,0.1,0.4,0.2,0.7,0.4c-0.1-0.3-0.2-0.6-0.3-1C136.3,37,136.1,37.2,136,37.3z
				 M131.8,34.2C131.8,34.2,131.8,34.2,131.8,34.2C131.8,34.2,131.8,34.2,131.8,34.2z M127.7,14.4c0,0.2,0,0.4,0,0.6
				c0.5-0.3,1.1-0.4,1.7-0.4c0.2,0,0.5,0,0.7,0.1c0-0.1-0.1-0.2-0.1-0.3L127.7,14.4z"/>
		</g>
		<g>
			<path class="st2" d="M160.6,52.8c-0.2,0-0.5,0-0.7-0.1c-3.9-0.5-7.8-1.1-11.6-1.5c-2.5-0.3-4.5-2.2-4.8-4.5L139,12.8
				c-0.2-1.3,0.2-2.6,1.1-3.6c0.9-1,2.2-1.6,3.6-1.6c0,0,0,0,0,0l3,0c2.5,0,4.7,1.9,5.1,4.3l4.2,28.6c1.4,0.2,2.7,0.3,4.1,0.5
				c2.4,0.3,4.4,2.2,4.8,4.5l0.3,2c0.2,1.4-0.2,2.8-1.2,3.8C163.1,52.3,161.9,52.8,160.6,52.8z M158.4,48.7
				C158.4,48.7,158.4,48.7,158.4,48.7L158.4,48.7z M150.1,45.8L150.1,45.8C150.1,45.8,150.1,45.8,150.1,45.8
				C150.1,45.8,150.1,45.8,150.1,45.8z M150,44.6c0,0,0.1,0,0.1,0c-0.1-0.1-0.1-0.2-0.1-0.2L150,44.6z M156.1,41.7L156.1,41.7
				C156.1,41.7,156.1,41.7,156.1,41.7z M146.7,14.4C146.7,14.4,146.7,14.4,146.7,14.4L146.7,14.4z"/>
		</g>
		<g>
			<path class="st2" d="M179.2,55.8c-0.3,0-0.6,0-0.9-0.1c-3.8-0.7-7.7-1.4-11.6-2c-2.4-0.4-4.4-2.3-4.7-4.5l-6-36.1
				c-0.2-1.4,0.1-2.8,1-3.8c0.9-1,2.2-1.6,3.6-1.6c0,0,0,0,0,0l3,0c2.5,0,4.7,1.9,5.1,4.3l5.5,31.1c1.4,0.2,2.8,0.4,4.3,0.7
				c2.3,0.4,4.3,2.3,4.7,4.6l0.4,2.2c0.3,1.5-0.1,3-1.2,4C181.6,55.4,180.5,55.8,179.2,55.8z M177.4,50.4
				C177.4,50.4,177.4,50.4,177.4,50.4C177.4,50.4,177.4,50.4,177.4,50.4z M168.7,48.1L168.7,48.1L168.7,48.1z M168.5,47.2
				C168.6,47.2,168.6,47.2,168.5,47.2c0,0,0-0.1,0-0.1L168.5,47.2z M174.4,43.9L174.4,43.9C174.4,43.9,174.4,43.9,174.4,43.9z
				 M163.6,14.4C163.6,14.4,163.6,14.4,163.6,14.4L163.6,14.4z"/>
		</g>
	</g>
	<g>
		<g>
			<path class="st0" d="M12.8,49.5c2.4-12.8,4.8-25.7,7.2-38.5c0.2-0.9,1-1.6,1.8-1.6c3.5,0,7,0,10.6,0c0.8,0,1.4,0.7,1.3,1.5
				c-0.1,0.7-0.2,1.5-0.4,2.2c-0.1,0.8-0.9,1.5-1.8,1.5c-1.5,0-3.1,0.1-4.6,0.1c-0.8,0-1.7,0.7-1.8,1.6c-0.5,2.6-0.9,5.1-1.4,7.7
				c-0.2,0.9,0.4,1.5,1.3,1.4c1.4-0.1,2.8-0.2,4.1-0.3c0.9-0.1,1.5,0.6,1.3,1.4c-0.1,0.7-0.2,1.5-0.4,2.2c-0.1,0.8-1,1.6-1.9,1.6
				c-1.4,0.1-2.8,0.3-4.2,0.4c-0.9,0.1-1.7,0.8-1.9,1.7c-0.9,5.3-1.9,10.6-2.8,15.9c-0.2,0.9-1,1.7-1.9,1.8
				c-1.1,0.2-2.2,0.4-3.3,0.6C13.3,51,12.6,50.4,12.8,49.5z"/>
		</g>
		<g>
			<path class="st0" d="M41.2,47.1c-2.3,0.3-4.1,0.1-5.4-0.5c-1.3-0.6-2.2-1.7-2.6-3.3c-0.4-1.6-0.4-3.6,0-6
				c0.9-5.9,1.9-11.8,2.8-17.6c0.4-2.2,1-4.1,1.8-5.7c0.9-1.6,2-2.8,3.4-3.6C42.7,9.4,44.5,9,46.6,9c1.6,0,2.9,0.2,3.9,0.7
				c1,0.5,1.8,1.1,2.4,2c0.6,0.9,0.9,1.9,1.1,3.1c0.2,1.2,0.2,2.6,0,4.2c-0.7,5.5-1.3,11-2,16.6c-0.3,2.3-0.8,4.3-1.7,5.9
				c-0.8,1.6-2,2.9-3.5,3.9C45.3,46.2,43.4,46.8,41.2,47.1z M41.9,42.2c0.8-0.1,1.5-0.4,1.9-0.8c0.5-0.5,0.8-1.1,1.1-2
				c0.3-0.9,0.5-2,0.6-3.3c0.8-5.7,1.6-11.5,2.3-17.2c0.2-1.6,0.2-2.8,0-3.7c-0.2-0.9-0.9-1.3-1.9-1.3c-1.1,0-1.9,0.5-2.4,1.3
				c-0.5,0.9-0.9,2.1-1.2,3.8c-0.9,5.9-1.7,11.7-2.6,17.6c-0.2,1.4-0.3,2.5-0.3,3.3c0,0.9,0.2,1.5,0.6,1.8
				C40.4,42.1,41,42.3,41.9,42.2z"/>
		</g>
		<g>
			<path class="st0" d="M66,44.7c-2.3,0.2-4.1-0.1-5.5-0.7c-1.4-0.7-2.3-1.7-2.8-3.2c-0.5-1.5-0.6-3.4-0.4-5.6
				c0.6-5.4,1.2-10.9,1.8-16.3c0.2-2.1,0.7-3.8,1.5-5.3c0.8-1.5,1.8-2.6,3.2-3.4C65.2,9.3,67,9,69.1,9c1.6,0,2.9,0.2,4,0.6
				c1.1,0.4,1.9,1.1,2.5,1.9c0.6,0.8,1.1,1.8,1.3,3c0.2,1.2,0.3,2.5,0.2,4c-0.3,5.2-0.6,10.5-0.9,15.7c-0.1,2.2-0.6,4-1.3,5.6
				c-0.7,1.5-1.8,2.7-3.3,3.5C70.2,44,68.3,44.5,66,44.7z M66.4,40.1c0.8,0,1.5-0.3,1.9-0.7c0.4-0.4,0.8-1,1-1.9
				c0.2-0.8,0.3-1.8,0.4-3.1c0.4-5.4,0.8-10.8,1.2-16.2c0.1-1.5,0-2.7-0.2-3.5c-0.3-0.8-0.9-1.2-2-1.2c-1.1,0-1.9,0.4-2.4,1.2
				c-0.5,0.8-0.8,2-0.9,3.6c-0.5,5.5-1,10.9-1.5,16.4c-0.1,1.3-0.1,2.3-0.1,3.1c0.1,0.8,0.3,1.4,0.7,1.8
				C64.9,40,65.6,40.1,66.4,40.1z"/>
		</g>
		<g>
			<path class="st0" d="M84.1,42.1c0.3-9,0.6-18,1-27c0-0.7-0.6-1.3-1.5-1.3c-0.5,0-1.1,0-1.6,0c-0.9,0-1.5-0.6-1.5-1.3
				c0-0.6,0.1-1.3,0.1-1.9c0-0.7,0.7-1.3,1.6-1.3c4,0,8,0,12.1,0c0.8,0,1.5,0.6,1.5,1.3c0,0.6,0,1.2,0,1.9c0,0.7-0.7,1.3-1.5,1.3
				c-0.5,0-1,0-1.4,0c-0.9,0-1.6,0.6-1.6,1.3C91,24.1,90.9,33,90.7,42c0,0.7-0.8,1.3-1.7,1.3c-1.1,0-2.2,0-3.3,0.1
				C84.8,43.4,84,42.9,84.1,42.1z"/>
		</g>
		<g>
			<path class="st0" d="M99.4,42c-0.1-10.4-0.2-20.9-0.3-31.3c0-0.7,0.7-1.3,1.5-1.3c2.4,0,4.7,0,7.1,0c2,0,3.6,0.3,4.8,0.8
				c1.2,0.5,2.1,1.4,2.7,2.5c0.6,1.1,1,2.6,1.1,4.5c0,0.4,0,0.7,0.1,1.1c0.1,1.8-0.1,3.3-0.6,4.4c-0.2,0.5-0.6,1-1,1.4
				c-0.6,0.5-0.5,1.4,0.2,1.9c0.3,0.2,0.6,0.5,0.8,0.8c0.7,0.8,1.2,1.7,1.6,2.9c0.4,1.1,0.6,2.4,0.7,3.7c0,0.3,0,0.6,0.1,0.9
				c0.1,2.3-0.1,4.2-0.7,5.6c-0.6,1.4-1.5,2.4-2.9,3c-1.4,0.6-3.2,0.9-5.5,0.8c-2.7-0.1-5.3-0.1-8-0.2C100.1,43.3,99.4,42.7,99.4,42
				z M105.5,21.8c0,0.7,0.7,1.3,1.6,1.3c0.2,0,0.5,0,0.7,0c0.5,0,1-0.1,1.3-0.2c0.3-0.1,0.6-0.3,0.8-0.7c0.2-0.3,0.3-0.8,0.3-1.3
				c0-0.6,0.1-1.3,0-2.2c0-0.7-0.1-1.4-0.1-2.1c0-0.9-0.2-1.6-0.4-2.1c-0.2-0.5-0.5-0.8-0.9-1c-0.4-0.2-0.9-0.3-1.6-0.3
				c-0.2,0-0.3,0-0.5,0c-0.8,0-1.5,0.6-1.5,1.3C105.3,17.1,105.4,19.5,105.5,21.8z M105.9,38c0,0.7,0.8,1.3,1.7,1.3
				c0.2,0,0.5,0,0.7,0c0.9,0,1.6-0.1,2.1-0.4c0.5-0.3,0.9-0.8,1.1-1.5c0.2-0.7,0.3-1.7,0.2-2.9c0-0.9-0.1-1.8-0.1-2.8
				c-0.1-1.7-0.3-2.9-0.7-3.6c-0.4-0.8-1.2-1.2-2.5-1.2c-0.4,0-0.7,0-1.1,0c-0.9,0-1.6,0.6-1.6,1.3C105.7,31.6,105.8,34.8,105.9,38z
				"/>
		</g>
		<g>
			<path class="st0" d="M121.5,42.4c1.2-10.5,2.2-21.2,3-31.9c0.1-0.7,0.7-1.2,1.4-1.1c1.8,0,3.6,0,5.3,0c0.8,0,1.4,0.5,1.6,1.2
				c3,11,6.3,22.1,9.7,33.5c0.3,0.9-0.4,1.5-1.5,1.4c-0.9-0.1-1.9-0.2-2.8-0.3c-0.8-0.1-1.6-0.6-1.8-1.3c-0.4-1.3-0.7-2.7-1.1-4
				c-0.2-0.7-0.9-1.2-1.8-1.3c-1.3-0.1-2.7-0.2-4-0.3c-0.8-0.1-1.5,0.4-1.5,1.1c-0.1,1.3-0.2,2.6-0.2,3.8c0,0.7-0.7,1.1-1.6,1.1
				c-1-0.1-2-0.1-3-0.2C122.2,44,121.4,43.2,121.5,42.4z M130.2,34c0.6,0,1.2,0.1,1.9,0.1c1,0.1,1.7-0.6,1.5-1.4
				c-1.4-5.5-2.8-10.9-4.2-16.3c0,0-0.1,0-0.1,0c-0.2,5.4-0.5,10.7-0.8,16.1C128.4,33.2,129.2,34,130.2,34z"/>
		</g>
		<g>
			<path class="st0" d="M146.8,44.7c-1.5-11.3-3-22.6-4.5-33.9c-0.1-0.8,0.5-1.4,1.3-1.4c1,0,2,0,3,0c0.8,0,1.6,0.6,1.7,1.4
				c1.4,9.9,2.9,19.8,4.3,29.7c0.1,0.8,0.9,1.5,1.9,1.6c1.7,0.2,3.3,0.4,5,0.6c0.9,0.1,1.8,0.9,1.9,1.7c0.1,0.7,0.2,1.4,0.3,2
				c0.1,0.8-0.5,1.4-1.4,1.2c-3.9-0.6-7.8-1.1-11.7-1.5C147.7,46.2,146.9,45.5,146.8,44.7z"/>
		</g>
		<g>
			<path class="st0" d="M165.4,47.1c-2-12-4-24.1-6-36.1c-0.1-0.8,0.4-1.5,1.3-1.5c1,0,2,0,3,0c0.8,0,1.6,0.7,1.8,1.5
				c1.9,10.6,3.8,21.3,5.6,31.9c0.1,0.9,1,1.7,1.9,1.8c1.7,0.3,3.3,0.5,5,0.8c0.9,0.1,1.8,1,1.9,1.9c0.1,0.7,0.3,1.5,0.4,2.2
				c0.2,0.9-0.4,1.5-1.4,1.3c-3.9-0.7-7.8-1.4-11.6-2C166.3,48.7,165.5,47.9,165.4,47.1z"/>
		</g>
	</g>
</g>
<g>
	<g>
		<g>
			<path class="st3" d="M39.4,68.5c1.1-3.9,2.3-7.8,3.4-11.7c-0.5,0.1-1.1,0.1-1.6,0.2c0.1-0.4,0.3-0.8,0.4-1.3
				c1.6-0.2,3.1-0.4,4.7-0.6c-0.1,0.4-0.2,0.8-0.3,1.3c-0.5,0.1-1,0.1-1.5,0.2c-1.1,3.9-2.2,7.8-3.3,11.7
				C40.6,68.4,40,68.5,39.4,68.5z"/>
		</g>
		<g>
			<path class="st3" d="M51.3,67.4c-0.8,0.1-1.3,0-1.7-0.2c-0.4-0.2-0.6-0.6-0.6-1.2c0-0.6,0-1.3,0.2-2.1c0.5-1.9,0.9-3.8,1.4-5.7
				c0.2-0.7,0.4-1.4,0.7-2c0.3-0.6,0.7-1,1.2-1.4c0.5-0.3,1.1-0.6,1.9-0.6c0.6-0.1,1,0,1.3,0.1c0.3,0.1,0.5,0.4,0.7,0.7
				c0.1,0.3,0.2,0.7,0.2,1.1c0,0.4-0.1,0.9-0.2,1.5c-0.4,1.9-0.8,3.8-1.2,5.7c-0.2,0.9-0.4,1.6-0.7,2.2c-0.3,0.6-0.7,1-1.2,1.4
				C52.6,67.1,52,67.3,51.3,67.4z M51.6,66.1c0.3,0,0.6-0.1,0.8-0.3c0.2-0.2,0.4-0.5,0.5-0.8c0.1-0.4,0.3-0.9,0.4-1.5
				c0.4-1.9,0.9-3.9,1.3-5.8c0.2-0.8,0.2-1.3,0.2-1.7c-0.1-0.4-0.3-0.5-0.8-0.5c-0.5,0-0.8,0.3-1.1,0.6c-0.3,0.4-0.5,1-0.7,1.7
				c-0.5,1.9-0.9,3.9-1.4,5.8c-0.2,0.6-0.2,1.1-0.3,1.5c0,0.4,0,0.6,0.2,0.8C51,66,51.2,66.1,51.6,66.1z"/>
		</g>
		<g>
			<path class="st3" d="M63.7,66.3c-0.8,0.1-1.3,0-1.7-0.2c-0.4-0.2-0.6-0.6-0.7-1.1c-0.1-0.5-0.1-1.1,0.1-1.9
				c0.6-3.2,1.2-6.4,1.7-9.5c0.6,0,1.1-0.1,1.7-0.1c-0.5,3.2-1.1,6.3-1.6,9.5C63,63.4,63,63.8,63,64.1c0,0.3,0,0.6,0.2,0.7
				c0.1,0.2,0.4,0.2,0.8,0.2c0.4,0,0.7-0.1,0.9-0.3c0.2-0.2,0.3-0.4,0.4-0.8c0.1-0.3,0.2-0.7,0.2-1.2c0.5-3.2,1-6.3,1.5-9.5
				c0.6,0,1.1-0.1,1.7-0.1c-0.5,3.2-1,6.3-1.4,9.5c-0.1,0.8-0.3,1.4-0.6,1.9c-0.3,0.5-0.6,0.9-1.1,1.2
				C65.1,66.1,64.5,66.3,63.7,66.3z"/>
		</g>
		<g>
			<path class="st3" d="M73.4,65.6c0.5-4.3,1-8.5,1.5-12.8c1,0,2-0.1,3-0.1c0.8,0,1.3,0.1,1.6,0.3c0.3,0.2,0.5,0.6,0.6,1.1
				c0.1,0.5,0.1,1.1,0,1.8c-0.1,0.8-0.2,1.4-0.4,1.9c-0.2,0.5-0.6,0.8-1.2,0.9c0.3,0,0.5,0.1,0.6,0.3c0.2,0.2,0.3,0.4,0.3,0.7
				c0.1,0.3,0.1,0.8,0.1,1.4c0,0.6,0,1.3-0.1,2.1c0,0.1,0,0.2,0,0.4c0,0.2,0,0.3,0,0.5c0,0.2,0,0.4,0,0.5c0,0.2,0,0.3,0,0.5
				c0,0.1,0,0.2,0,0.3c-0.6,0-1.2,0-1.8,0.1c0,0,0-0.1,0-0.3c0-0.1,0-0.3,0-0.6c0-0.2,0-0.5,0.1-0.9c0-0.3,0.1-0.7,0.1-1.1
				c0-0.4,0.1-0.9,0.1-1.4c0-0.5,0.1-0.9,0-1.1c0-0.3-0.1-0.4-0.3-0.5c-0.2-0.1-0.4-0.1-0.8-0.1c-0.3,0-0.7,0-1,0
				c-0.2,2.1-0.4,4.1-0.7,6.2C74.6,65.6,74,65.6,73.4,65.6z M76,58.3c0.4,0,0.7,0,1.1,0c0.3,0,0.6-0.1,0.7-0.2
				c0.2-0.1,0.3-0.3,0.4-0.7c0.1-0.3,0.2-0.8,0.2-1.5c0,0,0-0.1,0-0.1c0.1-0.5,0.1-0.9,0-1.2c0-0.3-0.1-0.5-0.3-0.5
				c-0.2-0.1-0.4-0.1-0.7-0.1c-0.4,0-0.7,0-1.1,0C76.3,55.4,76.1,56.8,76,58.3z"/>
		</g>
		<g>
			<path class="st3" d="M85.8,65.2c0.2-4.2,0.5-8.5,0.7-12.7c0.4,0,0.8,0,1.3,0c1,2.9,2,5.7,3.1,8.6c0-1.2,0-2.5-0.1-3.7
				c0-1.7,0.1-3.3,0.1-5c0.5,0,1,0,1.5,0c-0.1,4.2-0.2,8.5-0.3,12.7c-0.4,0-0.9,0-1.3,0c-1.1-2.9-2.1-5.8-3-8.7c0,1.1,0,2.1,0,3.2
				c-0.1,1.8-0.2,3.7-0.2,5.5C86.9,65.2,86.4,65.2,85.8,65.2z"/>
		</g>
		<g>
			<path class="st3" d="M98.1,65.1c0.7-4.2,1.4-8.5,2-12.7c0.7,0,1.3,0,2,0c0.9,4.3,1.9,8.5,3,12.8c-0.6,0-1.1,0-1.7,0
				c-0.2-0.8-0.3-1.6-0.5-2.4c-0.9,0-1.8,0-2.7,0c-0.1,0.8-0.2,1.6-0.3,2.4C99.2,65.1,98.6,65.1,98.1,65.1z M100.3,61.4
				c0.8,0,1.5,0,2.3,0c-0.5-2.3-0.9-4.5-1.4-6.7c0,0,0,0,0,0C100.9,57,100.6,59.2,100.3,61.4z"/>
		</g>
		<g>
			<path class="st3" d="M111,65.3c-0.3-4.3-0.7-8.5-1-12.8c0.6,0,1.3,0,1.9,0.1c1,3.4,2.1,6.9,3.2,10.3c0.4-3.4,0.8-6.7,1.1-10.1
				c0.6,0,1.3,0.1,1.9,0.1c0.5,4.3,1.1,8.5,1.6,12.8c-0.5,0-1-0.1-1.5-0.1c-0.2-1.6-0.4-3.2-0.6-4.8c-0.1-1.6-0.3-3.2-0.4-4.8
				c-0.4,3.2-0.8,6.3-1.2,9.5c-0.4,0-0.9,0-1.3-0.1c-1.1-3.2-2.2-6.5-3.2-9.7c0.2,1.6,0.4,3.2,0.6,4.8c0.1,1.6,0.3,3.2,0.4,4.8
				C112.1,65.3,111.5,65.3,111,65.3z"/>
		</g>
		<g>
			<path class="st3" d="M126.5,66.1c-0.7-4.3-1.3-8.5-2-12.8c1.4,0.1,2.8,0.2,4.3,0.3c0.1,0.4,0.2,0.8,0.2,1.3
				c-0.9-0.1-1.7-0.1-2.6-0.2c0.2,1.5,0.5,2.9,0.7,4.4c0.8,0.1,1.7,0.1,2.5,0.2c0.1,0.4,0.2,0.8,0.2,1.3c-0.8-0.1-1.7-0.1-2.5-0.2
				c0.3,1.6,0.5,3.1,0.8,4.7c0.9,0.1,1.9,0.1,2.8,0.2c0.1,0.4,0.2,0.8,0.2,1.3C129.6,66.3,128.1,66.2,126.5,66.1z"/>
		</g>
		<g>
			<path class="st3" d="M137.3,66.9c-0.9-4.3-1.8-8.6-2.7-12.9c0.4,0,0.8,0.1,1.3,0.1c1.7,3,3.5,6.1,5.4,9.1
				c-0.4-1.2-0.7-2.5-1.1-3.7c-0.4-1.7-0.8-3.4-1.2-5c0.5,0,1,0.1,1.5,0.1c1.1,4.3,2.1,8.6,3.2,12.9c-0.4,0-0.9-0.1-1.3-0.1
				c-1.8-3.1-3.6-6.1-5.4-9.2c0.3,1.1,0.5,2.2,0.8,3.3c0.4,1.9,0.8,3.7,1.2,5.6C138.4,67,137.9,67,137.3,66.9z"/>
		</g>
		<g>
			<path class="st3" d="M151,68.3c-1.1-3.9-2.2-7.8-3.3-11.7c-0.5-0.1-1.1-0.1-1.6-0.2c-0.1-0.4-0.2-0.8-0.3-1.3
				c1.6,0.2,3.1,0.4,4.7,0.6c0.1,0.4,0.3,0.8,0.4,1.3c-0.5-0.1-1-0.1-1.5-0.2c1.1,3.9,2.3,7.8,3.4,11.7
				C152.2,68.5,151.6,68.4,151,68.3z"/>
		</g>
	</g>
	<g>
		<g>
			<path class="st2" d="M37.2,70.7c-0.1,0-0.2,0-0.2-0.1c-0.1-0.1-0.1-0.2-0.1-0.3L40.2,59L39,59.2c-0.1,0-0.2,0-0.3-0.1
				c-0.1-0.1-0.1-0.2-0.1-0.3l1.4-4.6c0-0.1,0.1-0.2,0.2-0.2l1-0.1c1.6-0.2,3.1-0.4,4.7-0.6l2.4-0.3c0.1,0,0.2,0,0.2,0.1
				c0.1,0.1,0.1,0.2,0.1,0.3L47.4,58c0,0.1-0.1,0.2-0.2,0.2l-1.3,0.1l-3.2,11.5c0,0.1-0.1,0.2-0.2,0.2c0,0-2.2,0.3-2.8,0.3
				L37.2,70.7C37.2,70.7,37.2,70.7,37.2,70.7z M40.6,58.4c0.1,0,0.2,0,0.2,0.1c0.1,0.1,0.1,0.2,0.1,0.3l-3.3,11.3l2-0.2
				c0.5-0.1,2.1-0.3,2.6-0.3L45.4,58c0-0.1,0.1-0.2,0.2-0.2l1.3-0.1l1.1-4l-1.9,0.2c-1.6,0.2-3.1,0.4-4.7,0.6l-0.9,0.1l-1.2,4
				L40.6,58.4C40.5,58.4,40.6,58.4,40.6,58.4z"/>
		</g>
		<g>
			<path class="st2" d="M50.7,69.3c-0.9,0-1.6-0.2-2.2-0.6c-0.6-0.4-1.4-1.2-1.5-2.6c-0.1-0.8,0-1.7,0.3-2.7l1.4-5.7
				c0.2-0.9,0.5-1.7,0.9-2.4c0.4-0.8,1-1.5,1.8-2c0.8-0.5,1.7-0.9,2.8-1c0.9-0.1,1.6,0,2.3,0.3c0.8,0.3,1.3,0.9,1.7,1.7
				c0.2,0.6,0.3,1.2,0.3,1.9c0,0.5-0.1,1.2-0.2,1.8l-1.2,5.7c-0.2,1-0.5,1.9-0.9,2.6c-0.5,0.9-1.1,1.6-1.8,2.1
				c-0.7,0.5-1.7,0.8-2.7,0.9C51.2,69.3,51,69.3,50.7,69.3z M54.8,52.8c-0.2,0-0.4,0-0.6,0c-1,0.1-1.8,0.4-2.5,0.9
				c-0.7,0.5-1.2,1.1-1.6,1.8c-0.3,0.7-0.6,1.4-0.8,2.3l-1.4,5.7c-0.2,1-0.3,1.8-0.3,2.5c0.1,1.2,0.7,1.9,1.2,2.2
				c0.6,0.4,1.4,0.6,2.5,0.4c1-0.1,1.8-0.4,2.5-0.8c0.7-0.4,1.2-1.1,1.7-1.9c0.4-0.7,0.6-1.5,0.9-2.5l1.2-5.7
				c0.1-0.6,0.2-1.2,0.2-1.7c0-0.6-0.1-1.2-0.3-1.7c-0.3-0.6-0.7-1.1-1.4-1.4C55.8,52.9,55.3,52.8,54.8,52.8z"/>
		</g>
		<g>
			<path class="st2" d="M63.3,68.2c-0.9,0-1.6-0.2-2.2-0.5c-0.9-0.5-1.5-1.3-1.7-2.4c-0.1-0.7-0.1-1.6,0.1-2.6l2-10.7
				c0-0.1,0.1-0.2,0.3-0.2c0,0,2.4-0.2,2.9-0.2l2-0.1c0,0,0,0,0.1,0c0.3,0,1.4-0.1,1.9-0.1l2-0.1c0.1,0,0.2,0,0.2,0.1
				c0.1,0.1,0.1,0.1,0.1,0.2L69.1,63c-0.1,1-0.4,1.8-0.7,2.5c-0.4,0.8-1,1.5-1.8,2c-0.7,0.4-1.6,0.7-2.7,0.7
				C63.7,68.2,63.5,68.2,63.3,68.2z M62,52.3L60,62.9c-0.2,1-0.2,1.7-0.1,2.4c0.2,0.9,0.7,1.6,1.4,2c0.6,0.3,1.4,0.5,2.5,0.4
				c1-0.1,1.8-0.3,2.4-0.7c0.7-0.4,1.2-1,1.6-1.7c0.3-0.7,0.6-1.4,0.7-2.3l1.7-11.1l-1.6,0.1c-0.6,0-1.9,0.1-1.9,0.1c0,0,0,0-0.1,0
				l-2,0.1C64.2,52.2,62.6,52.3,62,52.3z"/>
		</g>
		<g>
			<path class="st2" d="M71.6,67.6c-0.1,0-0.2,0-0.2-0.1c-0.1-0.1-0.1-0.1-0.1-0.2l1.9-16c0-0.1,0.1-0.2,0.3-0.2l1.4-0.1
				c1,0,2-0.1,3-0.1c1.2,0,2.1,0.1,2.8,0.6c0.6,0.4,1.3,1.1,1.4,2.4c0.1,0.6,0.1,1.4,0,2.2c-0.1,1-0.3,1.9-0.6,2.5
				c0,0.1-0.1,0.2-0.1,0.3c0,0.1,0.1,0.3,0.1,0.5c0.1,0.5,0.1,1.1,0.1,1.8c0,0.6-0.1,1.4-0.1,2.3l0,0.4c0,0.1,0,0.3,0,0.4
				c0,0.2,0,0.3,0,0.5c0,0.1,0,0.2,0,0.2l0.7,1.9c0,0.1,0,0.2,0,0.3c-0.1,0.1-0.1,0.1-0.2,0.1l-2.2,0.1c-0.6,0-2.9,0.1-2.9,0.1
				c0,0,0,0,0,0c0,0,0,0,0,0c0,0-2.6,0.1-3.2,0.1L71.6,67.6C71.6,67.6,71.6,67.6,71.6,67.6z M73.7,51.6L71.9,67l1.6-0.1
				c0.5,0,2.6-0.1,3.1-0.1c0,0,0.1,0,0.1,0c0.1,0,0.1,0,0.2,0c0.5,0,2.2-0.1,2.8-0.1l1.8-0.1L80.8,65c0,0,0-0.1,0-0.1
				c0-0.1,0-0.2,0-0.3c0-0.2,0-0.3,0-0.5c0-0.2,0-0.3,0-0.5l0-0.4c0.1-0.9,0.1-1.6,0.1-2.2c0-0.7,0-1.2-0.1-1.6
				c0-0.2-0.1-0.4-0.1-0.5c0-0.1,0-0.2,0-0.3c0.1-0.1,0.1-0.2,0.2-0.3c0.3-0.6,0.5-1.4,0.6-2.3c0.1-0.8,0.1-1.5,0-2.1
				c-0.2-1.1-0.7-1.7-1.2-2c-0.6-0.4-1.4-0.6-2.4-0.5c-1,0-2,0.1-3,0.1L73.7,51.6z"/>
		</g>
		<g>
			<path class="st2" d="M84.1,67.1c-0.1,0-0.1,0-0.2-0.1c-0.1-0.1-0.1-0.1-0.1-0.2l0.8-15.9c0-0.1,0.1-0.3,0.3-0.3l3.9-0.1
				c0.1,0,0.2,0,0.2,0.1c0.1-0.1,0.1-0.1,0.2-0.1l4.7,0c0.1,0,0.1,0,0.2,0.1c0.1,0.1,0.1,0.1,0.1,0.2L94,66.7c0,0.2-0.1,0.3-0.3,0.3
				l-4,0c0,0,0,0,0,0c-0.1,0-0.2-0.1-0.3-0.2l-0.1-0.3l0,0.3c0,0.1-0.1,0.3-0.3,0.3L84.1,67.1C84.1,67.1,84.1,67.1,84.1,67.1z
				 M85.2,51.1l-0.8,15.4l4.3-0.1l0.1-1.4c0-0.1,0.1-0.2,0.2-0.3c0.1,0,0.3,0.1,0.3,0.2l0.5,1.5l3.5,0L93.7,51l-4.1,0l0,0.9
				c0,0.1-0.1,0.3-0.2,0.3c-0.1,0-0.3-0.1-0.3-0.2c0,0-0.2-0.7-0.3-1L85.2,51.1z"/>
		</g>
		<g>
			<path class="st2" d="M107.1,67.1C107.1,67.1,107.1,67.1,107.1,67.1l-2.1,0c-0.6,0-3,0-3,0c-0.1,0-0.2-0.1-0.3-0.2l-0.2-1l-0.1,1
				c0,0.1-0.1,0.2-0.3,0.2c0,0-2.5,0-3.1,0l-1.9,0c-0.1,0-0.2,0-0.2-0.1c-0.1-0.1-0.1-0.1-0.1-0.2l0.3-1.9c0.7-4.2,1.4-8.5,2-12.7
				l0.2-1.4c0-0.1,0.1-0.2,0.3-0.2l1.4,0c0.7,0,3.3,0,3.3,0c0.1,0,0.2,0.1,0.3,0.2L104,52c0.9,4.2,1.9,8.5,2.9,12.7l0.5,2
				c0,0.1,0,0.2-0.1,0.2C107.3,67,107.2,67.1,107.1,67.1z M102.3,66.4c0.6,0,2.3,0,2.7,0l1.7,0l-0.4-1.7c-1-4.2-2-8.5-3-12.8l-0.2-1
				c-0.6,0-2.5,0-3.1,0L99,51l-0.2,1.1c-0.6,4.2-1.3,8.5-2,12.7l-0.3,1.5l1.6,0c0.5,0,2.2,0,2.9,0l0.3-2.2c0-0.1,0.1-0.2,0.3-0.2
				c0,0,0.1,0,0.1,0c0.1,0,0.2,0.1,0.3,0.2L102.3,66.4z"/>
		</g>
		<g>
			<path class="st2" d="M121.6,67.6C121.6,67.6,121.6,67.6,121.6,67.6c0,0-2.9-0.2-3.4-0.2l-4.5-0.2l0,0c0,0-2.2-0.1-2.7-0.1l-1.4,0
				c-0.1,0-0.3-0.1-0.3-0.3l-1.2-16c0-0.1,0-0.2,0.1-0.2c0.1-0.1,0.1-0.1,0.2-0.1l1.8,0.1c0.6,0,3.1,0.1,3.1,0.1
				c0.1,0,0.2,0.1,0.3,0.2l0.3,1.1c0.2,0.6,0.3,1.1,0.5,1.7c0-0.4,0.1-0.8,0.1-1.2l0.1-1.5c0-0.1,0.1-0.3,0.3-0.3
				c0,0,2.8,0.1,3.5,0.2l1.3,0.1c0.1,0,0.2,0.1,0.3,0.2l2,16c0,0.1,0,0.2-0.1,0.2C121.8,67.6,121.7,67.6,121.6,67.6z M109.8,66.6
				l1.2,0c0.5,0,2.7,0.1,2.7,0.1l4.5,0.2l0,0c0.4,0,2.3,0.1,3.1,0.2l-1.9-15.4l-1.1-0.1c-0.5,0-2.5-0.1-3.2-0.2l-0.1,1.3
				c-0.1,0.8-0.2,1.7-0.2,2.6c0,0.1-0.1,0.2-0.3,0.3c-0.1,0-0.3-0.1-0.3-0.2c-0.3-1-0.6-2-0.9-3.1l-0.3-0.9c-0.6,0-2.3-0.1-2.9-0.1
				l-1.5,0L109.8,66.6z"/>
		</g>
		<g>
			<path class="st2" d="M133.1,68.4C133.1,68.4,133.1,68.4,133.1,68.4l-2.1-0.2c-1.5-0.1-3-0.2-4.6-0.3l-1.3-0.1
				c-0.1,0-0.2-0.1-0.3-0.2l-2.5-16c0-0.1,0-0.2,0.1-0.2c0.1-0.1,0.1-0.1,0.2-0.1l2,0.1c1.4,0.1,2.9,0.2,4.3,0.3l1.2,0.1
				c0.1,0,0.2,0.1,0.3,0.2l0.8,4.5c0,0.1,0,0.2-0.1,0.2s-0.1,0.1-0.2,0.1l-2.3-0.2l0.1,0.6c0.7,0,2.3,0.2,2.3,0.2
				c0.1,0,0.2,0.1,0.3,0.2l0.8,4.5c0,0.1,0,0.2-0.1,0.2c-0.1,0.1-0.1,0.1-0.2,0.1l-2.2-0.2l0.1,0.9c0.7,0.1,2.5,0.2,2.5,0.2
				c0.1,0,0.2,0.1,0.3,0.2l0.8,4.5c0,0.1,0,0.2-0.1,0.2C133.2,68.4,133.2,68.4,133.1,68.4z M125.4,67.3l1,0.1
				c1.5,0.1,3.1,0.2,4.6,0.3l0,0l1.7,0.1l-0.7-3.9c-0.6,0-2.1-0.2-2.5-0.2c-0.1,0-0.2-0.1-0.3-0.2L129,62c0-0.1,0-0.2,0.1-0.2
				c0.1-0.1,0.1-0.1,0.2-0.1l2.2,0.2l-0.7-3.9c-0.5,0-1.9-0.1-2.3-0.2c-0.1,0-0.2-0.1-0.3-0.2l-0.2-1.1c0-0.1,0-0.2,0.1-0.2
				c0.1-0.1,0.1-0.1,0.2-0.1l2.3,0.2l-0.7-3.9l-1-0.1c-1.4-0.1-2.8-0.2-4.3-0.3l-1.6-0.1L125.4,67.3z"/>
		</g>
		<g>
			<path class="st2" d="M145.7,69.6C145.7,69.6,145.7,69.6,145.7,69.6l-4.4-0.4c-0.1,0-0.1,0-0.2-0.1c-0.1,0-0.1,0-0.2,0l-2.2-0.2
				c-0.5-0.1-2.8-0.3-2.8-0.3c-0.1,0-0.2-0.1-0.3-0.2l-3.4-16.1c0-0.1,0-0.2,0.1-0.2c0.1-0.1,0.1-0.1,0.2-0.1l4.2,0.4c0,0,0,0,0,0
				c0,0,0,0,0.1,0l4.8,0.5c0.1,0,0.2,0.1,0.2,0.2l4,16.2c0,0.1,0,0.2-0.1,0.3C145.9,69.6,145.8,69.6,145.7,69.6z M141.5,68.6
				l3.8,0.4l-3.8-15.6l-4.3-0.4c0,0.1-0.1,0.2-0.2,0.2c-0.1,0.1-0.3,0-0.3-0.1l-0.1-0.1l-3.7-0.3l3.3,15.6c0.6,0.1,2.2,0.2,2.6,0.2
				l1.8,0.2l-0.1-0.4c0-0.1,0-0.3,0.2-0.3c0.1-0.1,0.3,0,0.3,0.1L141.5,68.6z"/>
		</g>
		<g>
			<path class="st2" d="M155,70.7C155,70.7,155,70.7,155,70.7l-2.4-0.3l0,0c-0.6-0.1-2.8-0.3-2.8-0.3c-0.1,0-0.2-0.1-0.2-0.2
				l-3.2-11.5l-1.4-0.2c-0.1,0-0.2-0.1-0.2-0.2l-1.3-4.6c0-0.1,0-0.2,0.1-0.3c0.1-0.1,0.1-0.1,0.2-0.1l2.3,0.3
				c1.6,0.2,3.1,0.4,4.7,0.6l1,0.1c0.1,0,0.2,0.1,0.2,0.2l1.4,4.6c0,0.1,0,0.2-0.1,0.3c-0.1,0.1-0.2,0.1-0.2,0.1L152,59l3.3,11.3
				c0,0.1,0,0.2-0.1,0.3C155.2,70.7,155.1,70.7,155,70.7z M152.6,69.8l2,0.2l-3.3-11.3c0-0.1,0-0.2,0.1-0.3c0.1-0.1,0.2-0.1,0.2-0.1
				l1.1,0.1l-1.2-4l-0.9-0.1c-1.6-0.2-3.1-0.4-4.7-0.6l-1.9-0.2l1.1,4l1.4,0.2c0.1,0,0.2,0.1,0.2,0.2l3.2,11.5
				C150.5,69.6,152.1,69.8,152.6,69.8L152.6,69.8z"/>
		</g>
	</g>
	<g>
		<g>
			<path class="st4" d="M39.4,68.5c1.1-3.9,2.3-7.8,3.4-11.7c-0.5,0.1-1.1,0.1-1.6,0.2c0.1-0.4,0.3-0.8,0.4-1.3
				c1.6-0.2,3.1-0.4,4.7-0.6c-0.1,0.4-0.2,0.8-0.3,1.3c-0.5,0.1-1,0.1-1.5,0.2c-1.1,3.9-2.2,7.8-3.3,11.7
				C40.6,68.4,40,68.5,39.4,68.5z"/>
		</g>
		<g>
			<path class="st4" d="M51.3,67.4c-0.8,0.1-1.3,0-1.7-0.2c-0.4-0.2-0.6-0.6-0.6-1.2c0-0.6,0-1.3,0.2-2.1c0.5-1.9,0.9-3.8,1.4-5.7
				c0.2-0.7,0.4-1.4,0.7-2c0.3-0.6,0.7-1,1.2-1.4c0.5-0.3,1.1-0.6,1.9-0.6c0.6-0.1,1,0,1.3,0.1c0.3,0.1,0.5,0.4,0.7,0.7
				c0.1,0.3,0.2,0.7,0.2,1.1c0,0.4-0.1,0.9-0.2,1.5c-0.4,1.9-0.8,3.8-1.2,5.7c-0.2,0.9-0.4,1.6-0.7,2.2c-0.3,0.6-0.7,1-1.2,1.4
				C52.6,67.1,52,67.3,51.3,67.4z M51.6,66.1c0.3,0,0.6-0.1,0.8-0.3c0.2-0.2,0.4-0.5,0.5-0.8c0.1-0.4,0.3-0.9,0.4-1.5
				c0.4-1.9,0.9-3.9,1.3-5.8c0.2-0.8,0.2-1.3,0.2-1.7c-0.1-0.4-0.3-0.5-0.8-0.5c-0.5,0-0.8,0.3-1.1,0.6c-0.3,0.4-0.5,1-0.7,1.7
				c-0.5,1.9-0.9,3.9-1.4,5.8c-0.2,0.6-0.2,1.1-0.3,1.5c0,0.4,0,0.6,0.2,0.8C51,66,51.2,66.1,51.6,66.1z"/>
		</g>
		<g>
			<path class="st4" d="M63.7,66.3c-0.8,0.1-1.3,0-1.7-0.2c-0.4-0.2-0.6-0.6-0.7-1.1c-0.1-0.5-0.1-1.1,0.1-1.9
				c0.6-3.2,1.2-6.4,1.7-9.5c0.6,0,1.1-0.1,1.7-0.1c-0.5,3.2-1.1,6.3-1.6,9.5C63,63.4,63,63.8,63,64.1c0,0.3,0,0.6,0.2,0.7
				c0.1,0.2,0.4,0.2,0.8,0.2c0.4,0,0.7-0.1,0.9-0.3c0.2-0.2,0.3-0.4,0.4-0.8c0.1-0.3,0.2-0.7,0.2-1.2c0.5-3.2,1-6.3,1.5-9.5
				c0.6,0,1.1-0.1,1.7-0.1c-0.5,3.2-1,6.3-1.4,9.5c-0.1,0.8-0.3,1.4-0.6,1.9c-0.3,0.5-0.6,0.9-1.1,1.2
				C65.1,66.1,64.5,66.3,63.7,66.3z"/>
		</g>
		<g>
			<path class="st4" d="M73.4,65.6c0.5-4.3,1-8.5,1.5-12.8c1,0,2-0.1,3-0.1c0.8,0,1.3,0.1,1.6,0.3c0.3,0.2,0.5,0.6,0.6,1.1
				c0.1,0.5,0.1,1.1,0,1.8c-0.1,0.8-0.2,1.4-0.4,1.9c-0.2,0.5-0.6,0.8-1.2,0.9c0.3,0,0.5,0.1,0.6,0.3c0.2,0.2,0.3,0.4,0.3,0.7
				c0.1,0.3,0.1,0.8,0.1,1.4c0,0.6,0,1.3-0.1,2.1c0,0.1,0,0.2,0,0.4c0,0.2,0,0.3,0,0.5c0,0.2,0,0.4,0,0.5c0,0.2,0,0.3,0,0.5
				c0,0.1,0,0.2,0,0.3c-0.6,0-1.2,0-1.8,0.1c0,0,0-0.1,0-0.3c0-0.1,0-0.3,0-0.6c0-0.2,0-0.5,0.1-0.9c0-0.3,0.1-0.7,0.1-1.1
				c0-0.4,0.1-0.9,0.1-1.4c0-0.5,0.1-0.9,0-1.1c0-0.3-0.1-0.4-0.3-0.5c-0.2-0.1-0.4-0.1-0.8-0.1c-0.3,0-0.7,0-1,0
				c-0.2,2.1-0.4,4.1-0.7,6.2C74.6,65.6,74,65.6,73.4,65.6z M76,58.3c0.4,0,0.7,0,1.1,0c0.3,0,0.6-0.1,0.7-0.2
				c0.2-0.1,0.3-0.3,0.4-0.7c0.1-0.3,0.2-0.8,0.2-1.5c0,0,0-0.1,0-0.1c0.1-0.5,0.1-0.9,0-1.2c0-0.3-0.1-0.5-0.3-0.5
				c-0.2-0.1-0.4-0.1-0.7-0.1c-0.4,0-0.7,0-1.1,0C76.3,55.4,76.1,56.8,76,58.3z"/>
		</g>
		<g>
			<path class="st4" d="M85.8,65.2c0.2-4.2,0.5-8.5,0.7-12.7c0.4,0,0.8,0,1.3,0c1,2.9,2,5.7,3.1,8.6c0-1.2,0-2.5-0.1-3.7
				c0-1.7,0.1-3.3,0.1-5c0.5,0,1,0,1.5,0c-0.1,4.2-0.2,8.5-0.3,12.7c-0.4,0-0.9,0-1.3,0c-1.1-2.9-2.1-5.8-3-8.7c0,1.1,0,2.1,0,3.2
				c-0.1,1.8-0.2,3.7-0.2,5.5C86.9,65.2,86.4,65.2,85.8,65.2z"/>
		</g>
		<g>
			<path class="st4" d="M98.1,65.1c0.7-4.2,1.4-8.5,2-12.7c0.7,0,1.3,0,2,0c0.9,4.3,1.9,8.5,3,12.8c-0.6,0-1.1,0-1.7,0
				c-0.2-0.8-0.3-1.6-0.5-2.4c-0.9,0-1.8,0-2.7,0c-0.1,0.8-0.2,1.6-0.3,2.4C99.2,65.1,98.6,65.1,98.1,65.1z M100.3,61.4
				c0.8,0,1.5,0,2.3,0c-0.5-2.3-0.9-4.5-1.4-6.7c0,0,0,0,0,0C100.9,57,100.6,59.2,100.3,61.4z"/>
		</g>
		<g>
			<path class="st4" d="M111,65.3c-0.3-4.3-0.7-8.5-1-12.8c0.6,0,1.3,0,1.9,0.1c1,3.4,2.1,6.9,3.2,10.3c0.4-3.4,0.8-6.7,1.1-10.1
				c0.6,0,1.3,0.1,1.9,0.1c0.5,4.3,1.1,8.5,1.6,12.8c-0.5,0-1-0.1-1.5-0.1c-0.2-1.6-0.4-3.2-0.6-4.8c-0.1-1.6-0.3-3.2-0.4-4.8
				c-0.4,3.2-0.8,6.3-1.2,9.5c-0.4,0-0.9,0-1.3-0.1c-1.1-3.2-2.2-6.5-3.2-9.7c0.2,1.6,0.4,3.2,0.6,4.8c0.1,1.6,0.3,3.2,0.4,4.8
				C112.1,65.3,111.5,65.3,111,65.3z"/>
		</g>
		<g>
			<path class="st4" d="M126.5,66.1c-0.7-4.3-1.3-8.5-2-12.8c1.4,0.1,2.8,0.2,4.3,0.3c0.1,0.4,0.2,0.8,0.2,1.3
				c-0.9-0.1-1.7-0.1-2.6-0.2c0.2,1.5,0.5,2.9,0.7,4.4c0.8,0.1,1.7,0.1,2.5,0.2c0.1,0.4,0.2,0.8,0.2,1.3c-0.8-0.1-1.7-0.1-2.5-0.2
				c0.3,1.6,0.5,3.1,0.8,4.7c0.9,0.1,1.9,0.1,2.8,0.2c0.1,0.4,0.2,0.8,0.2,1.3C129.6,66.3,128.1,66.2,126.5,66.1z"/>
		</g>
		<g>
			<path class="st4" d="M137.3,66.9c-0.9-4.3-1.8-8.6-2.7-12.9c0.4,0,0.8,0.1,1.3,0.1c1.7,3,3.5,6.1,5.4,9.1
				c-0.4-1.2-0.7-2.5-1.1-3.7c-0.4-1.7-0.8-3.4-1.2-5c0.5,0,1,0.1,1.5,0.1c1.1,4.3,2.1,8.6,3.2,12.9c-0.4,0-0.9-0.1-1.3-0.1
				c-1.8-3.1-3.6-6.1-5.4-9.2c0.3,1.1,0.5,2.2,0.8,3.3c0.4,1.9,0.8,3.7,1.2,5.6C138.4,67,137.9,67,137.3,66.9z"/>
		</g>
		<g>
			<path class="st4" d="M151,68.3c-1.1-3.9-2.2-7.8-3.3-11.7c-0.5-0.1-1.1-0.1-1.6-0.2c-0.1-0.4-0.2-0.8-0.3-1.3
				c1.6,0.2,3.1,0.4,4.7,0.6c0.1,0.4,0.3,0.8,0.4,1.3c-0.5-0.1-1-0.1-1.5-0.2c1.1,3.9,2.3,7.8,3.4,11.7
				C152.2,68.5,151.6,68.4,151,68.3z"/>
		</g>
	</g>
</g>
</svg>
